<svg xmlns="http://www.w3.org/2000/svg" width="530" height="180" viewBox="0 0 530 180"><path d="M360.3 89c-.8-.7-1.7-1-2.9-1-1.5 0-2.7.5-3.6 1.6-.9 1-1.4 2.2-1.4 3.5 0 1.2.4 2.1 1.1 2.8.7.7 1.7 1.1 2.9 1.1 1.5 0 2.7-.5 3.6-1.6.9-1.1 1.3-2.3 1.3-3.7.1-1.1-.2-2-1-2.7zm-.6 4.5c-.2.8-.6 1.4-1.2 1.9s-1.3.8-2.1.8-1.4-.2-1.9-.7-.8-1.2-.8-2.1c0-1.1.3-2.2.9-3.1.6-.9 1.5-1.4 2.6-1.4.8 0 1.4.2 1.9.7s.8 1.1.8 1.9c.2.6.1 1.2-.2 2zm-11 1.9l-4.5-7.3h-1.1l-1.2 8.6h1.2l.7-7.3 4.4 7.3h1.2l1.5-8.6h-1.1l-1.1 7.3zm-14.2-7.3l-1.5 8c0 .5.8.6.8.6h5.7c.9.1.3-1.1.3-1.1h-5.7l.3-2.6h5.6c.6 0 .4-1.1.4-1.1h-5.7l.6-2.6h5.1c1.1-.1.7-1.2.7-1.2h-6.6zm-3.7 0l-5.2 3.8.4-3.8h-1.1l-1.5 8.6h1.2l.7-3 1.5-1 3.2 4.1h1.2v-.3l-3.7-4.5 4.8-3.8h-1.5v-.1zm-13.1-.2h-7.1l-1.9 9.2h7.2s3.1-.1 3.3-2.7c0 0 .3-1.5-1.1-2 0 0 2-1.1 1.9-2 0 0-.1-2.5-2.3-2.5zm-1 6.2c-.1.8-1 .7-1 .7h-3.9l.6-1.4h3.3c1.2 0 1 .7 1 .7zm-.5-2.4h-3.6l.3-1.4h3.6c1 .8-.3 1.4-.3 1.4zm-15.3 3.4c-1.1 0-.7-1.7-.7-1.7l1.5-5.5h-3l-1.4 6.5c-.4 2.5 1.9 2.7 1.9 2.7h7.1c1.6 0 1-2 1-2h-6.4zm-83.6-44.8h-13.8L201 65.4h16.3v-1.3h13.2l1.9-15.7h-14.5l-.6 1.9zm-3.4 8.8h-5.1l-2.1 3.5h-2.6l8-11 3.9 7.8v3.9l-2.1-4.2zm5-4.2s1-4.9 5.5-4.9 4.7 4 4.7 4H227s-.2-2-2.6-2c-1.8 0-3.8 1.2-3.8 4.1 0 2.8 2 3.1 3.2 3.1 0 0 .9.2 2.6-.7l.6-2h-3.2v-1.4h5.1l-.6 3.1s-.6 2.8-4.9 2.8c-3.7.1-5.4-3.1-4.5-6.1zm-8.9 2.4h3.1l-1.1-2.7-2 2.7zm25.8-4.6h2.3l.4 1.8h1.1l-1.4-6.3h-.9l-3.7 6.1-.1.2h1.2l1.1-1.8zm.6-1l.5-.9c.3-.4.5-.8.6-1.1.1.3.1.6.2 1l.2 1h-1.5zm5.3 2.9c.3 0 .6 0 .8-.1s.5-.2.7-.3c.2-.1.3-.3.4-.5.1-.2.2-.4.2-.7 0-.2 0-.4-.1-.6-.1-.1-.2-.3-.3-.4-.1-.1-.3-.2-.4-.2-.1-.1-.3-.1-.4-.2-.1 0-.2-.1-.3-.1-.1 0-.1-.1-.2-.1s-.1-.1-.1-.1v-.2c0-.1 0-.1.1-.2 0-.1.1-.1.2-.2.1 0 .1-.1.3-.1h.4c.2 0 .4 0 .6.1.2 0 .4.1.6.2l.1.1.2-.8h-.1c-.1 0-.2-.1-.3-.1h-.2c-.1 0-.2 0-.2-.1-.1 0-.2 0-.3-.1h-.5c-.3 0-.5 0-.7.1l-.6.3c-.2.1-.3.3-.4.5-.1.2-.2.4-.2.7 0 .2 0 .4.1.5l.3.3c.1.1.2.2.3.2.1.1.2.1.4.1.1 0 .2.1.4.1.1 0 .2.1.3.1.1 0 .1.1.2.2 0 0 .1.1.1.2v.2c0 .1-.1.1-.1.2-.1.1-.2.1-.3.2-.1 0-.3.1-.6.1-.2 0-.4 0-.6-.1-.2 0-.4-.1-.6-.2l-.1-.1-.2.8h.1c.2.1.4.1.7.2-.2.1 0 .1.3.1zm4.6-4.7h-1l-1 4.6h1l1-4.6zm.5-1.8h-1.1l-.2 1h1.1l.2-1zm-.2 4.9c0 .2 0 .4.1.6.1.2.2.4.3.5.1.1.3.3.4.3.2.1.4.1.6.1h.4c.2 0 .3-.1.4-.2.1-.1.3-.2.4-.3l.2-.2c0 .2.1.3.2.4.1.1.4.2.7.2h.6l.2-.9h-.7v-.3l.8-3.5h-.9l-.2.3c-.1-.1-.2-.2-.4-.3-.4-.2-1-.2-1.5 0-.2.1-.4.2-.6.4l-.5.5c-.2.2-.3.4-.4.7-.1.3-.2.5-.2.7.1.5.1.8.1 1zm1-.1v-.5c0-.1.1-.3.1-.5.1-.2.1-.3.2-.5.1-.1.2-.3.3-.4.1-.1.3-.2.4-.3.1-.1.3-.1.5-.1h.3c.1 0 .2.1.2.1.1 0 .1.1.2.1l.1.1-.2 1.1c-.1.3-.1.5-.3.7-.1.2-.2.4-.4.5-.1.1-.3.2-.4.3-.2.1-.4.1-.7.1-.1 0-.1-.1-.2-.1 0-.1-.1-.1-.1-.2.1-.1 0-.2 0-.4zm-12.4 6.4c.1-.2.3-.4.4-.6.2-.2.4-.4.6-.5.2-.1.5-.3.7-.3.5-.1 1.1-.2 1.7 0 .2 0 .5.1.7.2h.1l.2-.9h-.1c-.1 0-.2-.1-.3-.1s-.3-.1-.4-.1c-.1 0-.3 0-.5-.1h-.5c-.5 0-.9.1-1.3.2s-.7.3-1 .5c-.3.2-.6.4-.8.7-.3.3-.4.6-.6.9-.2.3-.3.6-.3.9-.1.3-.1.6-.1 1s.1.8.2 1.1c.1.3.3.6.6.8.2.2.5.4.9.5.3.1.7.2 1.1.2.3 0 .6 0 .9-.1.3-.1.6-.2.8-.3.3-.2.5-.4.6-.6.2-.3.3-.6.4-1l.3-1.5H237l-.2.9h1.5l-.1.4c-.1.4-.3.8-.6 1-.3.2-.7.3-1.1.3-.3 0-.5 0-.7-.1-.2-.1-.4-.2-.5-.3-.1-.1-.2-.3-.3-.5-.1-.2-.1-.5-.1-.7 0-.3 0-.6.1-.8 0-.6.1-.8.2-1.1zm9.7-.6h-.9l-.2.3c-.1-.1-.2-.2-.4-.3-.4-.2-1-.2-1.5 0-.2.1-.4.2-.6.4l-.5.5c-.2.2-.3.4-.4.7-.1.2-.2.5-.2.7 0 .3-.1.5-.1.8 0 .2 0 .4.1.6.1.2.2.4.3.5.1.1.3.2.5.3.2.1.4.1.6.1h.4c.1 0 .3-.1.4-.2.1-.1.3-.2.4-.3l.2-.2c0 .2.1.3.2.4.1.1.4.2.7.2h.6l.2-.9h-.7V62l.9-3.3zm-1.3 1.2l-.2 1.1c-.1.3-.1.5-.2.7-.1.2-.2.4-.4.5-.1.1-.3.2-.4.3-.3.1-.5.1-.7.1-.1 0-.1-.1-.2-.1-.1-.1-.1-.1-.1-.2s-.1-.3-.1-.4v-.5c0-.2.1-.3.1-.5.1-.2.1-.3.2-.5.1-.1.2-.3.3-.4.1-.1.2-.2.4-.3.2-.1.3-.1.5-.1h.3c.1 0 .1 0 .2.1.1 0 .1.1.2.1 0 0 .1 0 .1.1zm8.7-1c-.1-.1-.3-.2-.4-.2-.3-.1-.6-.1-1 0-.2 0-.3.1-.5.2-.1.1-.3.2-.5.3l-.2.2c0-.1 0-.1-.1-.2l-.3-.3c-.1-.1-.2-.1-.4-.2-.1 0-.3-.1-.5-.1-.3 0-.6.1-.9.2-.2.1-.4.2-.5.3v-.4h-.9l-1 4.6h1l.6-2.5c0-.2.1-.4.2-.5.1-.2.2-.3.3-.4.1-.1.3-.2.4-.3.3-.1.6-.1.9 0 0 0 .1.1.1.4v.5l-.7 2.9h1l.6-2.5c0-.2.1-.4.2-.5.1-.2.2-.3.3-.4.1-.1.3-.2.4-.3.3-.1.7-.1.9 0 .1.1.1.2.1.4v.5l-.7 2.9h1l.6-2.7V60c0-.2 0-.3-.1-.5.3-.3.2-.5.1-.6zm.8 4.4h1l1-4.6h-1l-1 4.6zm2.5-6.3h-1.1l-.2 1h1.1l.2-1zm4.4 2.8c0-.2 0-.4-.1-.5-.1-.1-.2-.3-.3-.4-.1-.1-.3-.2-.4-.2-.5-.1-1-.1-1.5.1-.2.1-.4.2-.5.3v-.4h-.9l-1 4.6h1l.6-2.5c0-.2.1-.4.2-.5.1-.2.2-.3.3-.4.2-.1.3-.2.5-.3.3-.1.5-.1.8-.1.1 0 .1 0 .2.1l.1.1v.2c0 .1 0 .3-.1.5l-.6 2.8h1l.6-2.7c0-.1.1-.3.1-.4v-.3zm4.5-1.1l-.2.3c-.1-.1-.2-.2-.4-.3-.4-.2-1-.2-1.5 0-.2.1-.4.2-.6.4-.2.2-.4.3-.5.5-.2.2-.3.4-.4.7-.1.2-.2.5-.2.7 0 .3-.1.5-.1.8 0 .2 0 .4.1.6.1.2.1.3.3.5.1.1.3.2.4.3.2.1.4.1.6.1h.4c.1 0 .3-.1.4-.1.1-.1.3-.1.4-.3l.1-.1v.1c-.1.3-.1.5-.3.7-.1.2-.2.4-.4.5-.1.1-.3.2-.5.3-.3.1-.8.1-1.4 0-.2 0-.4-.1-.6-.2l-.1-.1-.2.9h.1c.2.1.4.1.7.2.2 0 .5.1.8.1.3 0 .7 0 1-.1.3-.1.6-.2.8-.4.3-.2.4-.4.6-.6.2-.2.3-.5.4-.9l1.1-4.7-.8.1zm-.5 1.2l-.2 1.1c-.1.2-.1.5-.2.7-.1.2-.2.4-.4.5-.2.2-.3.2-.4.3-.3.1-.5.1-.7.1-.1 0-.1-.1-.2-.1 0 0-.1-.1-.1-.2s-.1-.3-.1-.4v-.5c0-.1.1-.3.1-.5.1-.2.1-.3.2-.5.1-.1.2-.3.3-.4.1-.1.2-.2.4-.3.2-.1.3-.1.5-.1h.3c.1 0 .2.1.2.1.1 0 .1.1.2.2.1-.1.1-.1.1 0zM21.3 18.2c-.6.7-.8 1.6-.5 2 .3.4 1.1.1 1.7-.7.6-.7.8-1.6.5-2s-1-.1-1.7.7zm-3.4-3.9c-.2.2-.4.5-.5.8l-1.8.8c.1-.3 0-.6-.2-.8-.4-.4-1.3-.1-2 .8-.2.3-.4.6-.5.9l-1.6.4c0-.1-.1-.2-.1-.3-.3-.4-1.1-.1-1.8.7-.6.7-.9 1.6-.5 2L8.6 21c-.2.1-.4.3-.5.4-.7.7-1 1.5-.7 1.9.1.1.3.2.5.2L7.6 25c-.2.1-.4.2-.6.4-.7.6-1 1.4-.6 1.8.3.4 1.1.2 1.7-.5.1-.1.2-.2.2-.3l2.4-.3c-.1.3 0 .5.1.6.2.4.9.2 1.5-.5.1-.1.2-.2.3-.4l3-.3c0 .2 0 .3.1.4.3.4.9.2 1.5-.5.6-.6.8-1.4.6-1.8-.2-.4-.9-.2-1.5.5-.2.2-.3.3-.4.5L13 25c.1-.3.1-.5-.1-.7-.2-.4-.9-.2-1.5.5-.1.1-.2.3-.3.4l-2.3.3c.1-.3.1-.7 0-.9-.1-.1-.3-.2-.4-.2l.2-1.1.1-.3c.2-.1.5-.3.7-.5.7-.7 1-1.6.7-1.9-.1-.1-.3-.2-.5-.2l.4-1.3c.3-.1.6-.4.9-.7.2-.3.4-.6.5-.8l1.5-.4c0 .3 0 .5.2.7.4.4 1.3.1 2-.8.2-.2.3-.5.4-.7l1.8-.6c0 .2.1.4.2.5.1.1.3.2.5.2l-.4 2c-.2.1-.3.3-.5.5-.2.3-.4.5-.6.8l-2 .5c.1-.4 0-.7-.1-.9-.3-.4-1.1-.1-1.8.7-.6.8-.9 1.8-.5 2.2.3.4 1.1.1 1.8-.7.2-.2.3-.4.4-.7l2-.5c0 .3 0 .5.1.6.3.4 1.1.2 1.8-.6s1-1.7.7-2.2c-.1-.2-.3-.2-.5-.2l.3-2c.2-.2.5-.4.7-.6.7-.9 1-1.9.6-2.3-.5 0-1.4.4-2.1 1.2zM16 12.9c.7-.9 1-1.9.6-2.3-.4-.4-1.3-.1-2 .8s-1 1.9-.6 2.3c.4.4 1.3 0 2-.8zM3.7 22.8c-.7.5-1.1 1.2-.8 1.6.2.4 1 .3 1.8-.2.7-.5 1.1-1.3.9-1.7-.3-.4-1.1-.3-1.9.3zm7 5.7c-.5.3-.7.9-.5 1.4.3.4.9.5 1.4.2.5-.3.7-.9.5-1.4-.2-.5-.8-.6-1.4-.2zm42.5-14h1.1v5.3h-1.1v-5.3zm-14.6 1.2h2.2v4.1h1.1v-4.1h2.2v-1h-5.5v1zm11.6 2l-1.3-3.1h-.8l-1.3 3.1-.9-3.3-1.1.1 1.5 5h.7l1.4-3.4 1.4 3.2.1.2h.8l1.5-5-1.1-.1-.9 3.3zm-22 2h2.5v-1h-2.5c-.4 0-.8-.1-.8-.5v-.7h3.4v-1h-3.4V16c0-.1 0-.2.1-.3.1-.2.4-.2.7-.2h1.7v-1h-1.7c-.7 0-1.2.2-1.6.5-.3.3-.4.6-.4 1v2.2c.1 1 .8 1.5 2 1.5zm8.3-4.8v3.2l-3.2-3.4-.1-.1h-.9v5.2h1.1v-3.5l3.1 3.3.1.1h1v-5.2h-1.1v.4zm27.1 1.7v-.5c0-.1 0-.2.1-.3.1-.1.4-.2.7-.2h1.7v-1h-1.7c-.7 0-1.2.2-1.6.5-.3.3-.4.6-.4 1v2.2c0 .9.7 1.4 1.9 1.4h2.5v-1h-2.5c-.4 0-.8-.1-.8-.5v-.7h3.3l.2.1v-1h-3.4zM43 22l.4.1.1-1h-.4c-.4-.1-.8-.1-1.2-.1-2.7 0-3.2 1.4-3.2 2.6 0 .8.3 1.5.8 1.9s1.3.6 2.3.6c.4 0 .8 0 1.2-.1h.4l-.1-1H43c-.4 0-.7.1-1 .1-1.5 0-2.1-.4-2.1-1.5-.1-1.4.8-1.9 3.1-1.6zm5.6.9h-3.1v-2h-1.1v5.3h1.1v-2.3h3.1v2.3h1.1v-5.3h-1.1v2zM26.3 22h2.2v4.1h1.1V22h2.2v-1h-5.5v1zM60 14.9v3.2l-3.2-3.4-.1-.1h-.8v5.2H57v-3.5l3.1 3.3.1.1h.8v-5.2h-1v.4zm-26 7.6c0-.1 0-.2.1-.3.2-.2.4-.2.7-.2h1.7v-1h-1.7c-.7 0-1.2.2-1.6.5-.3.3-.4.6-.4 1v2.2c0 .9.7 1.4 1.9 1.4h2.5v-1h-2.5c-.4 0-.8-.1-.8-.5V24h3.4v-1h-3.4l.1-.5zm111.1-3.8l3-.4c.1 0 .3-.1.3-.3l.4-3c0-.1-.1-.2-.2-.2l-3 .4c-.1 0-.3.1-.3.3l-.4 3c0 .1.1.2.2.2zm-3.3-2.2c.1.1.1 0 .1-.1-.1-.3-.4-1.3 0-1.9l.3-.3v.6c-.1.3-.1.7.3 1 .4.3 1.2.1 1.6-.5.4-.6.4-1.1.1-1.3-.3-.2-.6-.2-.8-.2-.1 0-.1-.1 0-.1.3-.1.7-.2.9-.6.3-.4.2-.9-.5-1.4-.8-.5-1.3-.3-1.5 0-.2.3-.3.6-.2.9 0 .1 0 .1-.1 0-.1-.2-.2-.5-.5-.7-.4-.3-1-.1-1.4.4-.4.5-.4 1.3 0 1.6.5.3 1.1.2 1.4 0 .1 0 .1-.1.2 0v.1c-.2.3-1.5.4-1.9.3h-.1c.4.5 2 2.2 2.1 2.2zm-4.5 3.1h1.9v9.9h-1.9v-9.9zm-.5-7.2c-1-1.3-2.8-.5-2.3 1.2.3 1 1.2 1.1 1.9 1.3.7.2 1.2.6 1.3.8 0-.2.3-.9.7-1.4.5-.6 1.3-1.1 1-2.1-.5-1.6-2.4-1.4-2.6.2zm-5.9 5.9c1.1 1 2.4.2 2-1.1.3.3.7.9.5 1.2v.1c.3-.1.8-.7.9-.8.1-.1 0-.1 0-.1-.3.1-.8-.1-1.3-.5 1.2.3 2.1-.9 1.1-2-.6-.6-1.3-.4-1.9-.3h-1.5v1.5c0 .7-.4 1.4.2 2zm-1.6 9.2c-2.1 0-1.9-1.8-1.9-1.8v-6.1h-1.9v6.1c.5 4 3.9 3.6 3.9 3.6h6.5l-.1-1.8h-6.5zm18.9.1h-1.1l-5.3-8h-1.1v.8l6.5 9.1h1.2l6.5-9.1v-.8h-.4l-6.3 8zm8.5-8h9.9v1.9h-9.9v-1.9zm-40.1 4.7h6.6v1.4h-6.6v-1.4zm40.1-.9h9.9v1.9h-9.9v-1.9zm0 4.2h9.9v1.9h-9.9v-1.9zm-45.9-7.5h-5c-3 0-3.4 2.6-3.4 2.6v6.8h1.4v-6.6h8.5v6.6h1.4v-6.7c0-2.5-2.9-2.7-2.9-2.7zm-1.4 1.9h-2.6c-.3 0-.5-.2-.5-.5s.2-.5.5-.5h2.6c.3 0 .5.2.5.5s-.2.5-.5.5zm11.4-1.5h-5.3v-1c0-.7.6-.9.6-.9h3.7c1.7 0 1.4-2.2 1.4-2.2 0-1.5-1.4-1.6-1.4-1.6h-5.1v.9h4.7c.9 0 1.1.9 1.1.9 0 1-.9 1-.9 1h-3.5c-1.3 0-1.9 1.3-1.9 1.3v2.4h6.6v-.8zm135.8 84.3c-5.2 0-9.5-4.2-9.5-9.5 0-5.2 4.2-9.5 9.5-9.5 5.2 0 9.5 4.2 9.5 9.5s-4.3 9.5-9.5 9.5zm0-17.7c-4.6 0-8.3 3.7-8.3 8.3 0 4.6 3.7 8.3 8.3 8.3 4.6 0 8.3-3.7 8.3-8.3 0-4.6-3.7-8.3-8.3-8.3zm-2.4-3.3c0 .1 0 .1 0 0-.3-1.1-2.6-5.9-2.9-5.8-.3.1.2 5 .6 6.4-1.6-2.6-3.5-2.6-3.9-2.5 2.3 1.2 3.4 4.5 3.5 4.8 1.3-.8 2.7-1.2 4.3-1.4-.1-.3-.7-3.4.5-5.5-.4.2-2 1.2-2.1 4zm2 5.4c.4-1.1 1.9-1.4 3.4-.9 1.5.6 2.4 1.9 2 2.9-.4 1.1-1.9 1.4-3.4.9-1.5-.6-2.4-1.9-2-2.9zm-6.5 8.7v-4.8h1.3c.5 0 .9.1 1.1.3.4.3.5.8.5 1.1 0 .4-.1.7-.3.9-.1.2-.5.3-.7.4-.3.1-1 .1-1 .1v2h-.9zM251 94h-.4v1.1h.4c.3 0 .4 0 .5-.1.1-.1.2-.2.2-.4s-.1-.3-.2-.4c-.1-.2-.2-.2-.5-.2zm7-1h.8l2 4.9h-1l-.4-1h-1.9l-.4 1h-1L258 93zm1.1 3l-.3-.8c-.1-.3-.2-.6-.4-1-.2.5-.3.9-.3 1l-.3.8h1.3zm-5.9 2v-4.8h1v3.9h1.3v.9h-2.3zm8.4-.1v-2.1l-1.5-2.7h.9l1 1.9 1-1.9h.9l-1.5 2.7v2.1h-.8zm-56.3-.2v-5.6h1.5c.5 0 1 .1 1.3.3.5.3.6.9.6 1.3 0 .5-.2.8-.3 1.1-.1.2-.5.4-.8.5.3.5 1.4 2.5 1.4 2.5h-1.2s-1.2-2.3-1.3-2.3h-.2v2.3l-1-.1zm1.4-4.6h-.5v1.3h.5c.3 0 .5-.1.6-.2.2-.1.3-.3.3-.5s-.1-.4-.3-.5c-.1-.1-.3-.1-.6-.1zm-5.7 4.6v-5.6h1.5c.5 0 1 .1 1.3.3.5.3.6.9.6 1.3 0 .8-.5 1.4-1.1 1.5-.6.1-1.4.2-1.4.2v2.3h-.9zm1.4-4.6h-.5v1.3h.5c.3 0 .5-.1.6-.2.2-.1.3-.3.3-.5s-.1-.4-.2-.5c-.2-.1-.4-.1-.7-.1zm18.5-.2l-.7.7c-.4-.4-1.1-.8-1.7-.8-.3 0-.5.1-.7.1-.2.1-.4.2-.6.4-.2.2-.3.4-.4.6-.1.3-.2.6-.2.9 0 .6.2 1.1.5 1.5.4.4.8.6 1.4.6.4 0 .8-.1 1.2-.4.2-.2.4-.3.5-.7h-1.7v-1h2.9c0 1-.2 1.5-.7 2.2-.5.6-1.2.9-2.2.9-.4 0-.8-.1-1.2-.2-.4-.2-.7-.4-1-.6-.3-.3-.5-.6-.6-1-.2-.4-.2-.8-.2-1.2 0-.6.1-1.1.4-1.5.3-.5.6-.8 1.1-1.1s1-.4 1.5-.4.9.1 1.2.2c.3.1 1 .6 1.2.8zm6.8-.8l.9 5.6h-1.1l-.5-3.5-1.2 3.5h-1l-1.3-3.6-.5 3.6h-1l.9-5.6h1l1.4 4.1 1.4-4.1h1zm4-.1h1l2.3 5.7h-1.2l-.5-1.2h-2.2l-.5 1.2h-1.2l2.3-5.7zm1.3 3.5l-.4-.9c-.1-.3-.3-.7-.4-1.2-.2.6-.3 1-.4 1.2l-.4.9h1.6zM211.9 92h1l2.3 5.7H214l-.5-1.2h-2.2l-.5 1.2h-1.2l2.3-5.7zm1.3 3.5l-.4-.9c-.1-.3-.3-.7-.4-1.2-.2.6-.3 1-.4 1.2l-.4.9h1.6zm21.6-2.4V92h3.3v1.1H237v4.6h-1.1v-4.6h-1.1zm4.1 4.7v-5.7h1.1v5.7h-1.1zm5.1-.8c-.6 0-1-.2-1.4-.6-.4-.4-.5-.9-.5-1.5s.2-1.1.5-1.5c.4-.4.8-.6 1.4-.6 1.3 0 1.8.8 1.8.8l.7-.6c-.2-.3-.5-.6-.9-.8-.5-.3-1-.4-1.6-.4-.6 0-1.1.1-1.6.4-.5.3-.8.6-1.1 1.1-.3.5-.4 1-.4 1.5 0 .6.1 1.1.4 1.5.3.5.6.8 1.1 1.1.5.3 1 .4 1.6.4.6 0 1.1-.1 1.6-.4.4-.2.7-.5.9-.8l-.7-.7c0 .1-.7 1-1.8 1.1zm94.2-83l-1.9 2.9h4.4l-4 9.6h3l4-9.6h3.7l2.2-2.9h-11.4zm-2.7 2.9l2-2.9h-11.4l-5.4 12.5H333l1.7-2.2h-9.6l1.5-3h5.9l1.5-2.2h-6.6l1.5-2.2h6.6zm-13.4 5c.6-1.7-1.2-1.8-1.2-1.8.6.1 2-.9 2-.9l1.2-3.5c.6-1.6-1.2-1.8-1.2-1.8h-10.8v.6c1.5.1.7 1.6.7 1.6l-4 10.3h9c2.5 0 3.1-2 3.1-2l1.2-2.5zm-4.6 1.6h-4.2l.6-2.1h3.6c1.1 0 1.1.7 1.1.7.1 1-1.1 1.4-1.1 1.4zm.9-4.5h-3l.6-2.4h3.6s1 .2.9 1.2c0 0-.3 1.2-2.1 1.2zm-12 3.3c-.3.7-.7 1.2-1.2 1.5-.5.4-1.2.5-1.9.5-.8 0-1.3-.3-1.6-.8-.2-.5-.2-1.4.1-2.4l.1-.2h8.1l.1-.4c.6-2 .5-3.6-.3-4.7s-2.2-1.7-4.1-1.7-3.6.6-5 1.7c-1.5 1.1-2.5 2.7-3.1 4.7-.5 1.9-.4 3.4.4 4.5s2.2 1.7 4.1 1.7c1.6 0 3-.4 4.2-1.1 1.2-.7 2.2-1.9 3-3.3h-2.9zm-2.8-5.4c.5-.4 1-.7 1.6-.7.6 0 1.1.2 1.3.6.2.4.2 1-.1 1.9v.1h-3.8c.2-.8.5-1.4 1-1.9zM125.3 86.4v3.2h3.8v10.2h3.8V89.5h2.5l-1.9-3.2h-8.2v.1zm32.9 6.3h-4.4v2.5h1.6s-.8 1.5-2.6 1.2c0 0-2.7-.1-2.7-3.6 0 0-.1-2.8 2.6-3.3 0 0 1.9-.3 2.7 1.1 0 0 .1.6.5.5l2.5-1s.4-.1.1-.6c0 0-1.3-3.5-5.5-3.3 0 0-4.9-.2-6.3 4.9 0 0 .1-3.6-3.2-4.9h-8.9l1.9 3.2v10.1h3.2v-3.8h1.9s4.3.6 5-2.9c0 0-.3 4 3.1 5.9 0 0 3.4 1.8 6.8-.4l1.9 1s.3.3.3-.1v-6.8c.2.3-.1.3-.5.3zm-14.6-1.2c0 1.9-2 2-2 2l-1.7-.2v-3.8l1.9-.1c2 .1 1.8 2.1 1.8 2.1zm-39-2.8c.1.2-.2.4.1.5.3-.6.7-1 1-1.5-.6.1-.5.9-1.1 1zm-1.1 1.8c0 .3-.3.5-.1.5-.1.1-.3.3-.2.5.2 0 .1-.1.2-.1 0 0 0 .1.1.1 0-.1.1-.1.1-.2-.4-.2.1-.7-.1-.8zm1.7-2.9c.4-.3.6-.8.9-1-.1-.2-.3.2-.4.1.2-.1.3-.2.5-.4-.7.2-.9.8-1 1.3zm6.2 1.1c-.3.2-.6.5-1 .6.6-.1.8-.2 1-.6zm-3.4-3.8c.2.1.4-.2.3 0 .2.1.2-.3.3-.1 0 .1-.2.1-.1.2.1-.5.9-.4 1.3-.7-.6 0-1.4.2-1.8.6zm11.8 2c-.3-.1-.6-.2-.4-.5l-.1-.1c-.1 0-.1-.1-.2-.1 0 .3-.5.1-.5-.1.1 0 .2 0 .2-.1-.2.1-.4 0-.6-.1.1-.3-.3-.3-.1-.6.1.1.2.1.2 0-3-2.6-7.5-3.2-11.1-1.1-4.6 2.6-6.2 8.5-3.6 13.1s8.5 6.2 13.1 3.6 6.2-8.5 3.6-13.1c-.1-.4-.3-.6-.5-.9zm-1.1-.2c-.2 0-.3-.1-.5-.1 0 .1-.2.2-.2.3.2.1.3.1.3.3-.3 0-.3.4-.5.6-.1 0-.1-.2-.2-.1 0 .2-.2.4-.4.2 0 .2-.1.2 0 .3.3.1.1.4.2.7-.3.1-.2.8-.6 1 0-.1.1-.2.1-.3-.7-.6-.2-1.3 0-1.9-.1.1-.1.3-.2.2-.1-.1 0-.2-.2-.2-.3.1-.4.4-.2.6-.2 0-.6.2-.4-.1-.3 0-.5.2-1 .1-.2.4-.5.6-.9.9.2 0 .3.1.4.2.1-.3.3.1.5.1.1-.1-.1-.2.1-.3.1.4.2.7.3 1-.4.1 0 .4 0 .6-.2-.3-.2.1-.3 0 0-.4.1-.9-.2-1 0 .9-.6 1.2-.9 1.7-.3.1-.3 0-.4-.1-.3.2-.3.6-.7.6 0 .4.3.5.2 1-.2 0-.5.4-.7.1.3-.3.3-.7-.1-.7.1 0 .2-.2.2-.3-.3-.2-.5.1-.7.1 0-.3.1-.2.2-.4-.2-.1-.5.2-.6.4.1.1.1.2.2.2 0-.1.1-.1.2-.2 0 .2.3.1.2.3-.3 0-.5.2-.6.4.4.1.5.6.4 1-.1.3-.7 1.1-1 1.3-.5.3-1.2.2-1.5.4 0 .1.1.2.1.3-.2.1-.2.3-.4.3 0-.1-.2-.1-.2-.2.1-.1.1-.2.3-.2 0-.1-.1-.2 0-.3-.1 0-.1 0-.2-.1-.3.1-.6.2-.6.6.3.4.7.9.4 1.5-.4.1-.5.5-1 .5 0-.2.2-.2.1-.4-.3 0-.2-.7-.7-.7 0-.1.2-.2-.1-.2-.6 1 .5 1.6.6 2.8-.1 0-.2 0-.2.1.1.3.5.3.6.7-.2.1-.1.3-.1.5.5.3 1 .3 1.6.5 0 .2-.4-.1-.2.1.2.1.4.1.5.3-.4-.1-2-.3-2-.9-.6-.3-.9-1-1.2-1.6-.2-.4-.5-.9-.6-1.3.1.1.3.1.4.2.1.3.4.7.6.7-.2-.4-.1-1-.5-1.1.1-.7.2-1.2.1-1.8-.2 0-.3.1-.3.1-.3-.3 0-.4 0-.7-.2-.3-.2-.5-.3-.9-.2.1-.4-.2-.6-.2-.3.4-.8.7-1.2.7-.2.6-.2 1.2-.1 1.9-.1.1-.1 0-.2 0-.1-.3.2-.7-.1-.8-.1.1-.1.3-.2.2-.1-1.1-.2-2 .2-3-.4-.3-.1-1-.2-1.4-.3-.1-.3-.5-.5-.7 0 .7-.3 1.4-.8 1.4 0-5.4 4.4-9.7 9.7-9.7h.7c.9.1 1.7.2 2.5.5-.8 0-1.6-.2-2.1-.1 0-.1.1-.2-.1-.2-.1.1-.4 0-.3-.2-.8 0-2.2.3-3 .7.1.1.5-.1.6.1.1.4-.5.2-.3.5.1-.1.3-.1.3.1-.5.1-.8.3-1.3.3 0-.1.3-.2.1-.2 0 .2-.7.2-.4.3h.7c0 .1-.2 0-.2.1.3 0 .3.3.4.3.1-.1.1-.2.3-.2-.1.2-.2.3-.1.5.1-.3.7-.4.9-.3 0 .1-.1.1-.1.1.2 0 .1-.2.3-.1-.1.1 0 .3.1.3.3-.5 1.2 0 1.7-.4-.3 0-.1-.2-.2-.4.2.1.2-.1.3-.2 0 .1 0 .1.1.1-.1.2-.2.2-.2.3 0-.1.2-.1.2 0-.3.2.2.4-.1.7.3 0 .4.2.6 0 .1.1.3 0 .3.2s-.2.3.1.4c.1-.3.3 0 .5-.2 0-.2 0-.3.1-.3.1.1.2 0 .2.2.9.1 1.4.3 2 .1.1 0 .9-.3 1.3.1.6.1 1 .7.9.8zM4.3 167.9c1.7 2.6 4.6 4.3 7.9 4.3 5.2 0 9.5-4.2 9.5-9.5 0-5.2-4.2-9.5-9.5-9.5-5.2 0-9.5 4.2-9.5 9.5 0 .9.1 1.9.4 2.7 1.3-1.2 6.2-10 6.2-10 1.4-.9 1.3 1 1.3 1-.6 3.7 0 9.5 0 9.5.4 2 1.6.9 1.6.9 2-2.5 3.6-6.8 3.6-6.8.4-1.3 1.2-1 1.2-1 .7.4.6 1.3.6 1.3.2 2.7 1.3 4.5 1.3 4.5.7 1 .6 1.3.6 1.3-1.4.3-2.6-3.8-2.6-3.8l-3 4.8c-1.7 2.5-3.2 1.4-3.2 1.4-2.3-1.1-1.9-8.2-1.9-8.2l-4.5 7.6zm21.7-5.5v-1.9c.2.4.3.8.5 1.2l1.7 4.1v.1h.5l1.7-4.1c.2-.4.3-.8.5-1.2v5.3H32v-7h-1.4l-1.6 3.9c-.1.3-.3.8-.5 1.3-.2-.5-.3-.9-.5-1.3l-1.6-3.9H25v7h1v-3.5zm7.4-3.7h1v1.1h-1v-1.1zm0 2h1v5.1h-1v-5.1zm5.3 4.2c-.4.1-.9.1-1.2-.1-.2-.1-.3-.2-.5-.3-.1-.1-.2-.3-.3-.5-.1-.2-.1-.4-.1-.7 0-.3 0-.6.1-.9.1-.2.2-.4.3-.5.1-.1.3-.2.5-.3.4-.1.7-.1 1.1 0 .2 0 .4.1.6.2l.2.1v-.9h-.1c-.2-.1-.4-.2-.6-.2-.4-.1-.8-.1-1.3 0-.2 0-.4.1-.6.2s-.4.2-.5.4c-.2.1-.3.3-.4.5-.1.2-.2.4-.3.7-.1.3-.1.6-.1.9 0 .4.1.8.2 1.2.1.3.3.6.5.8.2.2.5.4.8.5.3.1.6.2 1 .2h.4c.1 0 .2 0 .4-.1.1 0 .2-.1.3-.1.1 0 .2-.1.2-.1h.1v-.9l-.2.1c-.2-.3-.4-.2-.5-.2zm2.7-2.6l.3-.3c.1-.1.3-.2.4-.2.1-.1.3-.1.5-.1s.3-.1.5-.1h.2v-1h-.2c-.2 0-.5 0-.7.1-.2.1-.3.1-.5.2-.1.1-.3.2-.4.3-.1.1-.1.1-.1.2l-.1-.6h-.8v5.1h1l-.1-3.6zm2.8 2.9c.2.2.5.4.8.5.3.1.6.2 1 .2s.7-.1 1-.2c.3-.1.6-.3.8-.5.2-.2.4-.5.5-.8.1-.3.2-.7.2-1.1 0-.4-.1-.8-.2-1.1-.1-.3-.3-.6-.5-.9-.2-.2-.5-.4-.8-.6-.3-.1-.6-.2-1-.2s-.7.1-1 .2c-.3.1-.6.3-.8.6-.2.2-.4.5-.5.9-.1.3-.2.7-.2 1.1s.1.8.2 1.1c.1.2.3.5.5.8zm.5-2.7l.3-.6c.1-.1.3-.3.4-.3.2-.1.3-.1.5-.1s.4 0 .5.1c.2.1.3.2.4.3.1.1.2.3.3.6.1.2.1.5.1.8s0 .5-.1.8l-.3.6c-.1.1-.3.3-.4.3-.3.1-.7.1-1.1 0-.2-.1-.3-.2-.4-.3-.1-.1-.2-.3-.3-.5-.1-.2-.1-.5-.1-.8.1-.4.1-.7.2-.9zm6.3 5.8c.4 0 .7 0 1.1-.1.4-.1.6-.2.8-.4.2-.2.4-.4.5-.7.1-.3.2-.6.2-1v-5.2h-.8l-.1.4c-.1-.1-.2-.2-.3-.2-.1-.1-.3-.2-.4-.2-.2-.1-.4-.1-.6-.1-.3 0-.6.1-.9.2s-.5.3-.7.5c-.2.2-.4.5-.5.9-.1.3-.2.7-.2 1.2 0 .3 0 .6.1.9.1.3.2.5.3.7.1.2.2.4.4.5.2.1.3.2.5.3.2.1.3.1.5.2.5.1.9 0 1.3-.1.2-.1.3-.2.4-.3v.4c0 .5-.1.9-.4 1.1-.3.2-.7.4-1.2.4h-.4c-.1 0-.2 0-.3-.1-.1 0-.2-.1-.3-.1-.1 0-.2-.1-.3-.1l-.2-.1v.9h.1c.2.1.4.2.6.2.1-.2.4-.1.8-.1zm1.1-3.5c-.3.1-.7.2-1.1.1-.1 0-.3-.1-.4-.2-.1-.1-.2-.3-.3-.5-.1-.2-.1-.5-.1-.9 0-.3 0-.5.1-.7.1-.2.1-.4.3-.5.1-.1.2-.3.4-.4.2-.1.4-.1.6-.1.1 0 .3 0 .4.1.1 0 .2.1.3.2.1.1.2.1.3.2.1.1.1.1.1.2v2.4c-.3-.1-.4.1-.6.1zm4.2 1.1c.2 0 .4 0 .5-.1.2 0 .3-.1.4-.2.1-.1.3-.1.4-.2l.1-.1.1.4h.9V162c0-.1-.1-.3-.1-.4-.1-.3-.4-.6-.7-.7-.3-.2-.7-.3-1.3-.3h-.4c-.1 0-.3 0-.4.1-.1 0-.2.1-.4.1-.1 0-.2.1-.3.1H55v.9l.2-.1c.2-.1.4-.1.6-.2.2 0 .4-.1.7-.1s.5.1.7.1c.2.1.3.2.4.4 0 .1.1.1.1.2v.5c-.1 0-.3-.1-.4-.1-.2 0-.5-.1-.7-.1-.3 0-.5 0-.8.1l-.6.3c-.2.1-.3.3-.4.5-.1.2-.1.4-.1.7s0 .5.1.7c.1.2.2.4.4.5.2.1.3.2.5.3.1.4.4.4.6.4zm-.4-2.2c.2-.1.4-.2.7-.2.2 0 .4 0 .6.1.2 0 .3.1.4.1v.8l-.1.1c-.1.1-.2.1-.3.2-.1.1-.2.1-.4.2s-.5.1-.8 0c-.1 0-.2-.1-.2-.1l-.2-.2c0-.1-.1-.2-.1-.3.2-.4.3-.6.4-.7zm10.8-2.8l-.6-.3c-.6-.2-1.2-.1-1.6.2-.2.2-.5.3-.7.6-.1-.2-.3-.4-.5-.6-.3-.2-.6-.3-1-.3-.2 0-.4 0-.5.1-.2.1-.3.1-.4.2-.1.1-.3.2-.4.3l-.2.2-.1-.5H60v5.1h1v-3.5l.6-.6c.2-.1.4-.2.7-.2.1 0 .3 0 .4.1.1 0 .2.1.3.2.1.1.1.2.2.3 0 .1.1.3.1.5v3.2h1v-3.5l.6-.6c.2-.1.4-.2.7-.2.1 0 .3 0 .4.1.1 0 .2.1.3.2.1.1.1.2.2.3 0 .1.1.3.1.5v3.2h1v-3.4c0-.4-.1-.7-.2-.9-.4-.3-.5-.5-.7-.7zm1.9-2.2h1v1.1h-1v-1.1zm.1 2h1v5.1h-1v-5.1zm6 .3c-.2-.1-.3-.3-.5-.3-.4-.1-.8-.1-1.2 0-.2 0-.3.1-.5.2-.1.1-.3.2-.4.3l-.2.2-.1-.5H71v5.1h1v-3.5c.2-.2.4-.4.6-.5s.5-.2.7-.2c.3 0 .5.1.6.2.1.2.2.4.2.8v3.2h1v-3.3c0-.3 0-.6-.1-.9 0-.5-.1-.7-.3-.8zm5.2-.3l-.1.4c-.1-.1-.2-.2-.3-.2-.1-.1-.3-.2-.4-.2-.2-.1-.4-.1-.6-.1-.3 0-.6.1-.8.2-.3.1-.5.3-.7.5-.2.2-.4.5-.5.9-.1.3-.2.8-.2 1.2 0 .3 0 .6.1.9.1.3.2.5.3.7.1.2.2.4.4.5.1.1.3.2.5.3.2.1.3.1.5.2.5.1.9 0 1.3-.1.2-.1.3-.2.4-.3v.4c0 .5-.1.9-.4 1.1-.3.2-.7.4-1.2.4h-.4c-.1 0-.2 0-.3-.1-.1 0-.2 0-.3-.1-.1 0-.2-.1-.3-.1l-.2-.1v.9h.1c.2.1.4.2.6.2.3.1.6.1.9.1.4 0 .7 0 1.1-.1.3-.1.6-.2.8-.4.2-.2.4-.4.6-.7.1-.3.2-.6.2-1v-5.2l-1.1-.2zm-.2 3.8c-.1.1-.3.3-.5.3-.3.1-.7.2-1.1.1-.1 0-.3-.1-.4-.2-.1-.1-.2-.3-.3-.5-.1-.2-.1-.5-.1-.9 0-.3 0-.5.1-.7.1-.2.1-.4.3-.5.1-.1.2-.3.4-.4.2-.1.3-.1.6-.1.1 0 .3 0 .4.1.1 0 .2.1.3.2.1.1.2.1.3.2.1.1.1.1.1.2l-.1 2.2zM64.7 59c-.9.1.3-2.3.3-2.3l1-2.6c-.1-2.5-4.6 1.6-4.6 1.6l1.3-5.6c-.1.5-2.6.7-2.6.7v.3h1.3c0 .4-.7 3.3-.7 3.3-1.2 4.8-3.6 4.9-3.6 4.9-2.3-.3-1.7-2.6-1.7-2.6 1-2.9 3-2.9 3-2.9 1.2 0 .3 1 .3 1-.1.6.3.7.3.7 1.1 0 1-.7 1-.7 0-1.6-2-1.3-2-1.3-2.6 0-3.6 2.9-3.6 2.9-.1 1.6-1.7 2.6-1.7 2.6-1.5.8-2.3-.3-2.3-.3-.7-.8 0-1.6 0-1.6 3.7-.2 4.3-2.3 4.3-2.3 0-1.4-1.7-1.3-1.7-1.3-3 .3-4 3.6-4 3.6-.1 1.5-1.3 2-1.3 2-1 .4-.7-1-.7-1l1.3-4.3h1.3v-.3h-1c-.5.1.3-2.3.3-2.3h-.3c-.5 2-2.6 2.3-2.6 2.3h-1c-1.1.8.3 1.6.3 1.6.3.8-1.3 2.9-1.3 2.9l-.7-3.9c.1-1.2-1.7-.3-1.7-.3h-2.3c-.6 0-.7.7-.7.7-.2 2.2-2 4.3-2 4.3-.7.8-1 0-1 0-.6-1.3.7-3.3.7-3.3.8-1.7 2-1.3 2-1.3.1-.8-1-.7-1-.7-3.4.3-4 4.9-4 4.9-1.1.9-1-.3-1-.3l2.3-7.8c-.2.3-3 .3-3 .3.7.1.7 1.3.7 1.3l-2 6.6c.1 3.3 3.3.3 3.3.3 1.2 3.4 4-.7 4-.7-.4 2.4 1 2 1 2 2.2-.4 2-2 2-2l-1 .7c-.7.4-.3-.7-.3-.7l1.3-3.9c.6-.8 1.7 5.9 1.7 5.9.1 1.6-1.3 1.3-1.3 1.3-.2-.2-.7-.3-.7-.3-1.2-.2-1.3.3-1.3.3-.2.6.3 1 .3 1 1.3.8 2.3-.3 2.3-.3l2.6-3.3c2.5-3.7 2-4.9 2-4.9h1l-.3 1.6c-1.2 3-1 3.9-1 3.9.6 1.8 3-.7 3-.7 0 .7.7 1 .7 1C52 61 54.4 58 54.4 58c.8 3.9 5 .7 5 .7L59 60h1.3v-1.6c.3-2 3.3-3.9 3.3-3.9 1.7-.6.7 1 .7 1l-1 3.6c-.3 2 2.7-.4 2.7-.4v-.3c-.1.4-1.3.6-1.3.6zm-11.6-5.2c1-.2 1 .3 1 .3-.2 2.7-3.6 2.6-3.6 2.6.6-2.3 2.6-2.9 2.6-2.9zm-21.8.3c-1.8-2-4 1-4 1l.3-1.3h-3v.3c1.1 0 .7 1.3.7 1.3l-1.7 5.9c-.4 1.1-1 1-1 1v.3h4v-.3c-1.1-.2-1-.7-1-.7l.3-2c2.9 1.2 4.6-2 4.6-2 1.2-1.9.8-3.5.8-3.5zm-2.4 2.6c-1.1 3-2.6 2.6-2.6 2.6-.2-1.3 1-3.9 1-3.9.2-.5 1-1 1-1 1.4-.6.6 2.3.6 2.3zm-17.3-4.6l-2.1-1.2c-.3-.2-.7-.1-.9.2-.1.1-.1.3-.1.4v2.2c-4.1 2.5-6.5 5.9-5.4 8.1 1.2 2.4 6.2 2.3 11.2-.3 5-2.5 8-6.5 6.8-8.9-1.1-2.1-5.2-2.2-9.5-.5zm-2.4 3.7v-2.9c0-.1 0-.2.1-.3.1-.2.4-.3.7-.1l2.2 1.2.6.3 2.7 1.4c.1.1.2.2.2.4v.2c0 .1-.1.3-.2.4L10 59c-.2.1-.5.1-.7-.1-.1-.1-.1-.2-.1-.3v-2.8zm-4.4 4.7s-.1-.3.2-.5c0 0 .3-.4.9.7 0 0 1.4 2.6 6.6.6-.1 0-5.7 3.6-7.7-.8zm9.1-.5c-3.2 1.6-6.4 1.7-7.1.3-.5-1 .2-2.5 1.7-3.8v3.2c0 .1 0 .3.1.4.2.3.6.4.9.2l7.1-4.1c.2-.1.3-.3.3-.5v-.2c0-.2-.1-.4-.3-.5l-2.5-1.5c2-.4 3.7-.2 4.2.8.8 1.6-1.2 4.1-4.4 5.7zm5.8-5.9c-2-2.8-6.4-1.4-6.4-1.4 2.4-1.5 5.2-.3 5.2-.3 1.6.9 1.2 1.7 1.2 1.7zm-10 71.6c-.2 0-.3 0-.4.1-.1.1-.2.2-.2.4v3.8H4v-3.8c0-.2-.1-.3-.2-.4-.1-.1-.2-.1-.4-.1-.1 0-.3 0-.4.1-.1.1-.2.2-.2.4v9.2c0 .1.1.3.2.4.1.1.2.2.4.2s.3 0 .4-.1c.1-.1.2-.2.2-.4v-4.2h5v4.2c0 .1 0 .3.1.4.1.1.2.2.4.2h.1c.1 0 .3 0 .4-.1s.2-.3.2-.4v-9.2c0-.2-.1-.3-.2-.4-.1-.3-.2-.3-.3-.3zm12.1-4.2c0-1.2-1-2.2-2.2-2.2h-5.4c-1.2 0-2.2 1-2.2 2.2v5.4c-.6.9-.9 2-.9 3.1 0 3.2 2.6 5.8 5.8 5.8 3.2 0 5.8-2.6 5.8-5.8 0-1.3-.4-2.5-1.1-3.4l.2-5.1zm-5 13c-2.5 0-4.5-2-4.5-4.5s2-4.5 4.5-4.5 4.5 2 4.5 4.5-2 4.5-4.5 4.5zm1.1-6c-.6-.4-1.1-1-1.1-1.2-.1.2-.5.8-1.1 1.2-.6.4-1.6.8-1.6 1.8 0 1.8 1.9 2.2 2.6.8 0 .5-.1 1.3-.6 1.4 0 0-.1.1 0 .1.3.2 1.2.1 1.4.1.2 0 .1-.1.1-.1-.3-.2-.6-.8-.6-1.5.7 1.3 2.6 1 2.6-.8-.1-1-1-1.4-1.7-1.8zm15.3 1.8c-.1-.1-.3-.1-.5-.2h-3.9c-.3 0-.4.1-.5.2-.1.1-.1.3-.1.4 0 .1.1.3.2.3.1.1.2.1.4.1H32c.1 0 .2 0 .2.1 0 0 .1.1.1.2s0 .3-.1.5c-.1.3-.2.6-.3.8-.1.3-.3.5-.7.8-.3.3-.7.5-1.2.7-.5.2-1 .3-1.6.3-.3 0-.6 0-.9-.1-.3-.1-.6-.1-.8-.3-.2-.1-.5-.3-.7-.5-.2-.2-.5-.4-.7-.7-.2-.3-.4-.6-.5-.9-.1-.3-.2-.6-.2-.9v-1.5c0-.3.1-.5.2-.9.1-.3.2-.6.4-.9.2-.3.4-.5.8-.8.4-.3.7-.5 1.2-.6.4-.1.9-.2 1.4-.2s.9.1 1.2.2c.3.1.6.3 1 .5.3.3.6.5.8.8.2.3.3.5.4.8.1.4.2.5.3.6.1.1.2.1.3.1.2 0 .3-.1.4-.2.1-.1.2-.2.2-.4s-.1-.5-.3-1c-.2-.4-.5-.8-.9-1.1-.4-.3-.7-.6-1.1-.8-.4-.2-.8-.4-1.2-.4-.4-.1-.8-.1-1.1-.1-.5 0-1.1.1-1.6.2s-.9.3-1.2.5c-.3.2-.6.4-.9.7-.3.3-.5.6-.7.9-.2.4-.4.7-.4 1-.1.3-.1.5-.2.8 0 .3-.1.6-.1.9v.9c0 .3.1.7.2 1 .1.4.2.7.5 1.1.2.3.5.7.8 1 .4.3.7.6 1 .7.3.2.7.3 1.2.4.4.1.8.2 1.3.2h.5c.6 0 1.1-.1 1.6-.3.5-.2 1-.5 1.4-.8.4-.4.7-.7.9-1.1.2-.4.4-.7.4-1.1.1-.4.1-.8.1-1.1 0-.2 0-.4-.1-.6.1 0 0-.1-.1-.2zm19.7-3.5c-.2 0-.4.1-.5.2-.1.1-.2.3-.2.5s.1.4.2.5c.1.1.3.2.5.2s.4-.1.5-.2c.1-.1.2-.3.2-.5s-.1-.4-.2-.5c-.2-.1-.3-.2-.5-.2zm-.5 2.5h1v6.2h-1v-6.2zM41 131.6c-.3-1.5-1.6-2.5-3.2-2.5-.9 0-1.6.3-2.3 1-.6.6-.9 1.4-.9 2.3 0 .9.3 1.7.9 2.3.6.6 1.4 1 2.2 1 .7 0 1.3-.2 1.9-.6v-1.2l-.2.2c-.1.1-.3.3-.5.4-.4.2-.7.3-1.1.3-.4 0-.8-.1-1.1-.3-.3-.2-.6-.5-.8-.8-.2-.4-.3-.7-.3-1.1 0-.4.1-.8.3-1.1.4-.8 1.1-1.1 1.9-1.1.7 0 1.2.2 1.6.7.4.4.6.8.6 1.4v3.4h1v-3.7c.1-.3.1-.5 0-.6zm17.4-2.1c-.4-.2-.8-.3-1.2-.3h-.4c-.5 0-.9.1-1.2.3-.4.2-.6.6-.8 1-.2.4-.3 1-.3 1.8v3.2h1v-2.9c0-.7 0-1.1.1-1.3.2-.7.6-1.1 1.4-1.1.7 0 1.2.4 1.4 1.1.1.2.1.7.1 1.3v2.9h1v-3.2c0-.8-.1-1.4-.3-1.8-.2-.5-.4-.8-.8-1zm-8.4.1c-.4-.2-.8-.4-1.2-.4h-.4c-.5 0-.9.1-1.2.3-.2.1-.4.3-.5.5-.1-.2-.3-.4-.5-.5-.4-.2-.8-.4-1.2-.4h-.4c-.5 0-.9.1-1.2.4-.4.2-.6.6-.8 1s-.3 1-.3 1.8v3.2h1v-2.9c0-.7 0-1.1.1-1.3.2-.7.6-1.1 1.4-1.1.7 0 1.2.4 1.4 1.1v4.3h1.1v-4.4c.2-.7.6-1.1 1.4-1.1.7 0 1.2.4 1.4 1.1.1.2.1.7.1 1.3v2.9h1v-3.2c0-.8-.1-1.4-.3-1.8-.3-.2-.5-.5-.9-.8zm17 2.5v-.3s0-.2-.1-.3c-.3-1.5-1.6-2.5-3.3-2.5-.9 0-1.7.3-2.3 1-.6.6-.9 1.4-.9 2.3 0 .9.3 1.7.9 2.3.6.7 1.4 1 2.3 1 .7 0 1.4-.2 1.9-.7v-1.2l-.2.2c-.1.2-.3.3-.5.4-.4.2-.7.3-1.2.3-.4 0-.8-.1-1.1-.3-.3-.2-.6-.5-.8-.9-.2-.4-.3-.8-.3-1.2 0-.4.1-.8.3-1.2.4-.8 1.1-1.1 2-1.1.7 0 1.2.2 1.6.7.4.4.6.9.6 1.4v2.9c0 .3 0 .6-.1.9-.3.6-1 1-2 1s-1.7-.4-2.1-1.1v-.1h-1.1l.1.2c.2.5.5.8.7 1.1.6.5 1.4.8 2.4.8.7 0 1.3-.1 1.8-.4.6-.3 1-.8 1.2-1.4.1-.3.1-.6.1-1v-2.8c.1.1.1.1.1 0zM241.9 21.6c-.2.5-.3.8-.4 1.1-.1-.2-.2-.5-.3-1l-1.6-4.7h-1.3v6.6h.8V18l1.9 5.7h.8l1.9-5.6v5.6h.8V17h-1.2l-1.4 4.6zm6-4.6l-2.5 6.6h.9l.7-2h2.8l.8 2h1l-2.7-6.6h-1zm-.7 3.9l.7-2c.1-.4.3-.8.4-1.3.1.4.3.8.5 1.4l.7 1.8h-2.3v.1zm3.8-3.1h2.2v5.9h.9v-5.9h2.2V17H251v.8zm10.1 3.2c-.1-.1-.3-.2-.5-.3.6-.1 1.1-.3 1.4-.6.3-.3.5-.7.5-1.2 0-.4-.1-.7-.3-1-.2-.3-.4-.5-.7-.6-.3-.1-.8-.2-1.3-.2h-2.9v6.6h.9v-2.9h1.5c.1 0 .3.1.4.2.1.1.3.2.4.4.2.2.4.5.6.9l.9 1.4h1.1l-1.1-1.8c-.5-.4-.7-.7-.9-.9zm-1.2-1.1H258v-2.2h2.1c.5 0 .8.1 1.1.3.2.2.3.5.3.8 0 .2-.1.4-.2.6-.1.2-.3.3-.5.4-.2.1-.5.1-.9.1zm4-2.9h.9v6.6h-.9V17zm5.3 3.1l2.3-3.1h-1l-1.3 1.8c-.2.3-.4.5-.5.8-.1-.2-.3-.5-.5-.8L267 17h-1l2.2 3.2-2.5 3.5h1l1.7-2.3c.1-.1.2-.3.3-.5.1.2.2.3.3.4l1.7 2.4h1.1l-2.6-3.6zm-45.3.8h2.4l-1.2-3.2-1.2 3.2zm10.6-5.9h-32.7c-.5 0-.9.4-.9.9v8.9c0 .5.4.9.9.9h32.7c.5 0 .9-.4.9-.9v-8.9c0-.5-.4-.9-.9-.9zm-29.7 8.8h-.9v-6.9h.9v6.9zm6.1 0h-.9l-3.6-5.4v5.4h-.9v-6.9h.9l3.6 5.4v-5.4h.9v6.9zm5.4-3.3c-.4.4-1.1.5-1.9.5h-1.2v-.8h1.2c.3 0 .5 0 .7-.1.2-.1.4-.1.5-.2.1-.1.2-.2.3-.4.1-.2.1-.3.1-.6s0-.5-.1-.6c-.1-.2-.2-.3-.4-.4s-.3-.1-.5-.2h-2.3v6h-.9v-6.9h2.6c.3 0 .7 0 1 .1.3.1.6.2.8.3l.6.6c.1.3.2.6.2 1-.1.8-.3 1.3-.7 1.7zm1.9 3.3c-.9 0-.8-1-.8-1v-5.9h.9v5.4s-.1.7.4.7h2.9v.8h-3.4zm9.2 0l-.8-2.1h-2.9l-.8 2.1h-1l2.6-6.9h1l2.8 6.9h-.9zm3.6-3v2.9h-1v-2.9l-2.7-4h1.1l2.1 3.2 2-3.2h1.1l-2.6 4zm230.4 27.1v1.3h1.3v-1.3h-1.3m1.4 0v1.3h1.3v-1.3h-1.3m1.4 0v1.3h1.3v-1.3h-1.3m1.4 0v1.3h1.3v-1.3h-1.3m1.4 0v1.3h1.3v-1.3H467m1.4 0v1.3h1.3v-1.3h-1.3m1.4 0v1.3h1.3v-1.3h-1.3m11.2 0v1.3h1.3v-1.3H481m1.4 0v1.3h1.3v-1.3h-1.3m1.4 0v1.3h1.3v-1.3h-1.3m1.4 0v1.3h1.3v-1.3h-1.3m-23.8 1.4v1.3h1.3v-1.3h-1.3m1.4 0v1.3h1.3v-1.3h-1.3m1.4 0v1.3h1.3v-1.3h-1.3m1.4 0v1.3h1.3v-1.3h-1.3m1.4 0v1.3h1.3v-1.3H467m1.4 0v1.3h1.3v-1.3h-1.3m1.4 0v1.3h1.3v-1.3h-1.3m1.4 0v1.3h1.3v-1.3h-1.3m7 0v1.3h1.3v-1.3h-1.3m1.4 0v1.3h1.3v-1.3h-1.3m1.4 0v1.3h1.3v-1.3H481m1.4 0v1.3h1.3v-1.3h-1.3m1.4 0v1.3h1.3v-1.3h-1.3m1.4 0v1.3h1.3v-1.3h-1.3m1.5 0v1.3h1.3v-1.3h-1.3m1.3 0v1.3h1.3v-1.3H488m-28 1.4V52h1.3v-1.3H460m1.4 0V52h1.3v-1.3h-1.3m8.4 0V52h1.3v-1.3h-1.3m1.4 0V52h1.3v-1.3h-1.3m1.4 0V52h1.3v-1.3h-1.3m5.6 0V52h1.3v-1.3h-1.3m1.4 0V52h1.3v-1.3h-1.3m7.1 0V52h1.3v-1.3h-1.3m1.3 0V52h1.3v-1.3H488m-28 1.4v1.3h1.3v-1.3H460m1.4 0v1.3h1.3v-1.3h-1.3m9.8 0v1.3h1.3v-1.3h-1.3m1.4 0v1.3h1.3v-1.3h-1.3m4.2 0v1.3h1.3v-1.3h-1.3m1.4 0v1.3h1.3v-1.3h-1.3M460 53.5v1.3h1.3v-1.3H460m1.4 0v1.3h1.3v-1.3h-1.3m9.8 0v1.3h1.3v-1.3h-1.3m1.4 0v1.3h1.3v-1.3h-1.3m4.2 0v1.3h1.3v-1.3h-1.3m1.4 0v1.3h1.3v-1.3h-1.3m5.6 0v1.3h1.3v-1.3h-1.3m1.4 0v1.3h1.3v-1.3h-1.3m1.5 0v1.3h1.3v-1.3h-1.3m1.3 0v1.3h1.3v-1.3H488m-28 1.4v1.3h1.3v-1.3H460m1.4 0v1.3h1.3v-1.3h-1.3m8.4 0v1.3h1.3v-1.3h-1.3m1.4 0v1.3h1.3v-1.3h-1.3m1.4 0v1.3h1.3v-1.3h-1.3m4.2 0v1.3h1.3v-1.3h-1.3m1.4 0v1.3h1.3v-1.3h-1.3m5.6 0v1.3h1.3v-1.3h-1.3m1.4 0v1.3h1.3v-1.3h-1.3m1.5 0v1.3h1.3v-1.3h-1.3m1.3 0v1.3h1.3v-1.3H488m1.5 0v1.3h1.3v-1.3h-1.3M460 56.3v1.3h1.3v-1.3H460m1.4 0v1.3h1.3v-1.3h-1.3m1.4 0v1.3h1.3v-1.3h-1.3m1.4 0v1.3h1.3v-1.3h-1.3m1.4 0v1.3h1.3v-1.3h-1.3m1.4 0v1.3h1.3v-1.3H467m1.4 0v1.3h1.3v-1.3h-1.3m1.4 0v1.3h1.3v-1.3h-1.3m1.4 0v1.3h1.3v-1.3h-1.3m5.6 0v1.3h1.3v-1.3h-1.3m1.4 0v1.3h1.3v-1.3h-1.3m9.9 0v1.3h1.3v-1.3h-1.3m1.4 0v1.3h1.3v-1.3h-1.3M460 57.7V59h1.3v-1.3H460m1.4 0V59h1.3v-1.3h-1.3m1.4 0V59h1.3v-1.3h-1.3m1.4 0V59h1.3v-1.3h-1.3m1.4 0V59h1.3v-1.3h-1.3m1.4 0V59h1.3v-1.3H467m9.8 0V59h1.3v-1.3h-1.3m1.4 0V59h1.3v-1.3h-1.3m1.4 0V59h1.3v-1.3h-1.3m7.1 0V59h1.3v-1.3h-1.3m1.4 0V59h1.3v-1.3h-1.3M460 59.1v1.3h1.3v-1.3H460m1.4 0v1.3h1.3v-1.3h-1.3m18.2 0v1.3h1.3v-1.3h-1.3m1.4 0v1.3h1.3v-1.3H481m1.4 0v1.3h1.3v-1.3h-1.3m1.4 0v1.3h1.3v-1.3h-1.3m1.4 0v1.3h1.3v-1.3h-1.3m1.5 0v1.3h1.3v-1.3h-1.3m1.4 0v1.3h1.3v-1.3h-1.3M460 60.5v1.3h1.3v-1.3H460m19.6 0v1.3h1.3v-1.3h-1.3m1.4 0v1.3h1.3v-1.3H481m1.4 0v1.3h1.3v-1.3h-1.3m1.4 0v1.3h1.3v-1.3h-1.3m1.4 0v1.3h1.3v-1.3h-1.3m-14-12.6v1.3h1.3v-1.3h-1.3m8.4 0v1.3h1.3v-1.3h-1.3M460 49.3v1.3h1.3v-1.3H460m16.8 1.4V52h1.3v-1.3h-1.3m12.7 2.8v1.3h1.3v-1.3h-1.3m-21.1 4.2V59h1.3v-1.3h-1.3m21.1 0V59h1.3v-1.3h-1.3m-11.3 1.4v1.3h1.3v-1.3h-1.3m-16.8 1.4v1.3h1.3v-1.3h-1.3m25.3 0v1.3h1.3v-1.3h-1.3m-25.6 3.9v-.3h-.6v.3h.6zm-1.1 1.4v-2.3h1.4v.3h.3v.8h-.3v.3h-.8v.8l-.6.1m3.1-.6v-1.1h-.6v1.1h.6zm-.8.6v-.3h-.3v-1.7h.3v-.3h1.1v.3h.3v1.7h-.3v.3h-1.1m1.9 0v-.3h-.3v-1.7h.3v-.3h1.1v.3h.3v.6h-.6v-.3h-.6v1.1h.6v-.3h.6v.6h-.3v.3h-1.1m1.7 0v-2.3h.6v.8h.6v-.8h.6v.8h-.3v.6h.3v.8h-.6v-.8h-.6v.8l-.6.1m2 0v-2.3h1.7v.6h-1.1v.3h.8v.6h-.8v.3h1.1v.6h-1.7m2.5-.1v-1.7h-.6v-.6h1.7v.6h-.5v1.7h-.6m2.3 0v-.3h-.3v-1.7h.3v-.3h1.1v.6h-.8v1.1h.6v-.3h-.3v-.6h.8v1.1h-.3v.3l-1.1.1m2.8-1.2V64h-.6v.6h.6zm-1.1 1.2v-2h.3v-.3h1.1v.3h.3v2h-.6v-.6h-.6v.6h-.5m2 0v-2.3h.3v.3h.3v.3h.3v.3h.3v-.3h.3v-.3h.3v-.3h.3v2.3h-.6V65h-.3v.3h-.3V65h-.3v.8h-.6m2.2 0v-2.3h1.7v.6h-1.1v.3h.8v.6h-.8v.3h1.1v.6h-1.7m2-.1v-.6h1.1v-.3h-.8v-.3h-.3v-.8h.3v-.3h1.4v.6h-1.1v.3h.8v.3h.3v.8h-.3v.3h-1.4m2.5 0v-.6h1.1v-.3h-.8v-.3h-.3v-.8h.3v-.3h1.4v.6h-1.1v.3h.8v.3h.3v.8h-.3v.3h-1.4m3.1-.6v-1.1h-.6v1.1h.6zm-.8.6v-.3h-.3v-1.7h.3v-.3h1.1v.3h.3v1.7h-.3v.3h-1.1m1.7 0v-2.3h1.7v.6h-1.1v.3h.8v.6h-.8v.8h-.6m2.5 0v-1.7h-.6v-.6h1.7v.6h-.6v1.7h-.5M483.8 23c-.1-.1-.1-.3-.3-.4-.1-.1-.2-.3-.4-.5l-.4-.4-.4-.4c-.3-.2-.6-.4-.7-.6-.1-.1-.3-.2-.4-.3-.1-.1-.2-.2-.2-.3v-.2c0-.2.1-.3.3-.4s.5-.2.8-.2c.2 0 .5 0 .8.1s.7.2 1 .3c-.1-.6-.1-1-.1-1.2v-.8c-.8-.2-1.6-.2-2.3-.2-.4 0-.7 0-1 .1l-.9.3c-.2.1-.4.2-.5.3v-.1c0-.1 0-.1-.1-.2v-.3c0-.1-.1-.2-.1-.3 0 0 0-.1-.1-.1 0 0 0-.1-.1-.1 0-.1-.1-.1-.1-.2l-.1-.1s0-.1-.1-.1c0-.1-.1-.1-.1-.2 0 0 0-.1-.1-.1 0 0 0-.1-.1-.1-.1-.1-.2-.3-.3-.4-.1-.1-.1-.1-.1-.2s-.1-.1-.1-.2c-.1-.1-.2-.2-.3-.4l-.1-.1-.1-.1s-.1-.1-.2-.1c-.3-.2-.5-.4-.8-.6-.1-.1-.1-.1-.2-.1s-.1-.1-.2-.1l-.1-.1h-.1s-.1 0-.1-.1c-.1 0-.2-.1-.2-.2l-.1-.1-.1-.1c-.1 0-.1-.1-.1-.1s-.1 0-.1-.1l-.1-.1c-.1 0-.1-.1-.2-.1h-.2c-.1 0-.1-.1-.1-.1s-.1-.1-.2-.1-.1-.1-.2-.1c0 0-.1 0-.1-.1-.1 0-.1 0-.2-.1 0 0-.1 0-.1-.1 0 0-.1-.1-.2-.1h-1c-.3 0-.5 0-.8-.1h-.6c-.4 0-.7 0-1 .1h-.2c-.1 0-.2 0-.3.1h-.3c-.1 0 0-.1 0-.1.1 0 .2-.1.2-.1v-.1h-.7c-.1 0-.2 0-.3.1h-.2c-.1 0-.1 0-.2.1-.1 0-.1 0-.2.1h-.3c-.1 0-.1 0-.2.1-.1 0-.2.1-.3.1-.1 0-.2.1-.3.1h-.5s-.1 0-.1.1c-.1 0-.2.1-.3.1-.1 0-.1.1-.2.1s-.1.1-.2.1c0 0-.1 0-.1.1-.1.1-.3.2-.4.3 0 0-.1 0-.1.1l-.1.1c-.1.1-.2.1-.3.2l-.1.1-.1.1-.1.1-.1.1-.2.2-.2.2h-.1c-.1.1-.1 0-.1 0v-.1l.1-.1.1-.1s-.1.1 0 0 .1-.1.1-.2c0 0 .1-.1.1-.2l.1-.1.1-.1.2-.2.2-.2.1-.1c-.1 0 .1-.1.1-.1s0-.1.1-.1.1-.1.2-.1l.1-.1.1-.1c.1-.1 0-.1 0-.1-.1 0-.1 0-.1.1h-.1c-.1 0-.1.1-.2.1-.1.1-.2.1-.3.2-.1.1-.2.1-.2.1v-.1h-.1V13h-.1l-.1.1-.1.1c-.1 0-.1.1-.2.1s-.1.1-.1.1-.1 0-.1.1l-.1.1-.1.1s0 .1-.1.1h-.1l-.1.1-.1.1-.1.1-.1.1-.1.1c0 .1-.1.1-.1.2s-.1.2-.2.2c0 .1-.1.1-.1.2s-.1.1-.1.2c-.1.1-.1.2-.2.3 0 0-.1.1-.1.2l-.1.2v.1c0 .1-.1.1-.1.2s-.1.1-.1.2c-.1.3-.3.5-.4.8-.1.3-.2.5-.3.7 0 0-.1.1-.1.2l-.1.1c0 .1 0 .1-.1.1 0 .1 0 .1-.1.2 0 .1 0 .1-.1.2v.2c0 .1 0 .2-.1.2 0 .1 0 .2-.1.3v4.1c0 .1.1.2.1.3.1.3.2.5.3.8.1.2.1.4.2.5 0 .1.1.1.1.2s.1.1.1.2.1.1.1.2.1.2.1.2l.1.1c.1.3.3.5.5.8.1.1.1.2.2.3l.1.1.1.1.1.1.1.1s0 .1.1.1c0 .1.1.1.1.2l.1.1.1.1.1.1.1.1.2.2.1.1.1.1h.2s.1 0 .1.1l.1.1.1.1c.1 0 .1.1.2.1 0 0 .1 0 .1.1l.1.1h.1s.1 0 .1.1c0 0 .1 0 .1.1.1 0 .1.1.1.1l.1.1s.1 0 .1.1l.1.1s.1 0 .1.1c0 0 .1 0 .1.1 0 0 .1 0 .1.1 0 0 .1 0 .1.1h.1c.1.1.2.1.4.2s.3.2.5.2h.6c.1 0 .1.1.2.1h.1c.1 0 .2.1.3.1h.3c.1 0 .1 0 .2.1h1.1-.2 2.7c.1 0 0 0 0 0h.8c.1 0 .2 0 .3-.1.1 0 .2-.1.3-.1h.1c.1 0 0 0 0 0h.2s.1 0 .2-.1c.1 0 .2-.1.3-.1 0 0 .1 0 .1-.1 0 0 .1 0 .1-.1h.2s.1 0 .1-.1c0 0 .1 0 .1-.1 0 0 .1 0 .1-.1 0 0 .1-.1.2-.1l.1-.1c.1-.1.2-.1.2-.1.1 0 .1-.1.2-.1l.6-.3v-.1l.1-.1.1-.1.1-.1c.1 0 .1-.1.1-.1l.1-.1s.1 0 .1-.1l.1-.1.1-.1.1-.1c0-.1.1-.1.2-.2s.2-.1.2-.2v-.1l.1-.1s0-.1.1-.1l.1-.1c0-.1 0-.1.1-.1 0-.1.1-.1.1-.1v-.1c0-.1.1-.1.1-.1l.1-.1v-.1c.1-.1.1-.2.1-.2 0 .1-.1.1-.1.2 0 0 0 .1-.1.1v.1c0-.1.1-.1 0-.1h-.1v-.1s0-.1.1-.1l.1-.1.1-.1v-.1c0-.1.1-.1.1-.2s.1-.1.1-.2v-.1c.9.2 1.7.3 2.4.3.4 0 .8 0 1.2-.1.4-.1.7-.2 1.1-.5.3-.2.6-.5.8-.8.2-.3.3-.7.3-1.1v-.4c.3 0 .3-.2.2-.3zm-2.8 1.2c-.2.1-.5.2-.9.2-.3 0-.6 0-.9-.1-.4-.1-.8-.2-1.2-.4.1.4.1.9.1 1.5-1.3 2.2-3.6 3.5-6 3.7-1 .1-2.1-.1-3.1-.4-1.2-.4-2.2-1.1-3-1.9-1.5-1.6-2.3-3.8-2-6.1.1-.6.2-1.2.4-1.7 1-2.8 3.4-4.6 6.1-5 1.2-.2 2.5-.1 3.7.4 1.8.6 3.2 1.9 4.1 3.4h-2.9c-.1.2-1.3 2.2-1.8 3-.2-.4-1.2-2.6-1.4-3h-2.9l2.8 5c0 .3-.2 3.1-.2 3.4h2.7c0-.8.1-3.2.1-3.2l3.5-5.2c.2.3.3.7.5 1-.1.1-.1.3-.2.4-.1.2-.1.5-.1.7 0 .2 0 .4.1.6.1.2.1.4.3.6.1.2.3.4.5.6.1.1.3.3.6.5l1.2 1c.1.1.2.2.2.3.1.1.1.2.1.2v.2c-.1.1-.2.2-.4.3zm11.9-1.1c-.1-.2-.1-.4-.3-.6-.1-.2-.3-.3-.4-.4-.2-.1-.3-.2-.4-.2-.1 0-.3-.1-.5-.1.2-.1.4-.1.5-.2.1-.1.3-.1.4-.3l.4-.4.3-.6c.1-.2.1-.4.1-.7 0-.3-.1-.6-.2-.8-.1-.2-.2-.4-.4-.6-.1-.1-.3-.3-.5-.4-.2-.1-.5-.2-.8-.2h-5.5v.8c0 .5-.1 4.8-.2 5.5 0 .5-.1 1.2-.2 2.1h4.6c.6 0 1 0 1.2-.1.3 0 .5-.1.8-.2.3-.1.5-.3.6-.4.2-.2.3-.4.4-.7.1-.3.2-.6.2-.9 0-.2 0-.4-.1-.6zm-4.8-3.8h1.1c.3 0 .6 0 .7.1.2.1.3.1.3.3.1.1.1.3.1.4s0 .2-.1.3c0 .1-.1.2-.2.3-.1.1-.2.1-.3.2-.1 0-.2.1-.4.1H488l.1-1.7zm2.3 4.6c-.1.1-.1.2-.2.3-.1.1-.2.1-.4.2-.1 0-.4.1-.7.1h-1.2l.1-1.8h1.9c.1 0 .2.1.3.2.1.1.2.2.2.3 0 .1.1.2.1.4-.1 0-.1.1-.1.3zm-378.4 95c-5.3 0-9.6 4.3-9.6 9.6s4.3 9.6 9.6 9.6 9.6-4.3 9.6-9.6-4.3-9.6-9.6-9.6zm-6.4 5.8s-1-.9.3-2c0 0 3.6-4.3 9.7-1.8 0 0-4.4-1.2-7.5 2.5 0 0-1.5 2.2-2.5 1.3zm8.1 8.4c-3.1 0-5.6-2.5-5.6-5.6s2.5-5.6 5.6-5.6c3.1 0 5.6 2.5 5.6 5.6-.1 3.1-2.6 5.6-5.6 5.6zm3.1-7.9l-2.5.5-1.8-1.8-.4 2.6-2.3 1.1 2.3 1.2.5 2.6 1.7-2 2.5.5-1.1-2.3 1.1-2.4zm12.3 5.4c-.4-.2-.9-.3-1.3-.5-.5-.2-1-.3-1.4-.5-.3-.1-.4-.3-.4-.6s.2-.6.5-.7c.2-.1.4-.1.6-.1.7 0 1.4.2 1.9.6.1.1.2.1.3.2.3-.5.6-.9.9-1.3-.1 0-.1-.1-.1-.1l-.2-.2c-.9-.6-1.8-.9-2.9-.8-.8 0-1.4.2-2.1.7-1.1.8-1.2 3.2.3 3.8.5.2 1 .4 1.6.6.4.1.8.3 1.2.4.3.1.4.4.4.7s-.2.5-.4.6c-.1.1-.2.1-.3.1-.7.1-1.3-.1-1.8-.4-.3-.2-.6-.4-1-.7-.4.4-.7.9-1.1 1.3 1.2 1.1 2.5 1.6 4 1.4.6-.1 1.1-.2 1.6-.6 1.2-.8 1.3-3.1-.3-3.9zm8.3-.3v2.2c0 .6-.4.6-1 .8-1.2.3-2.4.1-3.1-.8-.7-.9-.8-2.5-.1-3.4.8-1 2.2-1.3 3.3-.6.2.1.4.3.7.5.3-.5.6-.9.9-1.4-1.2-1-2.5-1.4-4-1.1-2.7.5-4.2 3.3-3.1 6 .7 1.7 2.5 2.7 4.4 2.5 1.1-.1 2-.4 2.8-1.2.1-.1.2-.2.2-.4v-3.3c-.6.2-1 .2-1 .2zm.9 1.8h3.4v-1.7h-3.4v1.7zm13.9-5.3c-.2 0-.3.1-.3.2l-1.5 4.2c0 .1-.1.2-.1.3 0-.1-.1-.2-.1-.3-.4-1.4-.8-2.7-1.3-4.1-.1-.3-.2-.3-.4-.3h-1.3c-.2 0-.3.1-.4.3-.3 1.2-.7 2.3-1.1 3.5-.1.3-.2.6-.3 1-.1-.1-.1-.2-.1-.3l-1.5-4.2c0-.1-.1-.2-.2-.2h-1.8v.1c.9 2.7 1.9 5.4 2.8 8.1 0 .1.1.1.2.1h1c.2 0 .3 0 .3-.2.3-1 .6-1.9.9-2.9.3-.8.5-1.7.8-2.6l1.8 5.7h1.1c.2 0 .3-.1.3-.2l2.7-7.8c0-.1.1-.2.1-.3-.4-.1-1-.1-1.6-.1zm4.6-2.4c.3-.3.6-.6.9-1-.5-.1-.9-.1-1.4-.2-.1 0-.2.4-.2.4-.2-.4-.4-.9-.7-.9h-.1c-.2 0-.4.4-.7.9 0 .1-.1-.1-.2-.1-.5.1-.9 0-1.4.1l.9.9c.1.1.2.2.1.4-.1.4-.2.9-.2 1.3.4-.2.7-.3 1-.5.3-.2.5-.2.9 0 .3.2.6.3 1 .5-.1-.5-.2-.9-.2-1.4.2-.2.2-.3.3-.4zm-2.3 10.2h3.4v-7.7h-3.4v7.7zm9.4-7.7v5.1c0-.2.1-.3 0-.4-1.2-1.6-2.3-3.2-3.5-4.8-.1-.1 0-.2-.1-.2h-1.5v7.8h2.6v-4.7c0 .1-.2.2-.2.2 1.2 1.5 2.2 2.8 3.3 4.4 0 0 .1.1.5.1h.6v-7.7h-1.7v.2zm-47.7-74.5h-11.9l-1.9 10.5h3.2l1.2-6.8h3.4l-1.3 6.8h3l1.3-6.8h2.3s1.2 0 1 1.5l-1.1 5.3h3.2l1.2-5.8c.1-.1 1.5-4.7-3.6-4.7zm7.5 6.1l.7-3.3h4l.5-2.4h-4l.6-3-3.5 1.5-1.5 7.1c-1 5 3.8 4.5 3.8 4.5h2.5l.6-2.5h-2.5c-1.9 0-1.2-1.9-1.2-1.9zm8.7 1.7c.7 0 .9.9.9.9 0 1.3-1.3 1.3-1.3 1.3-2.6 0-2.6-3.1-2.6-3.1 0-2.3 2.6-2.4 2.6-2.4 1.5 0 2 1.8 2 1.8h.4V56h-.4v.9c-.4-.4-2-.4-2-.4-3.9 0-3.7 3.3-3.7 3.3 0 3.3 3.7 3.1 3.7 3.1 1.5 0 2.4-.2 2.4-.2V61c0-.8.9-.9.9-.9v-.2h-2.9v.3zm8.3-3.3h.9v-.4h-2.9v.4h.9l-2.2 5.5h-.7v.5h2.2v-.5h-.9l.9-2.4h1.8l.9 2.4h-.9v.5h3.1v-.5h-.9l-2.2-5.5zm-1.7 2.6l1.1-2.2.7 2.2H139zm13.2-2.6h.9v-.4h-2.4v.4h.7l-1.8 4-1.5-4h.7v-.4H146v.4h.9l-1.1 5.5h-.7v.5h2.4v-.5h-.9l.7-4.6 1.5 5.1h.7l2-4.9.7 4.4h-.7v.5h2.9v-.5h-.9l-1.3-5.5zm4.2 0h1.1v5.5h-.9v.5h2.9v-.5h-.9v-5.5h.9v-.4h-3.1v.4zm10.3 0h.9v4l-3.5-4.4h-2v.4h.7v5.5h-.9v.5h2.6v-.5h-1.1v-4.6l4.4 5.1h.7v-6h.7v-.4h-2.4l-.1.4zm9 3v.2c.7 0 .9.9.9.9 0 1.3-1.3 1.3-1.3 1.3-2.6 0-2.6-3.1-2.6-3.1 0-2.3 2.6-2.4 2.6-2.4 1.5 0 2 1.8 2 1.8h.4V56h-.4v.9c-.4-.4-2-.4-2-.4-3.9 0-3.7 3.3-3.7 3.3 0 3.3 3.7 3.1 3.7 3.1 1.5 0 2.4-.2 2.4-.2V61c0-.8.9-.9.9-.9v-.2h-2.9zm318.5 41.2v-.5h1.5v1.9c0 .4-1.4.5-1.4.5-2.1-.1-2.1-2.1-2.1-2.1 0-.5.3-1.4.3-1.4 1.4-1.6 3.3-.6 3.3-.6l-.4.5c-.2-.1-.9-.3-.9-.3-1.7.2-1.5 1.6-1.5 1.6.1 1.8 1.4 1.6 1.4 1.6.7 0 .8-.4.8-.4v-.9l-1 .1zm-5.3-5s-1.8.2-2.9-1.1l-5.4-6.4s-.4-.9.4-.9h3.4s1.6-.2 1.6-1.5c0 0 .1-1.4-1.9-1.4h-2.5s-1 .1-1-.4c0 0 0-.5.8-.5h3.3s2.3.2 2.3 2.3c0 0 0 2.4-2.1 2.4H482l4.4 5.4s.9 1.5 2.5 1.3l-3.9-4.6s-.6-.9 0-.9c0 0 3.1-.2 3.5-3.3 0 0-.1-2.9-3-3.5h-6.3l-7.8 12.6s-.5 1.1-1.1 0L464 85.5s-.9-1.4 0-2.6c0 0 1.6-1.3 2.3 0l4.6 7.4 4.8-7.6s.5-.5.8-.3c0 0 .3.2-.1.8l-4.9 8s-.5.8-1 0-4.9-8-4.9-8-1.3.1-.9 1.6l6.1 10.3 8-12.9h6.8s3.7.4 3.6 4.3c0 0 .1 3.1-3.1 4.1l3.8 4.5c0-.1.5.9-1 1zm-28.9 4.7s-.3-2.2 2.1-2.4c0 0 1.1.1 1.4.5l-.3.5s-1.3-.9-2.3.2c0 0-.7 1.3.1 2.1 0 0 .9.9 1.8.3v-.9h-.8v-.6h1.5v2.1s-.8.3-1.3.3c.1.1-2.2.3-2.2-2.1zm8.8-2.2l1.6 4.3h-.9l-1.3-3.6-1.1 3.6h-.8l1.6-4.3h.9zm6.6 3.4l1.3-3.4h1v4.3h-.6v-3.4l-1.3 3.4h-.6l-1.3-3.4v3.4h-.6v-4.3h1l1.1 3.4zm6.4.8h-.6v-4.3h.6v4.3zm6.5-1v-3.3h.6v4.3h-.9l-2-3.4v3.4h-.8v-4.3h.9l2.2 3.3zM299.5 55.2c.1.1.2.2.3.4.1.2.2.3.3.3l.1.1.6-.5-.1-.1c-.1-.1-.2-.2-.3-.4-.2-.3-.4-.5-.5-.6l-.1-.1-.6.5.1.1c0 .1.1.2.2.3zm3.3-.8h-.7l-.7 4.9h-1.3c.2-.2.4-.3.6-.4h.1V58l-.2.2c-.2.2-.5.4-.8.6l.3-2.4h-1.6l-.1.7h.8l-.3 1.8c0 .3-.1.4-.2.5l-.1.1.5.6.1-.1.3-.3.1-.1c.1-.1.2-.1.2-.2l-.1.5h4.1l.1-.6H302l.4-2.5h1.6l.1-.7h-1.6l.3-1.7zm7.7 3.3c0-.1 0-.2.1-.3h1.4l.1-.6h-3.5l-.1.6h1.3v.5h-1.6l-.1.6h1.4c-.3.4-.8.7-1.6 1l.6-.5-.1-.1c-.1-.2-.3-.3-.4-.5.3-.6.6-1.5.8-2.6l.1-.5h-1c.1-.4.2-.7.2-1v-.1l-.7-.1v.1c0 .1-.1.2-.1.4-.1.3-.1.5-.2.7h-.5l-.1.6h.4c-.2.6-.3 1.2-.5 1.7v.1l.1.1c.3.2.4.4.5.5l.2.2c-.3.3-.6.7-1.1 1l-.1.1.1.1s.1.1.2.3l.1.1.1-.1c.5-.4.9-.8 1.2-1.1.1.1.2.2.3.4l.1.1c-.1 0-.1 0-.2.1h-.1l.1.1s.1.1.1.2c.1.1.1.1.1.2v.2l.1-.1c1-.4 1.6-.8 2-1.3.2.5.7.9 1.5 1.2h.1l.1-.1c.1-.1.2-.2.3-.4l.1-.2-.2-.1c-.6-.2-1.1-.5-1.3-1h1.5l.1-.6h-1.7c-.2.3-.2.2-.2.1zm-2.4-1.6c-.2.8-.4 1.4-.6 1.9l-.3-.3c.1-.3.3-.9.5-1.6h.4zm.7.4h3.1l.3-2h-3.1l-.3 2zm.9-1.3h1.8l-.1.7h-1.8l.1-.7zm9 2.5l-.6.3.1.1c.5.7.9 1.3 1.3 1.8l.1.1.6-.5-.1-.1c-.5-.6-.9-1.2-1.4-1.7zm1.5-.8h-2.3l.2-1.3h-.7l-.2 1.3h-1.4l.4-1.4c1.1 0 2.4-.1 3.9-.2h.1l-.2-.7h-.1c-1.7.2-3.1.2-4.2.3h-.1l-.8 2.8h2.3l-.2 1.6c0 .2-.1.3-.3.3h-1.1v.7h1c.4 0 .8-.2.9-.9l.3-1.7h2.3l.2-.8zm-3.8 1.1l-.5-.4-.1.1c-.6.7-1.1 1.2-1.7 1.7l-.1.1.1.1.3.3.1.1.1-.1c.5-.5 1.1-1.1 1.8-1.9zm27.8-2.8h2.5v.3h-2l-.4 2.7h.4l-.3.2.1.1c.2.3.4.5.6.7-.3.1-.8.2-1.6.4h-.2l.1.2c.1.1.1.3.2.4v.1h.1c.9-.2 1.6-.4 2-.7.6.3 1.7.5 3.3.5h.1s.1-.1.1-.2.1-.2.2-.3l.2-.2h-.3c-1.4 0-2.4-.1-3-.3.2-.3.4-.6.5-.9h1.4v.3h.7l.4-3h-2v-.3h2.4l.1-.7h-5.6v.7zm1.4 3.6c-.2-.1-.4-.3-.6-.6h1c-.1.2-.2.4-.4.6zm2.8-1.6l-.1.4h-1.4c0-.1.1-.2.1-.4h1.4zm-3.3-.7l.1-.4h1.3v.4h-1.4zm1.2 1.1H345l.1-.4h1.3c-.1.1-.1.2-.1.4zm2.2-1.4l-.1.4h-1.3c0-.1 0-.2.1-.4h1.3zm8-1.9h-.7l-.1.5h-1.4v.1l-.4-.2-.1.1c-.1.2-.2.5-.4.7l.2-1.2h-.6l-.2 1.4c-.1-.3-.1-.5-.1-.6v-.5l-.6.2v.1c.1.2.1.5.2.9v.4l.5-.2v.3h-.9l-.1.6h.8c-.3.6-.7 1.2-1.1 1.7v.2c0 .1.1.2.1.3v.1l.1.3.2-.2c.3-.3.5-.6.7-1l-.3 1.8h.6l.3-2.1c.1.2.3.4.4.5l.1.1.4-.4-.3 1.8h.7l.1-1h1.8v.2c0 .1 0 .1-.2.1h-1.1v.7h1.1c.5 0 .8-.3.9-.8l.3-2.4h-3.2l-.2 1.1c-.2-.2-.4-.5-.6-.7l-.1-.1-.1.1.1-.3h.7v-.1h3.7l.1-.6h-1.6V56h1.4l.1-.6h-1.4v-.2h1.5l.1-.6h-1.5l.1-.3zm0 4.1v.2h-1.8v-.2h1.8zm.1-.8v.2h-1.8v-.2h1.8zm-2.6-1.2h-.6v-.2l.3.2.1-.1c.1-.2.3-.5.5-.8h1.4v.2h-1.3l-.1.6h1.3v.2l-1.6-.1zm9.4.2c.9-.4 1.7-1 2.3-1.6l.1-.1-.6-.4-.1.1c-.5.5-1.1 1-1.9 1.3.1-.1.2-.2.2-.3l.1-.1-.5-.3h.5l-.1-.6h-.1c-.7.1-1.7.1-3.1.2h-.2v.7h.1c.3 0 .7 0 1.2-.1h.1l-.3.1v.1c.1.3.1.6.2 1h-.2l-.1.4h-1.1l-.1.7h1.1c-.4.6-.9 1.1-1.5 1.5l-.1.1v.1s0 .1.1.2.1.2.1.2l.1.1.1-.1c.4-.3.8-.6 1.2-1.1l-.2 1.6h.7l.2-1.6.4.4.3.3.1.1.5-.6-.1-.1c-.2-.2-.5-.4-1-.8l-.1-.1v-.2h1.1v.1s0 .1.1.2c0 .1.1.2.1.2v.1l.1-.1c.9-.5 1.7-1 2.3-1.6l.1-.1-.5-.4-.1.1c-.5.5-1.2 1-2.1 1.4l.1-.6h-1l.1-.4h-.1l.2-.1-.1.1.6.3.1-.1c.1-.2.3-.4.4-.5l.3.3-.1.2.1-.2zm-1.4-1.3l.2-.1c.3 0 .6 0 .8-.1v.1c-.3.5-.6.9-.8 1.1 0-.1-.1-.3-.1-.5-.1-.2-.1-.3-.1-.5zm-1.5 1.6l.6-.3v-.1c-.1-.3-.2-.6-.4-.9l-.1-.1-.6.3v.1c.1.3.2.6.5 1zm4.6.8c-.7.8-1.7 1.5-3 1.9h-.1l.1.1c0 .1.1.1.1.2v.1c0 .1.1.1.1.2l.1.1h.1c1.3-.5 2.3-1.2 3.2-2.1l.1-.1-.7-.4zm-24.8-4.8s-3.1-3.9-7.1-3.9c0 0-4.3-.4-8.1 3.8l4.6.1c-.1 0 5-5.2 10.6 0zm-15.7 9.5s3.1 3.9 7.1 3.9c0 0 4.3.4 8.1-3.8l-4.5-.1s-5.1 5.2-10.7 0zm1.9-2.7l1.8-1.4 1.3 3.4h2.4s-2.5-1.2-1.7-4.9c0 0 .8-2.5 2.7-3.4h-1.5l-4.4 3.6.9-3.5-3.3-.1-2 8.3h3.3l.5-2zm9.6-4.5s1.1-.2 1.7.7h3.1s-1-2.6-4.2-2.6c0 0-4.9-.3-5.8 4.4 0 0-.6 3.9 3.9 4.2 0 0 2.2.1 3.3-1l.1.9h1.8l.6-4.6h-3.2l-1.9 1.8h1.7s-.3 1-1.7 1c0 0-1.3 0-1.3-1.1.1-.1 0-3.7 1.9-3.7zm-311.3 30c-.9-.1-8.5-1-9.4-1.1-.4 0-.8.2-.9.7-.1.3-.2 1.1-.2 1.2h-.1v-.1c-.1-.3-.3-1.7-.4-2.1-.1-.6-.5-.9-1.1-.8-1.9.4-8.1 1.5-9.2 1.7-.4.1-.6.3-.7.7v.6c.7 3.8 2.3 13 2.5 13.8.1.6.5.9 1.1.8.8-.2 4.9-.9 6.1-1.2.2 0 .4 0 .5.2.1.2.3.3.6.4.1 0 7.7.9 9.3 1 .6.1 1.1-.3 1.1-.9.1-1.4 1.3-12.5 1.5-13.9.1-.5-.2-.9-.7-1zm-10 10c-.6.1-2.3.5-2.5.5h-.1C12 95.5 9 92 8.8 91.8c0 0-.4.7-.5 1 0 .1-.1.2 0 .3.1.6.4 2.1.6 2.4.1.2.3.3.5.3h.7c0 .2.1.3.1.5-1.3.3-2.6.6-3.9.8 0-.2-.1-.4-.1-.5.3-.1.5-.1.7-.3 0-.2.1-.3.1-.5 0-.4-.1-.8-.2-1.1-.1-.7-1.2-5.9-1.4-6.1-.2-.4-.3-.4-.7-.4h-.3l-.1-.1c0-.2-.1-.3-.1-.5 1.3-.3 2.5-.5 3.8-.8 0 .2.1.4.1.6l-.6.3c-.2.1-.3.3-.3.6s.1.6.1.9c.1.6.3 1.2.4 1.8.2.2.3.5.3.8.1-.3.3-.5.4-.7.4-.6.6-1.1.9-1.7.3-.6.5-1.1.7-1.7 0-.1.1-.2.1-.3.1-.2 0-.4-.3-.4h-.6c0-.2-.1-.4-.1-.6.2 0 2.9-.6 3.3-.7 0 0 .1 0 .1.1 0 .2.1.3.1.5 0 0 0 .1-.1.1-.6.1-1 .5-1.4.9-.3.3-1.2 2.1-1.5 2.6v.2c.4.4 2.9 3.3 3.3 3.7.3.4.7.7 1.3.8h.4c0 .1.1.3.1.4.2.2.2.2.1.2zm9.3-6.5c-.2 0-.4 0-.6.1-.4.1-.7.3-.9.5-.4.3-2.4 3-2.7 3.4-.1.1-.1.2-.1.3-.1.6-.3 2.5-.4 2.8 0 .6.2.8.7.9h.1c.2.1.1.5.1.6-1.4-.2-2.7-.4-4-.6 0-.2-.1-.4 0-.5.3 0 .5 0 .7-.1.4-.1.5-.4.6-.7.1-.3.2-1.7.3-2 .1-.4 0-.7-.2-1-.2-.5-.4-1-.6-1.6-.3-.7-.5-1.4-.8-2.1-.1-.3-.3-.6-.5-.9-.1-.2-.3-.3-.5-.4-.1 0-.1-.1-.1-.2s0-.2.1-.3c0-.1 0-.1.1-.1.2 0 3.6.5 3.9.6 0 .2-.1.4-.1.6h-.6c-.3 0-.4.3-.3.6.2.5.3 1 .5 1.5.2.6.5 1.3.7 1.9 0 0 0 .1.1.2.5-.7 1-1.3 1.5-1.9l.6-.9c.1-.1.1-.2.1-.3.1-.2-.1-.4-.3-.5-.2-.1-.4-.1-.6-.2 0-.2.1-.4.1-.6 1.1.2 2.1.3 3.2.5 0 0 0 .2-.1.4zm8.7 2.5h-1.7l-2.2 2.1v-2.1h-1.7V97h1.7v-2.2l.9-.9 1.6 3.1H33l-2.5-3.6 2.3-2.2zm3 0L33.4 97h1.3l.5-.8h2.5l.5.8h1.4l-2.5-5.8h-1.3zm-.2 3.4l.8-2.3.9 2.3h-1.7zm4.9-3.4h1.7V97h-1.7v-5.8zm6.2 2.5l-1.5-2.4h-1.5l2.3 2.9v2.9h1.4v-2.9l2.2-2.9h-1.5l-1.4 2.4zm12.5-2.5L56.8 97h1.3l.5-.8h2.5l.5.8H63l-2.5-5.8h-1.3zm-.2 3.4l.8-2.3.9 2.3H59zm9-3.4v3.5l-2.6-3.5h-1.6V97h1.7v-4.3l2.4 4.3h1.8v-5.8H68zm-12.5 0h-1.2v3s.2 1.6-1 1.6c0 0-1.4.2-1.4-1.6v-3h-1.1V95s-.1 1.8 2.5 1.8c0 0 2.2-.1 2.2-1.9v-3.7zm371.4-35.7h-5.2s-.9.1-.8.6c0 0 0 .7.9.7h4v3s-3.8-.3-4.8-2.8c0 0-.8-1.7 1.1-3.2 0 0 1.4-1.3 4.2-1.4 0 0 1.2.1 1.2-.6 0-.1.1-.9-1.2-.7 0 0-1.1-.1-3.3.6 0 0-3.1 1-3.7 3.5 0 0-.8 2.1 1.2 4 1.5 1.3 3.3 2 5.3 2.1 0 0 1.8.2 1.8-.6v-4.2c0-.5-.3-.9-.7-1zm-9.7-4.4c-.4-.1-.8 0-1.1.3l-3.6 3.6-3.7-3.7s-.4-.6-1.3-.1c-.2.2-.3.5-.3.7v8.5c0 .4.4.8.8.8h.1s.9 0 .9-.8v-6.7l2.9 2.9c.4.3.9.3 1.3 0l2.8-2.9v6.8c0 .4.4.7.8.7 0 0 .9 0 .9-.7V52c.2-.4-.1-.8-.5-.9zm-4.3 10.5l-.2.4-.6.9c-.7.6-4.6.6-4.6.6-1-.2-1.9-.4-2.9-.4l-.6-.1-5-5.7-.5.5v1.4l2.9 3.2h.2l-3.6-.8c-.8.3-1.7.2-2.4-.2V56l-1.7 4.4c-.6-.4-.6-1.5-.6-1.5.1-.4.2-.9.1-1.3 0-.1-.1-.3-.1-.4.7-.7.3-1.3.3-1.3 0-.1-.4-.2-.4-.2l-1.4-.4c-.3-.2-.6-.4-1-.6.6-.8 1.2-1.7 1.7-2.5s.9-1.6 1.1-2.5c-.2-.3-.4-.5-.6-.6-1-.7-3.6-2.1-3.6-2.1-.4-.1-.8-.1-1.2 0h-.6c-.1 0-.3.1-.4.3-.1 0-.1.2-.1.2 0 .1-.1.1-.1.2v.2l.2.1h.3c-.2 0-.4.1-.7 0h-.1v.1s.1.1.2.1v.1c-.4.3-.7.6-1 1l-.2.5c-.2.5-.4.9-.5 1.4l-.3 1.2v.8c0 .2-.1.4-.3.5-.2.1-.4 0-.5-.1v-.4c.1 0 .2-.1.3 0 0-.2-.3 0-.3 0-.1.1-.2.4-.1.6.1.3.7.3.7.3 0 .1-.4 0-.4 0h-.1c0 .2.6.1.6.1.1 0 .1.1.1.1.1.6-.1.7-.1.7-.1.1-.3.1-.4 0 0-.1 0-.2.1-.2-.5-.1-.3.3-.3.3v.1c.1.2.3.3.5.2.1 0 0 .1 0 .1-.2.9 0 1.2 0 1.2.1.2.1 0 .1 0v-.4c0 .3.5 1 .5 1 0 .3.1.6.4.8.1.5.4.8.8 1.1.2.2-.3.2-.3.2-.1 0-.2 0-.3-.2 0 0 0-.1.1-.1.1-.1-.1-.2-.1-.2-.1 0-.3.1-.3.2v.1c0 .2.2.5.5.4.3 0 .6-.1.7-.3v.5c0 .1 0 .2-.1.2-.2.1-.3-.2-.3-.2.2-.1.1-.2.1-.2-.1 0-.2.1-.3.2 0 .6.6.4.6.4l-.1.9-.2 3-.1.4c0 .1-.8.3-.8.4-.6.1-1.2.4-1.7.7-.3.1.2.1.2.1-.2.4.7 0 .7 0 .5-.2 1-.2 1.4-.1-.1.2-.2.5-.2.8.3 0 1.1-1.2 1.1-1.2l.1-1.1c0-.3.5-1.9.5-1.9.3-1.2.5-2.4.6-3.6v-.5l.3.2 1.5 1.3c.3.3.5.6.6.9.3.6.1 2.2.1 2.2.2 1.8.8 2 .8 2 .5.7 5.3.5 5.3.5 1.2-.1 2.4-.3 3.5-.5 1-.3 3 .3 3 .3 1.2.3 4.3-.2 4.3-.2l2-.1c.2 0 .4 0 .6.1l.6.2c.4 0 .8-.1 1.2-.3.1 0 .3-.1.5-.1h.4c.2 0 0-.1 0-.1h-.7c-.3 0-.3-.1-.3-.1v-.3l1.2-.4c.1-.3.2-.6.2-.8v-1.4c-.1-.4-.5.1-.5.1zM390 52.7v-.2l.3-.4h.3c.1 0 .2-.2.1-.4l-.1-.3s.2-.2 0-.3V51l-.1-.3c.1-.1.1-.2.1-.3l-.6-.4s-.1 0 0-.1l.1-.1c-.1 0-.2 0-.2.1l-.1-.2c0-.2-.1-.3-.2-.5l-.5-.3-.2-.2c-.1-.1-.4-.2-.7-.3.2-.1.5-.2.7-.4.2 0 .5.1.7.3l1.6 1.2.6.5v.2c-.1 1-.8 1.9-1.8 2.5zm6.9 8.5s.9 0 .9-.8v-2.5s-.1-1.7 2.8-2c1 0 2 .2 2.8.8 0 0 .7.6.6 1.2v2.6c0 .4.4.7.8.7 0 0 .9 0 .9-.7V58s.2-1.6-1.9-2.7c1-.5 1.7-1.3 1.9-2.4v-1c0-.5-.4-.8-.9-.8-.4 0-.8.4-.8.8v.8s.1 1.3-2 1.8c-.5.2-.9.2-1.4.1 0 0-1.8 0-2.8.8V52c.1-.4-.2-.8-.6-.9h-.2c-.5 0-.9.3-.9.7v8.6s-.1.7.8.8zM500 135.7h-7.1v.4c-1 .4-1.1 1.1-1.1 1.1h-22.4c-.1-.7-1.1-1.1-1.1-1.1v-.3h-6.8c-1.5 0-1.5-1.4-1.5-1.4v-11.6c0-2 1.6-1.7 1.6-1.7h7.2c2.2-3.4 11.9-3.3 11.9-3.3 11 .3 11.8 3.3 11.8 3.3h7.5c1.2 0 1.3 1.3 1.3 1.3v12.2c-.1 1.1-1.3 1.1-1.3 1.1zm-11.5-.4h1.1c.1 0 .3.2.3.2.1-.2.7-.3.7-.3v-.1l-.7-.3c0 .2-.2.3-.2.3h-1.1l-.1.2zm-2.6 1h.6l-.1-.1V135l.9 1.1v.1h.6l-.1-.2v-1.7l.1-.1h-.6v1.1l-.9-1 .1-.1h-.7l.1.1v2zm-3.6-1.9l.6 1.7-.1.1h.6l-.1-.1.4-1.1.4 1.1-.1.1v.1h.6v-.1h-.1l.6-1.8c.1-.1.1 0 .1 0v1.7l-.1.1h.7l-.1-.1v-1.7l.1-.1h-1.3l.1.1-.4 1-.3-1 .1-.1h-.7l.1.1-.4 1-.3-1 .1-.1h-.7l.2.1zm-2.1 1.9l-.1-.2.1-.3h.7l.1.3-.1.2h.8l-.1-.2-.7-1.6.1-.1h-.7l.1.1-.7 1.7-.1.1h.6zm-2.7-1.1c0 1.2 1.1 1.1 1.1 1.1.6 0 1-.4 1-.4l-.1-.1v-.4l.1-.1v-.1h-.9v-.1h-.1v.5h.1v-.1h.4c0 .4-.5.4-.5.4-.6 0-.6-.7-.6-.7 0-.6.6-.6.6-.6.4 0 .6.3.6.3h.1l.2-.5h-.2c-.1-.1-.6-.1-.6-.1-1.3.1-1.2.9-1.2.9zm-1.9 1.1h1.6l.1.1h.1v-.6h-.1l-.1.1h-1.1v-.5h.7l.1.1h.1v-.5h-.1l-.1.1h-.7v-.4h1.1l.1.1h.1v-.6h-.1l-.1.1h-1.6l.1.1v1.7l-.1.2zm-1.8 0l-.1-1.1.6 1.2.6-1.2v1.1l-.1.1h.6l-.1-.1v-1.6l.1-.2h-.7l.1.1-.5 1-.5-.9.1-.2h-.7l.1.2v1.6l-.1.2h.6v-.2zm-3.3-1.1s.6.2.7.4c0 0 .2-.2.3-.2h1.1v-.4h-1.2s-.2-.1-.2-.2c0 0-.4.3-.7.4 0 0-.3 0 0 0zm29.7-12.5s0-.8-.9-.8h-7.7s.2-1.4-4.5-2.6c0 0-7.3-2-14.8.6 0 0-2.2.6-2.7 2h-7.7s-.9-.1-.9.9v10.8s-.1 1 .8 1h6.5v-.3s.9-.4 1.1-1.1h22.4s.3.9 1.1 1.1v.3h6.2s1.2.2 1.2-.9c-.1-1.2-.1-11-.1-11zm-4.1 2h-.9s-.4 0-.4.1l-.2.9s0 .2-.3.3c0 0-.1.2.1.3l.6.4s.2.2 0 .3c0 0-.3.1-.3.5v2.4s0 .3-.6.4l.1.1s1.7.3 1.4 1.1c0 0-.1.7-1.1.2 0 0-1.9-1.1-2.9-1.2 0 0-.2-.1.2-.1h1.7s0-.3-.3-.3H490s1.7.7 1.4.9h-.5s-1.9 1.1-4.1 1c0 0-.4 0-.2-.1 0 0 3-1 3.1-1.7h-.2s-.2 0-.2.1c0 0-.1.3-.7.3h-.6s-.4.1-.4-.5v-3.5s0-.4.3-.3l1.4.3h4.1l.5-.4s.1-.2-.1-.2h-.4s-.2 0-.2-.2c0 0 0-.1-.2-.1h-3.8s-.4-.1-.4.1c0 0-.2.4-.8.3 0 0-.8 0-.6-.3l.2-.9s0-.2-.1-.2h-1l-.1-.3 1.3.1c0-.1.2-1.4.2-1.4s0-.1.3-.1l1.3.4h4l.7-.4s.2-.2.4-.1l.8.5s.2.1 0 .2c0 0-.4.2-.4.6 0 0 .1.3.3 0l.3-.5s.2-.2.3 0l.3.6c0 .1.2.4-.1.4zm-2.6 2.7v-.4c0-.2-.2-.2-.2-.2h-3.7c-.2 0-.2.1-.2.1v.4c0 .2.3.2.3.2l3.8-.1c0 .2 0 0 0 0zm0 1v-.4c0-.2-.2-.2-.2-.2h-3.7c-.2 0-.2.1-.2.1v.4c0 .2.3.2.3.2l3.8-.1c0 .2 0 0 0 0zm0 1.1v-.4c0-.2-.2-.2-.2-.2h-3.7c-.2 0-.2.1-.2.1v.4c0 .2.3.2.3.2l3.8-.1c0 .2 0 0 0 0zm-4.4-4.8l-.1.5c-.1.3.1.2.1.2h1.1c.2 0 .3-.1.3-.1l.1-.5c.1-.2-.2-.3-.2-.3h-1.1l-.2.2zm1.4-1.2h-.9c-.3 0-.3.2-.3.2l-.1.4c0 .3.2.3.2.3h1c.3 0 .3-.2.3-.2l.1-.4c.1-.3-.3-.3-.3-.3zm1.5 1.2l-.1.5c-.1.3.1.2.1.2h1.1c.2 0 .3-.1.3-.1l.1-.5c.1-.2-.2-.3-.2-.3h-1.1l-.2.2zm1.4-1.2h-.9c-.3 0-.3.2-.3.2l-.1.4c0 .3.2.3.2.3h1c.3 0 .3-.2.3-.2l.1-.4c.1-.3-.3-.3-.3-.3zm-5.4-1.6c-.3-.2 0-.5 0-.5 0-.2-.5-.2-.5-.2-.4 0-.9.2-.9.2-.8.6-1.5.6-1.5.6-1-.3-.3-.9-.3-.9-.4.5.3.7.3.7.3 0 .7-.3.7-.3.8-.6 1.7-.6 1.7-.6.7-.1 1 .3 1.1.4.2.2.1.6.1.6-.3.3-.7 0-.7 0zm-2.6-.5c-.3 0-.3-.3-.3-.3 0-.1.1-.2.1-.2.1-.1-.4-.1-.4-.1-.6 0-1.5.7-1.5.7-.9.7-1.8.4-1.8.4-1.1-.4-.8-1.4-.8-1.4.1-.9 1.1-.9 1.1-.9.9 0 .9.9.9.9 0 .8-.8.8-.8.8-.8 0-.7-.6-.7-.6 0-.3.4-.3.4-.3.3 0 .3.3.3.3 0 .2-.2.3-.2.3.1.1.2.1.2.1.4 0 .4-.5.4-.5 0-.6-.7-.6-.7-.6-.7 0-.7.8-.7.8 0 .8 1.1.8 1.1.8.4 0 1.1-.4 1.1-.4l.8-.4c.5-.3 1.3-.3 1.3-.3.5 0 .6.5.6.5 0 .4-.4.4-.4.4zm-5.5-1.8s.6-.7.6-.8c0 0 .5.8.7.8 0 0-.6.3-.6 1.1 0 0-.2-.8-.7-1.1zm.6.9s.3 1-.9 1.4c0 0-.9.3-1.8-.4 0 0-.9-.6-1.5-.7 0 0-.4 0-.4.1 0 0 .1.1.1.2 0 0 0 .3-.3.3 0 0-.4 0-.4-.4 0 0 0-.5.6-.5 0 0 .7 0 1.3.2l.8.4s.7.4 1.1.4c0 0 1.1 0 1.1-.8 0 0 0-.8-.7-.8 0 0-.7 0-.7.6 0 0 0 .5.4.5 0 0 .1 0 .2-.1 0 0-.2-.1-.2-.3 0 0 0-.3.3-.3 0 0 .4 0 .4.3 0 0 .1.6-.7.6 0 0-.7 0-.8-.8 0 0 .1-.9.9-.9 0 .2 1 .1 1.2 1zm-4.5 1.1s.7-.1.3-.7c0 0 .7.6-.3.9 0 0-.7 0-1.5-.6 0 0-.5-.2-.9-.2 0 0-.5 0-.5.2 0 0 .3.3 0 .5 0 0-.4.3-.6-.1 0 0-.2-.4.1-.6 0 0 .4-.4 1.1-.4 0 0 .9 0 1.7.6-.1.2.3.5.6.4zm-2.6 3.3l1 .7c.3.3-.2.3-.2.3h-3.3c-.4 0-.1.6-.1.6 1.8 3.5 3.8 3.5 3.8 3.5.2.1-.1.3-.1.3-.4.1-.7 1.2-.7 1.2-.1.3-.3.2-.3.2-2.9-1.6-3-5.5-3-5.5 0-.2-.2-.3-.2-.3-.1 0-.2.2-.2.2 0 .2-.3 1.3-.3 1.3-1.7 4.1-4.9 4.3-4.9 4.3 3.3-2.1 3.7-5.6 3.7-5.6 0-.1-.3-.1-.3-.1h-2.6c-.2 0-.4-.3-.4-.3-.1-.1.2-.1.2-.1l2.9.1c.2 0 .2-.3.2-.3v-2.3c0-.3.3-.2.3-.2l1.7.3c.3.1.1.2.1.2l-.2.1c-.1.1-.2.3-.2.3v1.7c0 .2.4.2.4.2h1.7c.1 0 .3-.1.3-.1l.7-.8c-.2-.1 0 .1 0 .1zm3.9 2s-1.2.5-1.2-.4v-.4s-.1-.5-.4-.7c0 0-.2-.2.1-.2 0 0 1.7-.2 1.9 1.1l.6-1.4s.2-.2.2 0l-.1.8s0 .2.1.2l1.2.4h1.2s.2-.1.2-.3v-.6s-.2-.2-.3 0c0 0 .1.2-.5.3 0 0-.8.1-.8-.2v-1.1s.1-.3-.1-.3h-.8s-.2 0-.2-.1c0 0-.2-.3-.3-.1 0 0 0 .7-.6.8 0 0-.8.1-.9-.7 0 0-.2-.8-.5-1 0 0-.2 0-.2-.1 0 0 1.4-.4 2.1.6 0 0 .1.2.4.2l.9.1s.3 0 .3-.3v-.6s-.2-.4.2-.3c.1 0 1.4.2 1.4.2s.2.1.1.1c0 0-.4.2-.4.5 0 0 0 .3.3.3h1.2s.2 0 .2-.3v-.4s-.1-.2.1-.2l1.4.2s.2.1 0 .2c0 0-.3.2-.3.4v.3s.1.3.2.1l.5-.8s.1-.1.3 0l.6.8s.2.2-.2.2h-1.1s-.3 0-.3.2v1s.1.3-.6.3c0 0-.6 0-.6-.1v-.1s0-.1-.2-.1c0 0-.2 0-.2.3v.4s0 .2.2.2h1.2l.6-.4s.2-.2.4 0l.6.4s.3.2 0 .3c0 0-.3.3-.3.5v3.6s0 .6-1 1c0 0-.4.2-.4-.1 0 0-.1-.7-.6-.8l-.4-.1s-.2-.1 0-.1h1s.3 0 .2-.2v-.6s-.1-.3-.2-.1l-.1.3s0 .4-.2.1c0 0-.1-.5-.1-.9 0 0-.1-.3-.2 0 0 0-.3.7-.7 1 0 0-.1.1-.1.4v.7s.1.4-.7.3c0 0-.5.1-.5-.3v-1.5s0-.4-.1-.1v.3s-.3.4-.3-.2l-.1-.6s0-.3-.2-.1c0 0-.6 1-.7 1.1v1.1s.1.4-.6.4c0 0-.5.1-.6-.4v-5s0-.5-.2-.2c0 0-.5 2.3-.6 2.9 0 0 0 1.1.2 1.5 0 0 .3.9-.6.9 0 0-.9.1-.9-.8l.1-.8s-.1-.5-.5-.6c0 0-.4-.1-.3-.3h.7s.4-.2.5-.6l.6-1.5c.2.2.2 0 0 .1zm5 2.9c.3-.1.4-1.5.4-1.5.1-.6-.2-.5-.2-.5-.2 0-.2.2-.2.2v1.8zm.4-2.4l.3-.3s.2-.2.5.1l.4.4c0 .1-.2.1-.2.1-.1 0-.1.2-.1.2 0 .7.3 1.1.3 1.1v-2.1s0-.3-.2-.3h-1s-.2 0-.2.1v.5c-.2 0-.2.4.2.2zm-.3-2.2c.2 0 .1-.2.1-.2v-.5c0-.2-.2-.2-.2-.2h-1.2c-.2 0-.2.1-.2.1v.6c0 .2.2.2.2.2h1.3zm-1.3 3.8v-1.1c0-.1-.1-.1-.1-.1-.1 0-.2.3-.2.3 0 .5.3.9.3.9zm-.5-1.9l.4.3s.2.1.1-.1v-.5s.1-.2-.3-.2h-.9s-.2 0-.2.3v.3s0 .4.2.1l.3-.3c0 .1.2 0 .4.1zm-1 2.5s.1.3.1.1c0 0 .3-1 .2-1.6 0 0 0-.4-.2-.4 0 0-.2 0-.2.1l.1 1.8zm1.3 5.9h-.5l.2-.6.3.6zm-126.5-4.7h-3.2v2.1h-2.1v-2.1h-4.7v-1.4h11.5c-.1.3-.2.6-.4.8-.3.4-.7.6-1.1.6zm1.1-2.7c-.2.5-.6.8-1.1.9h-9.6v-1.2h10.8c0 .1-.1.2-.1.3zm-.7-4.7c-.3.1-.5.1-.8.1h-1.3v.5h3v2.5c-.1.4-.3.7-.8.7h-10.1v-3.4h3v-.5h-3.2v-1.4h11.5c-.3.9-.7 1.4-1.3 1.5zm-2.1 3h1.3v-1.3h-1.3v1.3zm-3.4 0h1.7v-1.3h-1.7v1.3zm-1.6-1.3h-1.4v1.3h1.4v-1.3zm3.3-1.6h-1.7v.5h1.7v-.5zm-6.9 5c-.4.8-.8 1.7-1.2 2.5-.3.5-.6 1-1 1.4-.4.4-.8.6-1.4.6l1.2-3.9h-1.1c.4-1.1.9-2.1 1.3-3.1h-1.7c.4-.8.8-1.5 1.3-2.2.2-.3.5-.6.7-.9.2-.3.6-.4.9-.4h.3c-.2.9-.5 1.9-.7 2.8h1.2c-.5 1.1-.9 2.2-1.4 3.4.5-.3 1.1-.3 1.6-.2 0-.1 0-.1 0 0zm-4.4-5.4c-.4.5-.9.7-1.5.7h-5.9v-1.3h7.8c-.1.2-.3.4-.4.6zm-5.4 1c.1 1 .2 1.9.2 2.9h-1.8c-.1-1-.2-1.9-.2-2.9h1.8zm1 0h1.9v2.3h-1.9v-2.3zm2.9 0h1.8c-.1 1-.2 1.9-.2 2.9H338c0-1 .1-1.9.2-2.9zm-2.9 2.8h1.9v.6h2.9c-.1.6-.7 1.2-1.3 1.3h-1.6v4h-1.9v-4h-3v-1.3h3v-.6zm-3.4 7.7s-.1-.1-.2-.1h2.1c0 .2 0 .4-.1.6v-.1c0-.2-.1-.2-.2-.3h-.8v1.1h.7c.1 0 .1-.1.2-.1 0 0 0-.1.1-.1v.8c-.2-.4-.6-.3-.9-.3v1c0 .1 0 .2.1.3.1 0 .1.1.2.1h-1.3l.2-.2c.1-.1.1-.1.1-.2v-2.2c0-.1-.1-.2-.2-.3zm-.8-5.6c-.2.2-.2.4-.3.6-.1.8 0 1.6 0 2.4 0 .1 0 .1-.1.1-.9.4-1.8.7-2.8.8-1 .1-2 .1-2.9-.3-1.2-.5-2.1-1.4-2.6-2.7-.5-1.5-.6-3-.1-4.4.5-1.7 1.7-2.7 3.4-3 1.5-.3 3.1-.2 4.5.4.1 0 .2.1.3.1.1 0 .1.1.1.2l-.3 2.1v.1s0-.1-.1-.1l-.3-.9c-.1-.3-.3-.6-.6-.8-.4-.3-.9-.5-1.5-.5-.6-.1-1.2 0-1.8.2-.8.3-1.3.9-1.6 1.6-.3.6-.4 1.3-.5 1.9-.1.9 0 1.9.4 2.8.2.5.4.9.7 1.3.9 1.1 2.2 1.4 3.5.9.1 0 .2-.1.4-.2l.1-.1v-2.1c0-.1 0-.2-.1-.2-.3-.2-.6-.3-.9-.5-.1-.1-.2-.2-.4-.2h3.7v.1c0 .2-.1.3-.2.4zm-10.1 2.9c0 .2.1.3.2.4.2.1.4.3.6.4l.1.1H318l.3-.3c.2-.1.4-.3.5-.5.1-.1.1-.2.1-.3 0-.5.1-1 .1-1.6V125c0-.5 0-1.1-.1-1.6 0-.1-.1-.2-.2-.3-.2-.1-.4-.3-.6-.4l-.3-.3h3.8c-.1 0-.1.1-.2.1-.2.1-.4.3-.6.4-.2.1-.3.3-.3.6 0 .5-.1 1.1-.1 1.6v5.5c.5.5.6.9.6 1.3zm-.5 4.5c-.9-.1-1.7-.2-2.6-.3.9-.1 1.7-.2 2.6-.3v.6zm-8.2-6.5c.2.2.4.4.5.6.8 1.1 1.5 2.3 2 3.8-1.1.1-2.1-.2-2.9-.5-.8-.3-1.6-.7-2.1-1.3.2 0 .3.2.5.2h.4c1 0 .4-1.1.1-1.4-.1-.1-.2-.2-.2-.3-.2-.1-.3-.2-.4-.3-.5-.3-1.1-.4-1.8-.5h-.7c-.1 0-.2 0-.2.1.1.2.2.2.2.4.4.8.8 1.6 1.4 2.3l.3.3c.5.5 1.2.8 1.8 1.2.2 0 .2.1.4.1.1.1-.1.1-.2 0-.5 0-1-.1-1.4-.1-.4-.1-.8-.2-1.2-.4 0 .1 0 .2-.1.3-.2 1-.6 1.9-1.1 2.8-.5.8-.9 1.6-1.6 2.3-.7-1-.9-2.3-1-3.9v-.4c0-.3 0-.5.1-.7 0-.1 0-.3.1-.3 0 .1.1.2.1.3.2.3.4 1 .8.9.4 0 .5-.6.7-.9.4-1.4-.2-2.6-.7-3.5-.8 1-1.5 2.1-1.8 3.6v1.2c0 .4 0 .8.1 1.1-.4-.7-.7-1.4-.9-2.4-.1-.1 0-.2-.1-.3-.3.1-.8.3-1.2.3-.5.1-1.1.2-1.7.2h-.8c-.7 0-1.4-.1-2-.2h-.4l1.6-1.6c.9-.7 1.5-1.5 2.8-1.8-.3.4-.7.7-.7 1.4.1.2.3.3.6.3h.3c1.4 0 2.1-1.1 2.6-2l.3-.6c-.4 0-.7-.1-1.1 0h-.3c-1.3-.1-2.3.2-3.2.6-.5.2-.9.6-1.3.8l.6-.9c.3-.5.8-.9 1.2-1.3-.2-.1-.2-.2-.4-.3l-.3-.3c-.6-.7-1.2-1.5-1.6-2.3-.4-.7-.7-1.4-1-2.2 2 0 3.4.7 4.7 1.6l.3.3s.1.1 0 .1-.4-.1-.6-.1c-.4 0-.9.1-.9.3 0 .5.2.8.4 1.1l.3.3c.7.8 2.6 1.1 2.6 1.1h.4c-.3-1-.7-1.6-1.1-2.3-.7-1.1-1.8-2-3-2.5 1-.1 2 .2 2.7.5.2-1.1.6-2.1 1.1-2.9.5-.9 1-1.7 1.6-2.4.6 1 .9 2.3 1 3.8v.5c0 .4-.1.7-.2 1-.1-.2-.2-.5-.3-.7-.1-.2-.3-.5-.6-.5-.2 0-.4.3-.5.5-.4.7-.4 1.8-.1 2.6.2.5.4.9.7 1.4.3-.5.6-.9.9-1.4.6-1 1-2 .9-3.7-.1 0 0-.2 0-.2v-.6c.4.8.8 1.6 1 2.7.7-.3 1.6-.5 2.5-.5h1.7c.6.1 1.2.1 1.7.3-.4.9-1.1 1.5-1.8 2.1-.7.5-1.3 1.1-2.3 1.3.3-.4.6-.7.7-1.3-.4-.6-1.5-.2-1.9 0-.9.5-1.5 1.5-2 2.3.3.1.7.1 1.1.1h.9c1.8 0 2.9-.9 3.9-1.6-.3.5-.7.9-1.1 1.4l-.3.3c-.1.1-.3.2-.4.3l.3.3c.3-.2.5-.1.6.1zm-5.7-1.6c-.7-.2-1.3.2-1.3.8v.1c0 .7.7 1.2 1.4.9.7-.3.7-1.5-.1-1.8zm18.6 6.2c0 .2 0 .4-.1.6-.1-.3-.3-.3-.5-.3h-.6v1.1h.7l.1-.1c0-.1.1-.1.1-.2v.8s0-.1-.1-.1c-.1-.1-.1-.2-.2-.2-.2-.1-.5-.1-.7 0v1.2c.3 0 .7 0 1-.1.1 0 .1-.1.1-.1.1-.1.1-.2.2-.3v.6c0 .1 0 .1-.1.1h-2c.2-.1.2-.2.2-.4V135c0-.2-.1-.3-.2-.3l-.1-.1c.8-.1 1.5-.1 2.2-.1zm2.5.1c-.1 0-.1-.1-.2-.1h2.1c0 .2 0 .4-.1.6 0-.3-.2-.3-.4-.4h-.6v1h.7c.1 0 .1-.1.2-.2v.8c-.1-.2-.3-.3-.5-.3h-.4v1.1l.1.1c.1.1.2.1.3.2h-1.3l.2-.2c.1-.1.1-.1.1-.2v-2.2c-.1 0-.1-.1-.2-.2zm4.7-1.8c0-.2 0-.4.1-.7.2-.9.3-1.8.5-2.7 0-.1 0-.1.1-.1h1.9c0 .3 0 .5-.1.7-.2.6-.5 1.1-1 1.6s-1 .9-1.5 1.2zm5.7 2.3c-.1-.3-.3-.4-.5-.4h-.6v1.1h.7l.1-.1c0-.1.1-.1.1-.2v.8s0-.1-.1-.1l-.2-.2h-.7v1.2c.3 0 .7 0 1-.1.1 0 .1-.1.1-.1.1-.1.1-.2.2-.3v.7h-2.1v-.1c.1-.1.2-.2.2-.3v-2.1c0-.2-.1-.3-.2-.4l-.1-.1h2.2c0 .3-.1.5-.1.7zm-.5-5.7h1.9c.2 1.1.4 2.3.6 3.5-.4-.2-.7-.4-1-.7-.5-.5-.9-1.1-1.1-1.8-.2-.3-.3-.7-.4-1zm4 5.1c.3 0 .6 0 .8.1.1 0 .1.1.1.1 0 .2 0 .3-.1.5 0-.1 0-.1-.1-.1-.2-.6-1-.5-1.2-.2-.1.2-.2.3-.2.5-.1.3 0 .7.1 1 .2.6.6.8 1.2.7.1 0 .2-.1.3-.1-.3.4-.7.5-1.1.4-.4-.1-.7-.3-.8-.6-.2-.5-.3-1-.1-1.5.2-.5.6-.8 1.1-.8zm3.6-3.3c0-.1 0-.1.1-.1h2.1c-.1.3-.3.6-.4.9-.1.3-.2.6-.4.8 0 .1 0 .1-.1.1h-1.8v-.1c.1-.5.3-1.1.5-1.6zm-.4 3.3h1.3c-.1.1-.1.1-.2.1-.1.1-.1.1-.1.2v2.2c0 .1.1.2.2.3 0 0 .1 0 .1.1h-1.2l.2-.2c0-.1.1-.1.1-.2v-2.2c0-.1 0-.1-.1-.2-.2 0-.3 0-.3-.1zm4.6.1c0-.1 0-.1 0 0 .2-.1.3-.1.3 0 .3.8.6 1.7.9 2.5.1.2.1.3.3.4h-1c.2-.1.2-.1.2-.4 0-.1-.1-.3-.1-.4 0-.1 0-.1-.1-.1h-.8c-.1 0-.1 0-.1.1s-.1.3-.1.4c0 .2 0 .2.1.3 0 0 .1 0 .1.1h-.8c.2-.1.3-.3.3-.5.2-.8.5-1.6.8-2.4zm.4 1.7c-.1-.4-.3-.7-.4-1.1-.1.4-.3.7-.4 1.1h.8zm5.3-5.2c.1 0 .1 0 .1.1.1.4.2.7.4 1.1 0 .1.1.2.1.2l.5.5h-2.4c-.1 0-.1 0-.1-.1-.2-.6-.4-1.1-.6-1.7v-.1h2zm1 5c-.9.1-1.7.2-2.6.3v-.6c.8.1 1.7.2 2.6.3zm46.4-118.6c.6.6.8 1.6.3 2.4-.1.2-.2.4-.4.6l-4.2 4.2c-.8.8-2.1.8-2.8 0l-1.4-1.4 4.3-4.3-1.5-1.5-1.4 1.4.7.7-2.8 2.8-.7-.7-5.2 5.2c-.8.8-2.1.8-2.8 0-.8-.8-.8-2.1 0-2.8l5.2-5.2-4.9-4.9c-.9-.9-1-2.3-.2-3.1.8-.8 2.2-.7 3.1.2l4.9 4.9 1.4-1.4-1.3-1.3c-.8-.8-.8-2.1 0-2.8.8-.8 2.1-.8 2.8 0l6.9 7m2 3.6c-.2.7-.3 1-.3 1.1 0 .5.2.8.6.9.5.1.8-.1 1-.5.8-2.1 1.4-4.7 1.8-8 0-.5-.3-.8-.8-.9-.5 0-.8.3-.9.8-.4 2.9-.9 5.1-1.4 6.6M410 23c.1.5-.5.6-1.8.2-.6-.1-1 .1-1 .7 0 .5.4.8 1 1 2.4.7 3.6.1 3.6-1.8V13c0-.5-.3-.7-.9-.8-.6 0-.9.3-.9.8v10zm3.6-8.3c.3.9 1 3.5 2.2 7.9.2.5.5.8 1 .7.5-.2.7-.6.7-1.2-.5-2.5-1.3-5.1-2.2-7.9-.2-.6-.5-.8-1-.7-.6.3-.8.7-.7 1.2m15.8 3.1c.5-.1.7-.4.5-1 .4.3.8.5 1.3.7.6.1 1-.1 1.1-.6 0-.5-.2-1-.8-1.3-1.7-.7-3.3-1.7-5.1-2.9-.4-.2-.8-.2-1.1-.1-2.1 1.6-4 2.7-5.6 3.2-.4.2-.5.6-.3 1.2.3.5.6.6 1.2.4.4-.1.8-.3 1.1-.6 0 .5.1.8.5.8h2.9v1h-4.7c-.4 0-.6.3-.7.9 0 .5.3.8.7.8h4.7v2.9h-1.5c.4-.4.2-1.2-.7-2.4-.3-.4-.7-.5-1.2-.3-.4.3-.5.6-.3 1 0 0 .1.1.1.2.6 1 .9 1.4 1.1 1.5h-2.2c-.4 0-.7.3-.7.8s.3.8.7.8h11.1c.5 0 .7-.4.7-.9-.1-.5-.4-.7-.9-.7h-1.7c.4-.5.7-1.1.9-1.8.1-.4-.1-.7-.6-.9-.5-.1-.9 0-1 .4-.4 1.1-.8 1.8-1 2.2h-1v-2.9h4.3c.6 0 1-.3 1-.9-.1-.5-.4-.8-1-.8H427v-1h2.4v.3zm-6.4-1.5c1-.5 1.9-1.2 2.8-1.9.9.8 1.9 1.4 2.9 1.9H423zm-156.9 112h-.4c0 .5.1 1 0 1.4-.3 1-1.1 1.5-2.3 1.4-.5 0-.8.1-.8.7.4 0 .7 0 1 .1.7.1 1.2.1 1.8.1 1.1.1 1.5 1.1 1 1.9-.8 1.4-3.4 1.6-4.6.7-.4-.4-.4-.7 0-1.1.1-.3.5-.5.7-.8-.7-.5-.7-.7.3-1.8-.8-.8-1.1-1.6-.5-2.3.5-.8 1.5-1.2 2.6-1 .4.1 1 .1 1.5.3.3.1.4.1.5.3-.4 0-.5.1-.8.1zm-3.7 5.2c0 .1.3.5.4.7.4.3 1 .3 1.6.4.5-.1 1.1-.4 1.5-.7.1 0 .3-.4.3-.7 0-.1-.4-.4-.5-.4-.8-.1-1.6-.3-2.5-.1-.4.1-.7.4-.8.8zm1.8-5.6c-.3-.1-.7 0-1 .1-.5.4-.5 1.1-.4 1.6.3.7.5 1.1 1.2 1.1.5-.1 1-.5 1-1.4-.1-.5-.1-1.1-.8-1.4zm-4.8 3.3c0-.7 0-1.4-.1-2.2 0-.5-.3-1-.8-.8-.5.1-1.2.5-1.2 1v2.7c0 .3.4.5.5.8h-2.3c.8-.1.7-.8.7-1.4V129c0-.5 0-1-.8-.7v-.3c.5-.1 1.1-.4 1.8-.7v1c.3-.1.5-.4.8-.5 1.1-.7 2-.1 2.2 1 .1.8.1 1.8.1 2.6 0 .5-.1 1.2.7 1.4h-2.5c1-.4.9-1.1.9-1.6zm-5.9.1v-2.2c0-.5 0-1.1-1-1v-.3c.5-.1 1.2-.4 1.8-.7v4c0 .5 0 1.1.7 1.2h-2.3c.8.1.8-.5.8-1zm.5-5.3c-.3 0-.4-.4-.5-.5.3-.1.4-.5.7-.5.1 0 .4.3.8.5-.6.2-.9.5-1 .5zm-4.1 6.7c.8-.1.8-.8.8-1.4v-2.2c0-.5-.3-1-.8-1-.7 0-1.2.5-1.2 1.1v2.6c0 .3.4.5.7.8h-2.5c.8-.3.7-1 .7-1.5V129c0-.5-.3-.8-.8-.8s-1.2.5-1.2 1v2.7c0 .3.4.4.7.8H244c.8-.3.7-1 .7-1.5v-2c0-.5.1-1.1-1-.8 0 0 .1-.1.1-.3.5-.1 1.1-.3 1.6-.5 0 .4 0 .7.1 1 1.8-1.1 2.2-1.1 3 .1l.4-.4c.5-.5 1.2-.8 1.9-.5.7.3.7 1.1.8 1.6v2.2c0 .5 0 1.1.7 1.2l-2.4-.1zm-7.5 0c-.3.1-.7-.3-1.2-.4-.1 0-.3.3-.5.4-.5.3-1.2.1-1.6-.4-.4-.7-.4-1.5.3-1.9.5-.4 1.2-.7 1.9-1 .5-.3.5-.5.4-1 0-.5-.4-.8-1-.8-.5 0-.7.3-.8.8 0 .1-.3.5-.4.7 0 0-.4 0-.5-.3v-.8c.3-.7 1.5-1.1 2.5-.8.8.1 1.1.5 1.1 1.5v3.1l.8-.4c-.1 1-.5 1.3-1 1.3zm-.8-3c-.5.1-1 .4-1.4.5-.5.3-.8.7-.5 1.2.1.3.5.5.8.5.7 0 1-.4 1-1.1.1-.2.1-.6.1-1.1zm-3.5-1c-1 .3-.8 1.1-.8 1.8v1c0 1.1 0 1.1-1.1 1.4-1.1.3-2.2.4-3.3 0-2-.7-3.1-2.7-2.5-4.8.7-2.2 2.9-3.3 5-2.6.4.1 1 .5 1.4-.1l.3 2.3s-.1 0-.3.1l-.1-.4c-.4-1-1.2-1.5-2.2-1.5-1.1-.1-1.9.4-2.5 1.2-1 1.4-.7 3.7.4 4.9.8 1 2 1.2 3.1.7.3 0 .4-.4.4-.5v-1.4c0-.7.1-1.5-1-1.6 1.5-.5 2.3-.5 3.2-.5zm-11.8.3c-.3 0-.4-.1-.7-.1 0 0 0-.1.1-.1h2.6c-.2.3-.2.3-2 .2zm-7.9 3.7c.1-.1.3-.1.4-.3.3-.1.5-.4.5-.7v-5.6c0-.4-.5-.7-.8-1h5.5v1.6c-.8-1.5-.8-1.2-2-1.2h-1.5v2.7c1.5.4 2.5.1 2.9-1v2.5c-.4-1.8-1.9-.7-3-1.2v3c0 .1.4.4.5.4.5.1 1.2.1 1.8 0 .5-.1 1-.4 1.4-.7.1-.1.4-.4.5-.7h.1c-.1.7-.4 1.2-.7 1.8-1.8.4-3.7.4-5.6.4zm-4.2 1.7c-1.9 1.2-3.8 2.3-5.7 3.4-.4.3-.8.3-1.2.4h-.4c-.7-.4-1.5-.7-2.2-1-1.4-.7-2.6-1.5-4-2.2-1.1-.5-1.9-1.4-2.3-2.5v-7.4c.4-1.4 1.2-2.2 2.3-2.7 1-.5 1.9-1.1 2.7-1.6 1.2-.5 2.3-1.1 3.4-1.6h1c1.9 1.1 3.7 2 5.6 3l1.1.7c1 .5 1.5 1.5 1.5 2.6v6.7c-.3.9-.9 1.7-1.8 2.2zm-13.5-4.7l2.3 4c.4.7 1.1 1.1 1.9 1.1h4.5c.4 0 .7-.1 1.1-.3-.1-.1-.1-.4-.3-.5-1.1-1.5-1.9-3.1-2.9-4.8-.3-.3-.4-.4-.8-.4h-6.3c.3.3.3.7.5.9zm8.6-7.1h-4.4c-1 0-1.6.4-2 1.2-.7 1.1-1.4 2.5-2.2 3.7-.1.3-.3.7-.4 1.1h6.5c.1 0 .3-.1.4-.3.4-.5.8-1.2 1.1-1.8.7-1.2 1.4-2.5 2.2-3.7-.4-.1-.8-.2-1.2-.2zm4.2 4.9c-.8-1.4-1.5-2.6-2.2-3.8-.1-.3-.4-.4-.7-.8l-3.3 5.7v.4c1.1 1.6 2 3.5 3.1 5.5.3-.4.5-.5.7-.8.8-1.4 1.5-2.6 2.3-3.8.5-.9.5-1.6.1-2.4zm183.6-6c-1 .5-.6 1.4-.6 1.4.6-1 1.7-.7 1.7-.7-.8.2-1.1.8-1.1.8-.6 1.5.9 1.6.9 1.6 1.6.3 1.8-1.7 1.8-2.4v-.5c1-4.1 3.5-3.1 3.5-3.1-2.6.7-1.8 4.1-1.8 4.1.2 1.5-.8 2.8-.8 2.8-1.5 1.6-3.2.3-3.2.3-.7-.7-1.3-.5-1.3-.5-.5.4.1 1 .1 1 4.6 3.7 6.1-2 6.1-2 .9 6.4-5.3 4.9-5.3 4.9l-3.5 11.7v-15h-5.1l4.9-7c-.1 1.2-.7 3.7-.7 3.7-.1 1.2.8.9.8.9.2-.1.3-.3.3-.4.3-1 .7-1.2.7-1.2-.9 2.2-.2 3.3.3 3.8.3.2.7.6.3-.3-.4-1.1-.1-2.5-.1-2.5.3-1.9 1.6-2.3 2.1-2.4h.3c2.6.2 1.4-1.1 1.4-1.1.8.4.5 1.1.5 1.1-.2.9-1.7.8-1.7.8h-.2l-.3.2zm-3.9-2.4l-5 7.1h5.2v15l-3.3-11.7H386l-1.8-3.3 9-7.1zm9.7 2.6s-.4-1.4 1.3-2.3c0 0 1-.4 1.4-1 0 0 .2 1.2-.6 2 0 0-.6.4-1.2.5 0-.1-.7.1-.9.8zm36.2 5.4h-7.8l.2-.9h3.1c.2-.2.3-.3.5-.4.2-.1.3-.1.5-.1s.3 0 .5.1c.1.1.2.2.3.4h3.3l-.6.9zm-7.2.3h1.7l.2.5h3l.3-.5h1.6l-.3.5h1l-.6.9H431l.2-.9h.9l-.2-.5zm-2 3.8l-1.3 1.1h-2.3l-.2 1h3.6l-.6 1h-4.6l.3-1.9h-3.2l1.1-5.9h1.3l-.1.4.6-.4h1.4l.1-.5h1.4l-.1.5h3.4l-.8 4.7zm-6.7.2h1.9l.3-1.6h-1.9l-.3 1.6zm.7-4.2l-.3 1.6h1.9l.3-1.6h-1.9zm2.6 4.2h2l.3-1.6h-2l-.3 1.6zm.7-4.2l-.3 1.6h2l.3-1.6h-2zm-8 2.9v-.6l.3-.2 1.4-3.2h1.5l-1.7 4h-1.5zm1.5 3.4h.6l-.3.7h-1.7l-1.8-2.8-2.8 2.9h-1.5l-.2-.7h.6l3.4-3.5.7-4.1h1.5l-.7 4.1 2.2 3.4zm-6-3.4l-.3-4h1.5l.2 3.2.3.2-.3.6h-1.4zm-4-3.2l-.1.5h3.2l-.6 3h-1.4l.4-2.1h-1.8l-.5 2.1h-1.3l.4-2.1h-1.8l-.5 2.2h-1.3l.5-3.1h1.4l-.1.6.5-.6h1.4l.1-.5H406l.2-.9h7.9l-.6.9h-2.8zm-3.3 1.6h1l.3.5h-1l-.3-.5zm-.1.9h1l.3.5h-1l-.3-.5zm4.4.5h-1l-.3-.5h1l.3.5zm.1-.9h-1l-.3-.5h1l.3.5zm-5 2l.5-.5h5.9l-.5 2.6-2 1.1h-6l.6-3.7h1.5v.5zm4.8.4h-1.7l-.1.5h1.7l.1-.5zm-.4 1.8l.1-.5h-1.7l-.1.5h1.7zm-4.8 0h1.6l.1-.5h-1.6l-.1.5zm.3-1.3h1.6l.1-.5h-1.6l-.1.5zm25 .2h-1.1l.5-2.6h1.2l-.1.4.6-.4h5.9l-.3 1.6-1.6 1.1h-.1l-.2 1.2h1.7l-.6.9H435l.4-2.1h-1.9l-1.3 2.1h-1.7l-.2-.7h.7l.7-1.5zm5.2-1l.1-.8h-4.9l-.1.8h4.9zm.4-36.3c-2.1 0-3.8-1.6-3.8-3.6s1.7-3.6 3.8-3.6 3.8 1.6 3.8 3.6c-.1 1.9-1.8 3.6-3.8 3.6zm0-6.3c-1.6 0-2.8 1.2-2.8 2.6 0 1.5 1.2 2.6 2.8 2.6 1.6 0 2.8-1.2 2.8-2.6-.1-1.4-1.2-2.6-2.8-2.6zm-9.7 6.1h-1.1v-7.2l5 5.1v-4.9h1v7l-5-5 .1 5zm-3.4-6.9h1v6.9h-1v-6.9zm-1 5.1c-.1.6-.2 1.1-.7 1.4 0 0-1.1.8-2.5.2 0 0-1.3-.6-1.5-1.7l1.2-.4s.1 1.4 1.4 1.3c0 0 2-.5.7-1.8-.2-.2-.5-.3-1.1-.6-.8-.4-1.3-.7-1.5-1-.2-.3-.3-.6-.3-1 0-.6.2-1 .7-1.4 0 0 1.9-1.3 3.4.6l-.8.6s-.8-1.2-2.2-.4c0 0-.5.9.6 1.4.1.1 2.8.9 2.6 2.8zm-6.8-.2h-3.1l-.7 2h-.9l3.1-7.2 3.2 7.2h-.9l-.7-2zm-1.6-3l-1.2 2.2h2.5l-1.3-2.2zm-5.6-1.1s-2.3.1-2.7 2.3c0 0-.1 1.4.8 2.2.6.5 1.1.8 1.9.8.7 0 1.4-.2 1.9-.5v1c-.5.3-1.2.4-2 .4-1 0-1.8-.3-2.4-1 0 0-1.4-.9-1.2-3 0 0 .3-3.3 3.7-3.3 0 0 1.4 0 2 .5v1c0 .1-1.2-.4-2-.4zM398 92.3l-1.7 4.1-1.5-4.1-1.5 3.8h-1.4l2.9-7.4 1.5 4.2 1.7-4.2 2.2 5.4c1.3-1.8.1-5.9.1-5.9-2.2-5.1-7.3-4.9-7.3-4.9-3.4 0-5.5 2.4-5.5 2.4l-.9-1.8c1.7-1.5 3.9-2.5 6.4-2.5 5.3 0 9.5 4.3 9.5 9.5 0 0 0 4-2.3 6.3l-2.2-4.9zm-8.4-6.5l1.7 4.2 1.5-3.8h1.4l-2.9 7.4-1.7-4.2-1.7 4.2-2.2-5.5c-.9 2.4-.3 5.1-.3 5.1 1.5 5.2 7 5.6 7 5.6 3.7.2 5.9-2.3 5.9-2.3l.8 1.6c-3.1 2.8-6.3 2.4-6.3 2.4-5.3 0-9.6-4.3-9.5-9.5.1-3.8 2.3-6.2 2.3-6.2L388 90l1.6-4.2zM139 155.4h11.2v5.8l-1.4 1.4H141v3h9.8l-1.4 2.1H139v-12.3zm4.6 2.1h-2.5v3.1h2.5v-3.1zm4.6 0h-2.5v3.1h2.5v-3.1zm18.8-.1h-1.7l.8-1.7h4.3v-.4l2.3-.6v1h4.9v1.7h-8.4l-.4.7h6v-.4h2.2v1.1l-1.1 1h-10.2l1.3-2.4zm-.9 2.8h11v7.6h-4.5l1-1.5h1.4v-.5h-6.9v1.9H166l.1-7.5zm9 1.9h-6.9v.5h6.9v-.5zm0 1.9h-6.9v.5h6.9v-.5zm-48.3-5l4-2.5v6.8l-1.3-.7v-3l-2.7-.6zm-1.7 1.1l.8-.5 1.8.4-1.4.9-1.2-.8zm-.3 3.4l4-2.5v6.8l-1.3-.7v-3l-2.7-.6zm-1.7 1.1l.8-.5 1.8.4-1.4.9-1.2-.8zm14.4-3.6h-2.1v-4.7l2.1 1.6v3.1zm-5.4-5.6h2.1v7.9h-2.1v-7.9zm5.4 6.2h-2.1v1.7l-5.8 2v2.4l7.9-2.8v-3.3zm18.3-6.5h-2.2l-1.9 6h1.1v6.6h2v-7.9h-.6l1.6-4.7zm5.3 1.6v-1.5H159v1.5h-2.7l-1.2 1.9h3.9v5h-.6l-.6 2h1.2v2.1h2.1v-2.1h.9v-2h-.9v-5h3.4v-1.9h-3.4zm-5.5 4.1v7h2v-8.5l-2 1.5zm6.6 6.9v-8.5l2 1.6v6.9h-2zm-50.8.6c.6.1 1.2.1 1.8.2 1.2-.3 2.3-.8 3.3-1.4-4.7-.1-8.9-2.5-11.4-6.1 0 .4-.1.9-.1 1.3 0 1.2.1 2.3.4 3.3 1.8 1.5 3.8 2.4 6 2.7m-6.9-3.1c.3.6.6 1.2 1 1.8.1.1.1.2.2.3-.2-.5-.3-1-.5-1.5-.3-.2-.5-.4-.7-.6m7.5 3.5c-.2 0-.4-.1-.6-.1-2.1-.3-4.1-1.2-5.8-2.5.2.7.4 1.3.7 2 1.1.4 2.4.7 3.6.7.7.1 1.4 0 2.1-.1m-6.9-3.4c-.2-1-.3-2-.3-3 0-.6 0-1.1.1-1.7-.7-1-1.2-2.2-1.6-3.4-.3 2.5.1 5 .9 7.2.2.4.5.7.9.9m5.8-3.6h-1v.9h1c.1 0 .2 0 .3-.1.1-.1.1-.2.1-.3 0-.1 0-.2-.1-.3 0-.1-.1-.2-.3-.2m.7-10.1c-5.4 0-9.9 4.4-9.9 9.9 0 5.4 4.4 9.9 9.9 9.9 5.4 0 9.9-4.4 9.9-9.9s-4.5-9.9-9.9-9.9m.9 10.6c0 .4-.1.8-.4 1.1-.3.3-.7.5-1.1.5h-2.1v-3.9h1.1v.8h1c.1 0 .2 0 .3-.1.1-.1.1-.2.1-.3 0-.1-.1-.3-.1-.4.4-.1.7-.3 1-.5.1.2.3.6.3.9 0 .4-.1.7-.4 1 .2.2.3.5.3.9m-2.8-6.3c.1.1.2.1.3.1h.6c.4 0 .8.2 1.1.5.3.3.5.7.5 1.1 0 .4-.2.8-.5 1.1-.3.3-.7.5-1.1.5h-1.8v-1.1h1.8c.1 0 .2 0 .3-.1.1-.1.1-.2.1-.3 0-.1 0-.2-.1-.3-.1-.1-.2-.1-.3-.1h-.6c-.4 0-.8-.2-1.1-.5-.3-.3-.5-.7-.5-1.1s.2-.8.5-1.1c.3-.3.7-.5 1.1-.5h1.8v1.1H110c-.1 0-.2 0-.3.1-.1.1-.1.2-.1.3s0 .2.1.3m3.8 1.6l1.9-3.4 2.7 4.9h-1.2l-1.2-2.2-2.2.7zm1.1.2l-.7 1.2h-1.2l.4-.7 1.5-.5zM113 163l1.5-.5-.7 1.2h-1.2l.4-.7zm.4-.8l1-1.8 1.3-2.4 3.1 5.6h-1.2l-1.4-2.5-2.8 1.1zm-9.9 4.4c.7.5 1.4.9 2.2 1.3-.2-.2-.3-.4-.4-.6-.5-.8-1-1.7-1.3-2.6-.5-.5-1-1.1-1.4-1.8-.2-.3-.3-.5-.5-.8v-.6c0-1.8.5-3.5 1.4-4.9.3 1.3.9 2.5 1.5 3.6.5-3.1 2-5.9 4.2-8 .2-.1.4-.1.6-.1-2.4 2.2-4.1 5.2-4.6 8.6 2.5 3.8 6.7 6.2 11.5 6.2h.3c2.3-1.6 3.9-4 4.2-6.8.1.5.1 1 .1 1.5 0 2-.6 3.8-1.6 5.4-.8.2-1.7.3-2.6.3-.8.6-1.7 1-2.7 1.4 1.8-.1 3.6-.7 5.2-1.6-.1.2-.3.4-.4.6-1.8.9-3.7 1.4-5.8 1.4h-.1c-.9.2-1.9.3-2.8.3h-.4c-1.2 0-2.3-.3-3.4-.6.7.8 1.5 1.5 2.4 2.1l-.9-.3c-.3-.3-.6-.5-.9-.8.1.2.3.4.4.6-1.9-1.1-3.3-2.3-4.2-3.8" fill="#797c81"/></svg>