<svg xmlns="http://www.w3.org/2000/svg" width="170" height="56" viewBox="65.5 32.5 170 56"><linearGradient id="a" gradientUnits="userSpaceOnUse" x1="521.501" y1="-300.618" x2="521.501" y2="-272.789" gradientTransform="matrix(1 0 0 -1 -371 -249)"><stop offset="0" stop-color="#8f8f8f"/><stop offset=".118" stop-color="#9d9d9d"/><stop offset=".271" stop-color="#a7a7a7"/><stop offset=".461" stop-color="#aaa"/><stop offset="1" stop-color="#bcbcbc"/></linearGradient><path d="M234.9 46.5c0 7.4-6.1 13.4-13.7 13.4H79.8c-7.6 0-13.7-6-13.7-13.4s6.1-13.4 13.7-13.4h141.5c7.5 0 13.6 6 13.6 13.4z" fill="url(#a)"/><path d="M221.2 60.5H79.8c-7.9 0-14.3-6.3-14.3-14s6.4-14 14.3-14h141.5c7.9 0 14.3 6.3 14.3 14s-6.5 14-14.4 14zM79.8 33.6c-7.2 0-13.1 5.8-13.1 12.9s5.9 12.9 13.1 12.9h141.5c7.2 0 13.1-5.8 13.1-12.9s-5.9-12.9-13.1-12.9H79.8z" fill="#bababa"/><linearGradient id="b" gradientUnits="userSpaceOnUse" x1="470.966" y1="-295.572" x2="470.966" y2="-304.699" gradientTransform="matrix(1 0 0 -1 -371 -249)"><stop offset="0" stop-color="#8f8f8f"/><stop offset=".118" stop-color="#9d9d9d"/><stop offset=".271" stop-color="#a7a7a7"/><stop offset=".461" stop-color="#aaa"/><stop offset="1" stop-color="#bcbcbc"/></linearGradient><path d="M111.2 45.9c0 2.4-2 4.4-4.5 4.4H93.3c-2.5 0-4.5-2-4.5-4.4 0-2.4 2-4.4 4.5-4.4h13.4c2.4 0 4.5 1.9 4.5 4.4z" fill="url(#b)"/><linearGradient id="c" gradientUnits="userSpaceOnUse" x1="471.19" y1="-296.882" x2="471.19" y2="-292.526" gradientTransform="matrix(1 0 0 -1 -371 -249)"><stop offset="0" stop-color="#b7b8b6"/><stop offset=".128" stop-color="#b5b7b2"/><stop offset=".461" stop-color="#b4b7af"/><stop offset="1" stop-color="#fff"/></linearGradient><path d="M109.9 45.9c0 1.6-1.3 2.9-3 2.9H93.5c-1.6 0-3-1.3-3-2.9 0-1.6 1.3-2.9 3-2.9h13.4c1.6-.1 3 1.3 3 2.9z" fill="url(#c)"/><linearGradient id="d" gradientUnits="userSpaceOnUse" x1="521.501" y1="-328.618" x2="521.501" y2="-300.789" gradientTransform="matrix(1 0 0 -1 -371 -249)"><stop offset="0" stop-color="#2a80d7"/><stop offset=".081" stop-color="#2d86df"/><stop offset=".25" stop-color="#328ee9"/><stop offset=".461" stop-color="#3391ec"/><stop offset="1" stop-color="#3a9efc"/></linearGradient><path d="M234.9 74.5c0 7.4-6.1 13.4-13.7 13.4H79.8c-7.6 0-13.7-6-13.7-13.4s6.1-13.4 13.7-13.4h141.5c7.5 0 13.6 6 13.6 13.4z" fill="url(#d)"/><linearGradient id="e" gradientUnits="userSpaceOnUse" x1="436.5" y1="-323.5" x2="606.5" y2="-323.5" gradientTransform="matrix(1 0 0 -1 -371 -249)"><stop offset="0" stop-color="#2a80d7"/><stop offset=".081" stop-color="#2d86df"/><stop offset=".25" stop-color="#328ee9"/><stop offset=".461" stop-color="#3391ec"/><stop offset="1" stop-color="#3c8ff5"/></linearGradient><path d="M221.2 88.5H79.8c-7.9 0-14.3-6.3-14.3-14s6.4-14 14.3-14h141.5c7.9 0 14.3 6.3 14.3 14-.1 7.7-6.5 14-14.4 14zM79.8 61.6c-7.2 0-13.1 5.8-13.1 12.9 0 7.1 5.9 12.9 13.1 12.9h141.5c7.2 0 13.1-5.8 13.1-12.9 0-7.1-5.9-12.9-13.1-12.9H79.8z" fill="url(#e)"/><linearGradient id="f" gradientUnits="userSpaceOnUse" x1="470.965" y1="-323.572" x2="470.965" y2="-332.699" gradientTransform="matrix(1 0 0 -1 -371 -249)"><stop offset="0" stop-color="#2a80d7"/><stop offset=".081" stop-color="#2d86df"/><stop offset=".25" stop-color="#328ee9"/><stop offset=".461" stop-color="#3391ec"/><stop offset="1" stop-color="#3a9dfb"/></linearGradient><path d="M111.2 73.9c0 2.4-2 4.4-4.5 4.4H93.3c-2.5 0-4.5-2-4.5-4.4 0-2.4 2-4.4 4.5-4.4h13.4c2.4 0 4.5 1.9 4.5 4.4z" fill="url(#f)"/><linearGradient id="g" gradientUnits="userSpaceOnUse" x1="471.19" y1="-324.882" x2="471.19" y2="-320.526" gradientTransform="matrix(1 0 0 -1 -371 -249)"><stop offset="0" stop-color="#8ad220"/><stop offset=".107" stop-color="#96db29"/><stop offset=".265" stop-color="#a0e331"/><stop offset=".461" stop-color="#a3e533"/><stop offset="1" stop-color="#eafcbb"/></linearGradient><path d="M109.9 73.9c0 1.6-1.3 2.9-3 2.9H93.5c-1.6 0-3-1.3-3-2.9 0-1.6 1.3-2.9 3-2.9h13.4c1.6-.1 3 1.3 3 2.9z" fill="url(#g)"/></svg>