<svg xmlns="http://www.w3.org/2000/svg" width="432" height="108" viewBox="0 0 432 108"><path fill="#EDEDED" d="M426.3 88l.1-28.4c8.3-3.5 1.7-11.6 1.7-11.6-7.4-5.1-12.4 3.4-12.4 3.4-5.9-4.4-11.9-.1-11.9-.1-2.3-5.5-7.9-4.2-7.9-4.2-1-8-7.5-12.5-7.5-12.5-12.9-7.5-23.3 1.3-23.3 1.3-7.4-7.8-17.9-4-17.9-4 2.8-10-4.1-14.9-4.1-14.9-16.8-10.5-26.8 5.6-26.8 5.6-6.6-11-18.3-11.4-18.3-11.4-5.1-16.8-17.6-6.6-17.6-6.6-16.6-7.6-17.3 6.9-17.3 6.9-23.8.4-23.6 23.1-23.6 23.1-15.6-2.1-12.6 13.3-12.6 13.3-8.8 2-7 13.5-7 13.5-10-4.3-16.1.9-16.1.9C169.5 41.5 149 88 149 88h277.3z"/><path fill="#FFF" d="M263.5 77.7s-3.5-20.3 21.2-22.2c0 0 2.2-12.2 12.7-12.7 0 0 11.2-1.7 16.2 6.5 0 0 8-9.8 23.2-2.3 0 0 3.7-6.1 8.8 0l.7 1.3s4.5-1 8.7 2.4c0 0 5-8.1 12.6-.3 0 0 12.8-8.8 24.6 3.5l-93.6 23-35.1.8z"/><path fill="#EDEDED" d="M65 48.1s5.1 8.4-3.8 9.9c0 0-5.4 1.2-7.1-1.9 0 0-3.3 5.5-11.9 2.1 0 0-3.1 0-3.9 1.1 0 0-7.8 6.3-25.3 5H0v-21s17.9-17.4 31.1 0c0 0 5.9-3.9 9.8 2.4 0 0 6.7-2.8 11.3 3.1 0 0 5.8-7.8 12.8-1.1"/><path fill="#FFF" d="M128 54s-26.3-29-45-1.5c0 0-11-2.3-11 7.5 0 0-5.8-.3-8 3 0 0-8.5-1.5-9.3 4.5 0 0-3.9 1.5-3.9 4 0 0 61.7-10 77.2-17.5zM45.9 72.8s.3-7.3-7.7-7.3c0 0-.2-3.2-5.7-3 0 0-3.3-4.8-7.7 0 0 0-2.7-1.2-5.5 1 0 0 1.5-9.7-12-4.7 0 0-1.7-5.9-7.3-5v21.6c0 .1 8.9 9.5 45.9-2.6z"/><path fill="#FFCB65" d="M432 61.7c-44.7-18-97.3 0-97.3 0-78.7 29.8-138 2.7-138 2.7s-52.7-20-109-4.7c0 0-59.2 22.5-87.7 17.7V108h432V61.7z"/><path fill="#FFD480" d="M0 75.5S48 96 98.3 85c0 0 18-3.5 40.3-12.5 0 0 59.8-16.8 105.3-2.3 0 0 61.3 25.5 98.5 16.8 0 0 53.8-8 89.8-22.7V108H0V75.5z"/><path fill="#FFE0A4" d="M300 108s39.5-12 45.2-13.8c0 0 46.8-12.3 86.8-.8V108H300zM230.2 108l-46.3-14s-45.2-12.5-81.5-1.3L52.2 108h178z"/></svg>