<svg xmlns="http://www.w3.org/2000/svg" width="1920" height="197" viewBox="0 0 1920 197"><path fill="#EDEDED" d="M765.8 99.5s23.5-12.4 45 2c0 0 14.3-6.9 29-1.4 0 0-3.8-12.2 10.5-17.7 0 0-5.8-18.8 19.3-16.8 0 0 3.5-29.3 37.7-29 0 0 6.3-21 29-7.8 0 0 16.8-14.3 28.5 7 0 0 21.8 2.8 30 16.3 0 0 13.3-21.3 40.8-9 0 0 12 6.8 9 19.7 0 0 15.5-4.2 28.5 4.6 0 0 17.3-7.8 36.8-2 0 0 14.3 7.8 14.3 16 0 0 9-1 12 5.5 0 0 11.8-4 20.3.3 0 0 7.5-10 17.8-5 0 0 12.5 9.6-1.6 15.9v86.4l-406.9-85M1629.7 70.7s21.3-75.3 102.7-40c0 0 55.7-64.2 112-6 0 0 57.3-7 75.7 16v80.7h-318.7c-.1-.1-31.4-74.4 28.3-50.7zM1240.8 107.3s9.8-24.3 41.8-14.8c0 0 10 2.5 10.3 16.5 0 0 17.5-6 28.5 3 0 0 21.3-14 39.5-6.8 0 0 12.5 12 9.5 20.8-.1 0-102.9 3.5-129.6-18.7z"/><path fill="#FFF" d="M1340.8 120.2s-4.2-11 8.2-12.3c0 0 2-8 11.3-4.5 0 0 10.3-6.7 16.2-4.3 0 0-1.3-14.3 18.7-9.2 0 0 10.5-26 55.8-10.3 0 0 4.8-4 10.7.3 0 0 8-8 21.3-6.5 0 0 2.2-21 25.8-12 0 0 13-31.2 62.3-19.3 0 0 42 11 54.7 42.3 0 0 25.2-13.3 46.5 6.5 0 0 30.2-31.5 62.2 7 0 0 13.8-4.7 19 7 0-.1-83.5 41.1-412.7 15.3z"/><path fill="#EDEDED" d="M0 3S62.7-9.3 76 42.7c0 0 31.3-7.9 39.3 23.1 0 0 33.4-39.1 74.1-8.8 0 0 19.2-30 62.3-9.7 0 0 12.3-34.3 41-35.3 0 0 34.3-5 49.3 19.7 0 0 15-6.3 23.3 7 0 0 28.7-7.7 44 21.3 0 0 22.7-8 23 10.7 0 0 16.3 2.3 16 15.7 0 0 7.7-8.6 28-4.7.9.2 2-1 2-1S504 51.7 535 76c0 0 8.7-.7 12.7 4.7 0 0 13.3-2.7 19 2.7 0 0 8-7 18-3 0 0 7.2 3.9 3 12.7 0 0-4.7 4-8.7 5l6 10.7s18.3 26.8-70.3 20.1H0V3z"/><path fill="#FFF" d="M0 64s36.8-5.8 50.5 23.8c0 0 19.5-5.3 22 13.5 0 0 16.5 2.8 18.5 8.3 0 0 12.3-2 14.8 8.3 0 0 8-2.7 10.5 4.8L0 128.8V64zM427.8 107s34.5-35.3 66.2-10c0 0 17.8-10.2 43.7 11 0 0 14.1-10.8 35.3 0 0 0 9.7-8.9 22.7-8.3 0 0 4.3-14.7 19.5-9.4 0 0 10.3-19.1 36.6-15.5 0 0 30.4 4.3 42.1 23.8l-140.5 30.2c-.1 0-103.6-4.8-125.6-21.8z"/><path fill="#FFCB65" d="M382 105.5s-75.5-23.5-161-7c0 0-110 31-140 23 0 0 66 26 147 11.5l154-27.5zM800 106.5s-78.3-25.7-172-7c0 0-97 28.3-139 22.3 0 0 64 22.7 143 12.7 0 0 139.7-28.3 168-28z"/><path fill="#FFF" d="M907.3 119.5s-1.3-25.3 36.8-26.8c0 0 12.5-31 46.5-7.3 0 0 9.8-12.8 37.5-2.5 0 0 5.3-7 13.8 0 0 0 11.8-1.8 16.3 3.5 0 0 7.3-11.5 20.8.5 0 0 19-12.5 42.8 5.8-.3.1-168.8 64.8-214.5 26.8z"/><path fill="#FFCB65" d="M911.5 122s46.5 4.5 115.5-20.5c0 0 101-23 175 4 0 0-82 11.5-117 22 0 0-118.5 24-173.5-5.5zM1308.5 122s50.1 4.5 124.4-20.5c0 0 108.8-23 188.6 4 0 0-88.4 11.5-126.1 22 0 0-127.6 24-186.9-5.5zM1693.5 112.5s39-3 55-6.5c0 0 47-9.5 80.5 3.3 0 0 27 7.8 35.5 7.8 0-.1-99.5 33.4-171-4.6z"/><path fill="#FFD480" d="M0 105.5s60.5 5.5 106 20c0 0 74.5 17.5 147.5 0 0 0 100.5-33 186.5-17.5 0 0 62.5 15.5 76 18 0 0 83 20.6 179-7.4 0 0 59.7-15.5 90.3-14.7 0 0 77.7 1.5 126.3 17.1 0 0 70 20.4 135 11.9 0 0 47.7-10.5 66.7-16.5 0 0 99.7-22.7 148.7-8 0 0 81.7 23.1 121.7 24.5 0 0 45.3 5.1 101.3-6.9 0 0 100.7-29.7 155.3-21 0 0 61 5.7 89.7 14.2 0 0 37.7 13.8 117.3-2.2 0 0 52.7-8.6 72.7 2.2V165H0v-59.5z"/><path fill="#FFE0A4" d="M0 150.6s71 26 149 8c0 0 121-41 222-17.5 0 0 60 15 71 16.5 0 0 60 17.5 149-5.5 0 0 106-37 214.5-5 0 0 81 30.5 161.5 12 0 0 124-38.5 201.5-22 0 0 96 21 105 22.5 0 0 46 10.5 121.5-3l68-17s110-16.5 188 12.5c0 0 55 19.5 136 8 0 0 121-28.7 133-27.1v60.6s-172.6-28.4-199.9-26.2-64.6 26.2-162.1 25.2c-76.2-.8-150.8-15.4-179.5-18.5s-54-12.8-112.5-1.6c0 0-137 36.1-197.7 18.2 0 0-138.3-25.6-194.8-21.5-27.5 2-106 22.3-106 22.3s-69.5 13.8-124-3.3c0 0-52.7-14.2-82.8-18.7 0 0-45-7.7-99-.2 0 0-47.3 10-61.3 14.3-.2.1-.4.1-.7.2-13.2 4.2-62.8 14.4-104 13.2 0 0-54-5.5-86.5-15.5 0 0-27.2-12.7-91.7-14.3C35.5 164.9 1 177.9 0 180.1v-29.5z"/><g fill="#FFCB65"><path d="M548.5 81l33.7 14.7s3.3 2.5 1 6.2l-9.8 20.5h-50.7l-9-19s-4-6.2 1.3-8.3L548.5 81z"/><path d="M568 78.5v-8h-12.1V60.3h-15.8V71h-11.8v7.5H520v15.8h56V78.5h-8zm2.3 12l-43.9-.2v-5.9h8.6v-8h26v7.9h9.3v6.2zM552.3 43.4s-3.4-2-5.8.7c0 0-5.1-.2-4.3 3.8-2.5-.2-4.8 4.4.5 5.6-.3.9-.7 2.6 2.8 2.8 0 0 2.6-.1 2.9-1.3 0 0-.5 2.4 2.5 2.4 0 0 2.5 0 2.7-1.8 0 0 2.8 1.1 3-1.4 0 0 2.7.9 3.4-1.8 0 0 2.3-1.1.4-3.3 0 0 .3-3.5-4-3.8 0-.2.4-3.2-4.1-1.9z"/><path d="M559.1 54.5s-2.9.5-2.4 2.9c0 0-2 3.6 2.4 2.8 0 0 2.6 2.5 4.3-.5 0 0 1.5 1.1 2.3-1 0 0 3.3.3.8-3.3 0 0-.6-2.8-3.3-1.3 0 .1-2.3-2.2-4.1.4z"/><path d="M566.3 59.8s1.5-1.6 3.9-.5c0 0 2.8 1.2.9 2.5 0 0 .6 1.6-2.1 2 0 0-1.7 1.4-3.2 0 0 0-2.4-.3-1-2.1 0-.1-.9-1.7 1.5-1.9zM569.6 65.2s1.6-1.3 3.4 0c.4.3 2.2 2 .3 2.5 0 0 .2 1.2-2.7.8 0 0-2.4.8-2.5-1.4 0 0-1.4-1.6 1.5-1.9z"/><path d="M575 67.7s1.5-1.1 2.9-.6c.9.3 1.8 2.3.2 2.7 0 0 .1 1-2.2.7 0 0-2 .6-2.1-1.2-.1 0-1.2-1.3 1.2-1.6z"/></g><g fill="#FFCB65"><path d="M610 58.9c3.3-1.5 6.2-3.3 8.8-5.4-.9-3-1.6-6.7-1.8-11h-8.9v5.7c2.3-.4 4.6-.8 7-1.3 0 1 .1 1.9.1 2.7-2.4.5-4.8.9-7.1 1.4v8c0 2.6-1.2 3.9-3.7 3.9-1.5 0-3.1 0-4.6-.1-.1-1-.3-2-.6-2.9 1.7.2 3.2.3 4.5.3 1.1 0 1.6-.5 1.6-1.6v-7.1c-2.3.4-4.5.9-6.7 1.3l-.7-2.9c2.4-.4 4.8-.8 7.4-1.2v-6.2H598V40h7.3v-5.2c-1.8.2-3.7.5-5.8.7-.2-.9-.4-1.8-.8-2.7 5.6-.5 10.4-1.2 14.5-2.1l.8 2.7c-1.7.3-3.7.6-5.9 1v5.5h8.8c-.2-2.8-.3-6.2-.5-10.1h2.9c.1 3.6.2 7 .4 10.1h12.5v2.5h-12.3c.3 3.5.7 6.6 1.4 9.1 2.5-2.2 4.7-4.7 6.5-7.5l2.5 1.6c-2.4 3.2-5.1 6.1-8.1 8.6.6 1.6 1.4 2.9 2.3 4 1.2 1.4 2.2 2.1 3 2.1.5 0 .8-.4 1-1.1.3-1.2.6-3.1 1-5.8 1 .4 1.8.8 2.6 1-.4 2.6-.8 4.5-1.2 5.9-.5 1.8-1.6 2.7-3.3 2.8-2 0-3.8-1.2-5.6-3.5-.8-1-1.5-2.2-2.1-3.6-2.5 1.8-5.2 3.5-8.1 4.9-.6-.7-1.2-1.4-1.8-2z"/><path d="M621.9 33l1.8-1.8c2 1.5 4.1 3.2 6.2 5.1l-2.1 2.1c-1.9-1.9-3.8-3.7-5.9-5.4zM633 49.4h10.2c.7-1.1 1.4-2.2 2-3.3l2.6 1.1c-.5.8-1 1.5-1.5 2.2H667v2.3h-7.9c-1.3 2.3-3 4.3-5.1 5.8 3.4 1 6.9 2.1 10.7 3.2l-1.5 2.7c-3.8-1.3-7.9-2.7-12.1-4.1-4 2.1-9.2 3.5-15.7 4.3-.4-.8-.9-1.7-1.3-2.6 5.5-.5 10-1.5 13.5-2.9-2.8-.9-5.6-1.9-8.5-2.8l2.7-3.6H633v-2.3zm2.8-12.3h8.6v-3.7h-10.2v-2.3h31.6v2.3h-10.3v3.7h8.6v10.2h-2.5V46h-23.2v1.3h-2.5V37.1zm2.6 6.7h6v-4.5h-6v4.5zm4.5 10.4c2.5.7 5.1 1.5 7.8 2.3 2.2-1.3 3.9-3 5.1-4.9h-11.1c-.6.9-1.2 1.8-1.8 2.6zm4.1-17.1h6v-3.7h-6v3.7zm0 6.7h6v-4.5h-6v4.5zm14.6-4.5h-6v4.5h6v-4.5zM682.5 60.8c2.6-1.8 5-3.8 7-6.2-1.3-3.4-2.1-8.8-2.3-16.3h-12.9v5.2h9.8c-.1 4.4-.3 8-.5 11-.3 3.1-1.8 4.7-4.6 4.7-.9 0-2.2 0-3.7-.1-.1-.8-.3-1.8-.5-2.8 1.6.2 2.9.3 4 .3 1.3 0 2.1-.9 2.2-2.7.2-2.1.3-4.7.4-7.8h-7.1c-.2 7.9-1.8 13.8-4.8 17.6l-1.8-2.4c2.6-3.4 3.9-8.8 3.9-16.2v-9.3h15.5c-.1-1.8-.2-3.7-.2-5.8h2.8c0 1.6 0 3.6.1 5.8h11.8v2.5h-11.7c.2 6.1.8 10.7 1.7 13.7 2.2-3 4-6.4 5.5-10.2l2.7 1.1c-2 4.6-4.3 8.7-7.1 12.1 1.7 3.4 3.3 5.1 4.9 5.1.6 0 1-.5 1.3-1.6.3-1.7.6-3.4.8-5.1 1 .4 1.8.7 2.6 1-.3 2.4-.7 4.4-1.1 6-.4 1.7-1.4 2.6-2.9 2.7-1.4.1-2.7-.4-4-1.4-1.4-1.1-2.6-2.5-3.5-4.4-1.9 2.1-4 3.9-6.3 5.5-.6-.7-1.3-1.3-2-2z"/><path d="M692.3 31.6l1.4-1.8c1.9 1.1 3.7 2.2 5.4 3.4l-1.6 2.1c-1.6-1.3-3.4-2.5-5.2-3.7zM704.4 38.7h12.8c.3-2.8.5-5.8.5-9.1h2.9c0 3.4-.2 6.4-.5 9.1h14.5c-.1 7-.3 12.9-.6 17.4-.2 4.3-2.5 6.4-6.8 6.4-1.8 0-3.9-.1-6.3-.2-.1-.9-.3-1.9-.5-3.2 2.1.3 4.2.4 6.3.4 2.7 0 4.2-1.3 4.3-4 .3-4.5.5-9.2.6-14.2h-11.9c-1.7 10-6.4 17.5-14 22.4-.6-.8-1.3-1.6-2.1-2.5 7.1-4.2 11.5-10.8 13.1-19.9h-12.4v-2.6z"/><path d="M706.9 32l1.8-1.7c1.9 1.6 3.7 3.3 5.5 5.1l-2.1 1.9c-1.7-1.9-3.4-3.7-5.2-5.3zM720.7 47.5l1.9-1.7c2.2 2 4.2 4 5.9 6l-2.1 1.9c-1.8-2-3.7-4.1-5.7-6.2zM738.1 52.9c3.6-2 6.7-4.7 9.3-8.1l2.4.9c-.5.6-.9 1.2-1.4 1.8h21.2c-.2 4.3-.4 7.6-.6 10-.3 3.7-2.1 5.5-5.5 5.5h-5.9c-.1-1-.3-1.9-.5-2.9 2 .2 3.9.3 5.7.3 2.1 0 3.3-1.1 3.6-3.2.3-2.1.4-4.5.5-7.3h-5.3c-1.4 6-5.4 10.6-12.1 13.8-.6-.8-1.2-1.5-1.9-2.3 6.4-2.6 10.2-6.4 11.4-11.5h-5.2c-1.7 4.9-6.1 8.7-13.2 11.4-.6-.8-1.2-1.5-1.9-2.3 6.7-2.5 10.8-5.5 12.3-9.1h-4.6c-1.9 2-4.1 3.7-6.5 5.2-.6-.7-1.1-1.4-1.8-2.2zM742.5 31.4h25.2v14.2H765v-1.4h-22.5V31.4zm22.5 2.4h-19.8v2.8H765v-2.8zm-19.8 8.1H765V39h-19.8v2.9zM777.7 37.5h7.2c.6-2.4 1-5 1.4-7.8l2.9.4c-.4 2.6-.9 5.1-1.4 7.4h18.9V40h-19.5c-.4 1.5-.9 3-1.4 4.3h17v2.4c-1.5 3.7-3.8 6.9-7 9.7 3.2 1.9 6.9 3.3 11.2 4.1-1 1.1-1.8 2.1-2.4 2.9-3.6-1.2-7.3-3-11-5.3-3 1.9-7.2 3.8-12.7 5.5-.6-.9-1.3-1.8-2.1-2.5 5.6-1.5 9.8-3 12.6-4.6-3-2.6-5.1-5.8-6.4-9.7-2.5 6.2-5.9 11.4-10.2 15.4-.6-.9-1.2-1.6-1.8-2.3 5.1-4.6 8.9-11.2 11.3-19.8h-9.5v-2.6c.9-2.2 1.8-4.3 2.6-6.5l2.8.8c-.9 1.9-1.7 3.8-2.5 5.7zm22 9.2h-12.4c1 3.2 3.1 5.9 6.1 8.2 3-2.5 5.1-5.2 6.3-8.2z"/><path d="M794.5 32.1l1.5-1.9c2.2 1.4 4.4 2.9 6.4 4.4l-1.8 2.2c-2-1.7-4-3.3-6.1-4.7zM825 32.9c-4.6 5.4-9.7 9.7-15.3 13-.5-.8-1.2-1.7-1.9-2.5 6.5-3.3 11.8-7.8 15.9-13.3h3.7l-.6.9c3.9 5.3 9.1 9.1 15.6 11.6-.7.9-1.3 1.9-1.9 2.9-6.7-3.2-11.9-7.4-15.5-12.6zM830.2 53.6c3.3 2.9 6.2 5.7 8.5 8.3l-2.2 2c-.7-.8-1.6-1.8-2.5-2.8-5.7.3-11.5.7-17.4 1.2-1 .1-1.9.3-2.9.8l-1.5-2.8c1.1-.4 2.1-1 2.8-1.6 2-1.9 3.9-4.2 5.7-6.8h-11.4v-2.5h31.4v2.5h-16.5c-2.3 2.9-4.6 5.5-6.8 7.8 5-.3 9.8-.5 14.4-.7-1-1.1-2.2-2.2-3.5-3.5l1.9-1.9z"/><path d="M815.5 42.1h18.9v2.5h-18.9zM858.4 47.3h2.8c0 1.2 0 2.6-.1 4-.1 1-.2 2-.4 2.8 4.9 1.9 10.3 4.3 16.1 7l-1.5 2.6c-4.4-2.3-9.6-4.7-15.5-7.2-.4.8-.9 1.5-1.6 2.2-2.6 2.5-7.1 4.2-13.4 5.2-.4-1-.9-1.8-1.5-2.6 6.4-1 10.6-2.5 12.7-4.5 1.4-1.3 2.2-3.2 2.3-5.6.1-1.4.2-2.7.1-3.9z"/><path d="M846.6 43.9h26.8v12.5h-2.7V46.3h-21.3v10.3h-2.8M848.5 31.3h23v10.6h-2.7v-1.3h-17.5v1.3h-2.7V31.3zm20.3 7v-4.6h-17.5v4.6h17.5zM896.7 32.4l-.4 19h-2.7l-.4-19"/><ellipse cx="895" cy="57.1" rx="2.2" ry="2.2"/></g></svg>