<svg xmlns="http://www.w3.org/2000/svg" xmlns:xlink="http://www.w3.org/1999/xlink" width="100" height="100"><circle fill="#FB011F" cx="59.137" cy="58.19" r="31.819"/><circle fill="#FFF" cx="59.137" cy="58.19" r="28.425"/><defs><circle id="a" cx="59.137" cy="58.19" r="28.425"/></defs><clipPath id="b"><use xlink:href="#a" overflow="visible"/></clipPath><g clip-path="url(#b)"><path fill="#050000" d="M53.922 45.46h14.611v17.251H53.922z"/><path fill="#F5BFA5" d="M69.432 61.305c-4.193-.474-6.258-1.712-6.611-1.942h-7.465c-.354.23-2.418 1.469-6.611 1.942 0 0-7.989.3-7.767 14.785 0 0 6.014 2.713 18.109 2.69 12.098.022 18.109-2.69 18.109-2.69.226-14.486-7.764-14.785-7.764-14.785z"/><path fill="#C9A497" d="M49.902 65.465s7.455-1.426 9.234 4.082c0 0 .873-4.754 8.17-4.281l.506 5.037-18.638-.264.728-4.574z"/><path fill="#CD1E39" d="M68.354 66.03s2.713 1.641 2.432 5.149h-2.432V66.03z"/><path fill="#CD1E39" d="M49.902 65.465s6.299-.953 9.162 4.838c0 0 2.848-6.036 9.289-4.272.229.063.998 1.332 1.227 1.435l-.418 1.201 1.898 3.262H47.432c0-.002.296-5.773 2.47-6.464zM67.307 60.466s-.514 4.029 0 4.325h.512s.299-4.186.727-4.132l-1.239-.193z"/><path fill="#F5BFA5" d="M55.277 55.334h7.621v5.545h-7.621z"/><path fill="#C9A497" d="M55.277 56.915a7.895 7.895 0 0 0 1.012.99c.008.008.016.013.023.021.086.061.172.123.26.183.137.09.271.182.412.264.201.122.408.239.619.344.068.024.27.108.33.128.205.071.41.14.621.195.215.056.43.111.648.154-.057-.011.576.095.426.083a11.914 11.914 0 0 0 2.211.058c.07-.004.402-.054.436-.054.211-.044.418-.104.623-.169v-3.775h-7.621V56.9c.022.031.028.043 0 .015z"/><path fill="#F5BFA5" d="M66.58 46.965c0 5.628-3.33 10.194-7.436 10.194s-7.436-4.564-7.436-10.194c0-5.629 3.33-9.157 7.436-9.157s7.436 3.528 7.436 9.157z"/><path fill="#C9A497" d="M56.801 56.267c-2.73-1.229-3.584-4.981-3.936-7.896-.328-2.741 1.146-6.683 2.885-8.849.604-.75 1.451-1.154 2.307-1.627-3.59.567-6.348 3.948-6.348 9.071 0 5.628-.143 9.633 3.963 9.633 1.193 0 2.473 1.243 3.473.559-1.557.052-.428-.034-2.344-.891z"/><path fill="#3B2314" d="M55.105 39.315c.791 1.288 2.641-.029 4.139.198 4.152.63 5.447 4.13 7.234 7.202.305.521.629 1.108.959 1.453.289 2.537.438 5.763.318 9.869 0 0 .338 7.298-3.305 11.363 0 0 4.711-.733 6.07-10.187 0 0 .537-6.855-.686-16.608 0 0 .002-.065-.002-.18.053-1.938-.764-4.276-1.645-5.639-.643-.995-1.385-1.937-2.26-2.738-3.059-2.789-10.033-2.954-12.01 1.37-1.502 1.06-6.614 5.555-3.917 16.166.645 2.531 1.733 5.41 3.42 8.672l2.143-.856.121-3.269c.005.001-7.133-7.498-.579-16.816"/><path fill="#160603" d="M55.02 39.072c.137-.087.279-.163.426-.234.146-.074.295-.137.447-.2.15-.066.305-.112.459-.167.158-.051.314-.093.473-.141.16-.039.32-.071.482-.104.162-.03.326-.048.492-.074.162-.028.33-.025.494-.039.084-.007.168-.011.252-.011l.248.008c.168.008.336.004.502.031l.5.062c.166.033.328.078.492.116.166.035.326.092.484.151.156.061.32.106.475.179.15.074.305.147.455.224.154.071.293.168.436.262l.422.279.02.013.027.029c.143.154.275.3.408.456.131.153.264.306.385.466.123.161.25.315.369.482l.352.494c.111.169.221.341.328.513.113.169.205.352.303.534.09.184.199.354.271.553.078.193.16.385.232.579l.213.527.229.544.232.543c.078.182.158.361.24.54l.248.537c.084.18.172.354.262.528.088.178.186.35.281.521l.156.252.17.242c-.074-.067-.148-.133-.219-.204l-.205-.222a10.946 10.946 0 0 1-.371-.471c-.121-.163-.23-.329-.342-.495-.109-.167-.219-.334-.32-.508-.205-.344-.406-.69-.594-1.042l-.277-.531-.135-.267-.066-.136-.031-.068-.018-.034-.008-.016-.006-.009v-.002l-.01-.024c-.084-.169-.16-.341-.24-.511-.07-.173-.184-.333-.275-.498-.098-.165-.191-.331-.309-.49l-.32-.48-.348-.467c-.113-.156-.24-.304-.359-.457-.119-.154-.248-.299-.371-.451-.123-.148-.254-.297-.377-.438l.047.042-.379-.257c-.125-.088-.25-.179-.389-.241-.135-.07-.268-.146-.4-.22-.135-.072-.279-.119-.42-.182-.141-.059-.281-.119-.43-.156l-.441-.13-.451-.091c-.15-.039-.305-.043-.459-.066l-.23-.025c-.076-.007-.156-.004-.232-.011-.156-.002-.313-.022-.469-.012-.156.005-.314.005-.471.017l-.471.042c-.154.023-.313.043-.469.068-.156.034-.314.055-.469.093a9.352 9.352 0 0 0-.467.115c-.16.039-.31.087-.464.14z"/><path fill="#2D1B16" d="M53.271 36.161s-9.134 6.749.779 23.914l1.225-.491c.002-.001-10.059-13.07-2.004-23.423zM55.02 35.697s.246-.192.723-.46c.24-.132.535-.292.885-.442.176-.079.367-.153.566-.232a9.64 9.64 0 0 1 .648-.216c.225-.071.467-.129.719-.19.125-.032.254-.05.387-.077a8.383 8.383 0 0 1 2.15-.116l.461.045.465.085c.158.023.313.069.467.112l.232.065.117.033.115.043c.15.06.305.119.459.177.152.061.295.143.443.217l.221.113c.072.039.141.086.211.13l.418.268c.527.399 1.029.835 1.43 1.337.104.126.209.246.307.369l.268.39c.084.13.178.255.256.389.074.132.146.266.223.398l.215.393.178.398c.113.265.238.516.318.778l.258.749c.066.246.125.486.186.714.055.229.123.443.154.657.035.211.07.409.104.597.029.189.068.362.086.526l.045.45c.027.271.041.484.055.631l.014.223-.074-.212c-.045-.139-.117-.34-.197-.598-.041-.129-.086-.271-.137-.425l-.176-.495c-.131-.352-.262-.75-.443-1.171-.086-.211-.174-.431-.271-.657-.104-.219-.213-.446-.324-.682-.102-.236-.238-.464-.367-.701-.064-.118-.131-.238-.195-.358-.072-.114-.148-.229-.223-.347l-.227-.353c-.078-.118-.168-.227-.252-.341-.086-.113-.17-.227-.258-.34-.094-.104-.188-.212-.283-.319-.373-.435-.813-.809-1.27-1.152l-.361-.234c-.059-.039-.115-.082-.178-.115l-.191-.099-.188-.099c-.064-.032-.123-.07-.189-.095l-.391-.165c-.529-.189-1.068-.346-1.609-.413a8.914 8.914 0 0 0-1.584-.083c-.508.016-.994.059-1.441.13-.895.138-1.633.344-2.148.499-.256.082-.459.144-.596.196a32.92 32.92 0 0 0-.211.075z"/><path fill="#2D1B16" d="M54.646 37.194s.225-.193.672-.464c.223-.134.5-.292.83-.448a9.26 9.26 0 0 1 1.146-.446 7.783 7.783 0 0 1 1.441-.316 6.709 6.709 0 0 1 1.678-.01c.578.07 1.186.213 1.752.471l.217.092c.07.034.139.073.207.111.141.077.277.149.412.233.256.181.529.347.76.562.117.104.24.205.354.315l.318.339.162.17c.051.058.094.121.143.182l.279.364c.096.121.172.251.252.377.08.127.158.255.236.381l.059.096.051.098.1.194c.066.128.131.26.195.387.066.126.121.256.174.384.051.13.104.257.154.384.049.128.105.251.146.378.039.128.08.252.117.375.041.124.078.246.115.366.035.119.076.237.102.355l.156.681.072.32c.018.105.033.209.051.309l.088.572c.061.355.078.672.1.931.021.256.031.462.041.599l.01.213-.066-.203c-.041-.132-.107-.326-.18-.572-.076-.246-.16-.544-.281-.88-.057-.169-.115-.35-.18-.539-.029-.094-.061-.19-.094-.29a29.68 29.68 0 0 0-.115-.298 68.899 68.899 0 0 0-.238-.634c-.082-.22-.184-.437-.281-.665l-.146-.343c-.051-.118-.113-.228-.17-.344l-.174-.349c-.057-.118-.113-.237-.186-.35-.066-.114-.135-.229-.203-.344l-.1-.177-.053-.086-.057-.085c-.076-.11-.152-.221-.232-.333-.078-.112-.148-.23-.238-.332l-.258-.319c-.045-.051-.086-.107-.133-.159l-.141-.147-.283-.296c-.1-.095-.207-.179-.309-.268-.195-.192-.428-.329-.645-.492-.113-.072-.232-.134-.346-.204-.059-.034-.117-.07-.174-.099l-.184-.083c-.121-.053-.236-.119-.361-.162l-.371-.131c-.123-.045-.252-.069-.377-.103l-.188-.05-.191-.033c-.125-.021-.25-.053-.377-.061a33.417 33.417 0 0 1-.375-.04c-.125-.012-.248-.011-.371-.015a3.175 3.175 0 0 0-.365 0 8.885 8.885 0 0 0-1.363.129c-.424.063-.809.161-1.148.249a13.483 13.483 0 0 0-1.44.472l-.196.081z"/><path fill="#343E4A" d="M77.529 87.254c0 .681-.756 1.232-1.688 1.232H41.786c-.932 0-1.688-.552-1.688-1.232l-1.502-16.948c0-.681.755-1.233 1.688-1.233h37.705c.934 0 1.688.553 1.688 1.233l-2.148 16.948z"/><path opacity=".2" fill="#FFF" d="M67.809 74.984c.803.513 1.67.829 2.576 1.108 1.039.321 2.105.603 3.193.693.934.077 1.969.095 2.854-.258a4.12 4.12 0 0 0 1.105-.666l.533-4.215c0-.259-.287-.467-.641-.467H65c.262 1.582 1.498 2.969 2.809 3.805z"/><path fill="#1F262D" d="M76.418 83.072c-1.961.954-4.102 1.22-6.264 1.215-2.676-.008-5.328-.436-7.914-1.109-2.43-.635-4.949-1.314-7.229-2.387-3.787-1.781-7.205-4.709-9.048-8.522-.5-1.032-.865-2.092-1.054-3.197h-4.626c-.932 0-1.688.552-1.688 1.233l1.502 16.949c0 .679.756 1.231 1.688 1.231h34.056c.932 0 1.688-.553 1.688-1.231l.674-5.315a9.88 9.88 0 0 1-1.785 1.133z"/><path fill="#CD1E39" d="M50.416 60.663s.514 5 0 5.367h-.513s-.295-5.192-.728-5.128l1.241-.239z"/></g><defs><circle id="c" cx="59.137" cy="58.19" r="28.425"/></defs><clipPath id="d"><use xlink:href="#c" overflow="visible"/></clipPath><path clip-path="url(#d)" fill="#3B2314" d="M49.949 51.362s1.645 7.979-1.833 12.037c0 0 2.844-2.528 3.122-5.963 0 .001.227-2.988-1.289-6.074z"/><defs><circle id="e" cx="59.137" cy="58.19" r="28.425"/></defs><clipPath id="f"><use xlink:href="#e" overflow="visible"/></clipPath><path clip-path="url(#f)" fill="#3B2314" d="M50.881 55.344s1.502 6.159.594 8.805c0 0 1.973-4.106-.436-9.396l-.158.591z"/><g><defs><circle id="g" cx="59.137" cy="58.19" r="28.425"/></defs><clipPath id="h"><use xlink:href="#g" overflow="visible"/></clipPath><path clip-path="url(#h)" fill="#3B2314" d="M70.268 48.131s1.789 11.741 4 13.794c0 .001-4.108-3.001-4-13.794z"/></g><g><g fill="#1F262D"><path d="M58.213 77.471c.143 0 .27.021.383.061a.991.991 0 0 1 .291.157.727.727 0 0 1 .186.234.849.849 0 0 1 .086.27.95.95 0 0 1-.033.396c-.041.127-.1.247-.184.36-.08.114-.176.226-.289.331-.111.103-.24.202-.383.294-.145.089-.295.17-.449.245a6.299 6.299 0 0 1-.99.384c-.17.051-.332.091-.488.12-.006.121-.012.23-.02.331a.97.97 0 0 0 .023.298.895.895 0 0 0 .092.324.766.766 0 0 0 .17.218.59.59 0 0 0 .217.128c.08.022.152.037.225.037a1.214 1.214 0 0 0 .622-.181 3.552 3.552 0 0 0 .642-.473c.102-.096.205-.195.307-.299.104-.106.201-.214.293-.322.09-.112.184-.22.273-.33.092-.11.176-.221.252-.331.018-.021.037-.044.059-.065a.118.118 0 0 1 .094-.04c.01 0 .027.012.049.028.021.02.029.041.021.062a.617.617 0 0 1-.076.164 2.116 2.116 0 0 1-.189.277l-.281.354c-.104.129-.219.26-.35.39a8.031 8.031 0 0 1-.404.375c-.141.12-.287.226-.441.315s-.309.159-.463.21c-.154.05-.313.077-.471.077-.18 0-.355-.043-.525-.123a1.39 1.39 0 0 1-.453-.336 1.912 1.912 0 0 1-.334-.512 2.263 2.263 0 0 1-.19-.989c.006-.116.016-.229.035-.338a.716.716 0 0 0-.096.133.496.496 0 0 1-.1.121.147.147 0 0 1-.055.044.11.11 0 0 1-.057.015.177.177 0 0 1-.063-.052c-.016-.026-.021-.042-.012-.053a5.08 5.08 0 0 1 .358-.569c.092-.12.195-.248.313-.384.119-.134.246-.268.379-.396.135-.131.281-.257.443-.377.16-.118.326-.224.494-.313.17-.09.346-.16.531-.211.179-.049.368-.068.558-.059zm.084.18c-.111 0-.217.024-.328.075s-.217.118-.322.202c-.104.087-.203.183-.301.293s-.189.229-.279.354c-.09.125-.172.257-.244.397a8.67 8.67 0 0 0-.197.404 3.55 3.55 0 0 0-.148.382c-.039.128-.07.239-.086.339.148-.029.289-.07.428-.12a3.385 3.385 0 0 0 .805-.42c.123-.094.238-.184.348-.288.107-.099.203-.204.289-.313.088-.109.16-.222.217-.328.057-.111.098-.22.127-.326a.788.788 0 0 0 .021-.308.45.45 0 0 0-.039-.135.382.382 0 0 0-.179-.177.26.26 0 0 0-.112-.031z"/><path d="M62.912 74.334c.158-.01.324.01.494.059.17.051.33.127.479.234.15.104.279.239.389.405.109.164.18.359.207.578.039.24.018.472-.066.698a1.7 1.7 0 0 1-.383.608 2.54 2.54 0 0 1-.617.466c-.24.129-.496.225-.768.284.076.141.164.281.262.42.098.142.186.279.27.421.082.139.156.283.225.437.07.15.113.299.131.449.014.191.01.372-.014.548a1.966 1.966 0 0 1-.363.908 2.355 2.355 0 0 1-.699.654 2.457 2.457 0 0 1-.889.331 2.94 2.94 0 0 1-.477.038c-.281 0-.525-.043-.736-.128a1.615 1.615 0 0 1-.539-.345 1.794 1.794 0 0 1-.516-1.03 1.087 1.087 0 0 1 .086-.697c.107-.226.27-.438.486-.637.215-.2.469-.393.764-.579.291-.185.607-.362.945-.531-.211-.251-.379-.501-.504-.751s-.217-.51-.268-.779a1.21 1.21 0 0 1-.016-.405 1.54 1.54 0 0 1 .113-.385c.055-.123.125-.241.211-.351.088-.11.184-.214.285-.311.104-.094.219-.18.344-.255s.254-.138.383-.187c.127-.05.26-.09.391-.12a1.56 1.56 0 0 1 .39-.047zm-1.195 3.843c-.277.111-.533.24-.771.392a2.728 2.728 0 0 0-.604.51c-.166.189-.295.4-.381.63-.088.231-.119.48-.096.752.008.16.049.312.125.457a1.337 1.337 0 0 0 .677.645c.154.065.32.093.498.082.328-.019.594-.084.795-.193a1.33 1.33 0 0 0 .467-.413c.109-.166.18-.34.213-.525a2.27 2.27 0 0 0 .033-.533 2.025 2.025 0 0 0-.121-.48 3.318 3.318 0 0 0-.223-.473 6.278 6.278 0 0 0-.612-.851zm.791-.646c.23-.089.438-.2.627-.331a2.06 2.06 0 0 0 .48-.441 1.63 1.63 0 0 0 .283-.549c.063-.2.078-.416.049-.645a1.003 1.003 0 0 0-.109-.413 1.152 1.152 0 0 0-.553-.533.787.787 0 0 0-.334-.076c-.209 0-.395.046-.559.138a1.185 1.185 0 0 0-.402.345 1.52 1.52 0 0 0-.229.457 1.15 1.15 0 0 0-.047.473c.027.142.068.281.127.421.057.141.123.277.193.413s.15.265.234.389c.087.125.168.243.24.352z"/></g><g fill="#FFF"><path d="M57.535 77.471c.141 0 .268.021.383.061a.991.991 0 0 1 .291.157.721.721 0 0 1 .184.234.806.806 0 0 1 .088.27.95.95 0 0 1-.035.396c-.039.127-.1.247-.182.36a2.322 2.322 0 0 1-.674.625c-.143.089-.293.17-.447.245a7.18 7.18 0 0 1-.486.211 6.257 6.257 0 0 1-.504.173 4.797 4.797 0 0 1-.488.12 8.59 8.59 0 0 1-.021.331c-.006.099 0 .199.023.298a.936.936 0 0 0 .092.324.844.844 0 0 0 .17.218c.066.06.141.103.219.128.08.022.152.037.225.037a1.244 1.244 0 0 0 .622-.181 3.768 3.768 0 0 0 .64-.473c.101-.096.207-.195.309-.299a8.7 8.7 0 0 0 .293-.322c.088-.112.182-.22.273-.33.09-.11.176-.221.252-.331.018-.021.037-.044.059-.065a.118.118 0 0 1 .094-.04c.01 0 .027.012.049.028.021.02.029.041.021.062a.693.693 0 0 1-.076.164 2.336 2.336 0 0 1-.189.277l-.281.354c-.104.129-.221.26-.35.39a8.08 8.08 0 0 1-.406.375c-.139.12-.287.226-.441.315s-.307.159-.463.21a1.5 1.5 0 0 1-.471.077c-.18 0-.354-.043-.523-.123a1.42 1.42 0 0 1-.455-.336 1.906 1.906 0 0 1-.332-.512 2.201 2.201 0 0 1-.19-.989c.006-.116.016-.229.033-.338a.963.963 0 0 0-.096.133.47.47 0 0 1-.098.121.164.164 0 0 1-.055.044.118.118 0 0 1-.059.015.156.156 0 0 1-.061-.052c-.016-.026-.021-.042-.012-.053.031-.06.076-.14.135-.239.057-.1.131-.212.223-.33a6.378 6.378 0 0 1 .692-.78c.135-.131.283-.257.443-.377.16-.118.324-.224.492-.313.172-.09.348-.16.531-.211.18-.049.368-.068.559-.059zm.082.18c-.111 0-.219.024-.328.075s-.215.118-.32.202c-.104.087-.205.183-.303.293s-.188.229-.279.354a2.9 2.9 0 0 0-.242.397c-.072.14-.141.275-.199.404a3.015 3.015 0 0 0-.234.721c.148-.029.291-.07.43-.12.137-.05.275-.11.412-.18a3.1 3.1 0 0 0 .391-.24c.125-.094.24-.184.348-.288a2.472 2.472 0 0 0 .508-.641c.057-.111.096-.22.125-.326a.83.83 0 0 0 .023-.308.452.452 0 0 0-.111-.239.326.326 0 0 0-.109-.073.257.257 0 0 0-.112-.031z"/><path d="M62.232 74.334c.16-.01.324.01.496.059.17.051.33.127.479.234a1.5 1.5 0 0 1 .387.405c.111.164.18.359.207.578.041.24.018.472-.064.698a1.7 1.7 0 0 1-.383.608c-.174.18-.379.335-.619.466a2.913 2.913 0 0 1-.766.284c.076.141.164.281.262.42.098.142.186.279.268.421.082.139.156.283.227.437.07.15.111.299.131.449.012.191.008.372-.016.548a1.976 1.976 0 0 1-.361.908 2.355 2.355 0 0 1-.699.654 2.474 2.474 0 0 1-.891.331 2.899 2.899 0 0 1-.475.038c-.283 0-.527-.043-.738-.128a1.615 1.615 0 0 1-.539-.345 1.787 1.787 0 0 1-.35-.49 1.645 1.645 0 0 1-.164-.54 1.074 1.074 0 0 1 .086-.697c.107-.226.268-.438.484-.637.217-.2.469-.393.764-.579.293-.185.609-.362.947-.531a3.855 3.855 0 0 1-.504-.751 2.99 2.99 0 0 1-.27-.779 1.209 1.209 0 0 1-.014-.405c.02-.131.057-.259.111-.385.055-.123.127-.241.213-.351.088-.11.182-.214.285-.311.102-.094.217-.18.344-.255.125-.075.254-.138.381-.187.129-.05.26-.09.391-.12.131-.033.26-.047.39-.047zm-1.193 3.843c-.277.111-.533.24-.771.392a2.711 2.711 0 0 0-.605.51 2.07 2.07 0 0 0-.381.63c-.084.231-.117.48-.096.752.01.16.051.312.125.457.07.145.164.273.279.382.113.111.248.197.4.263s.32.093.498.082c.326-.019.592-.084.793-.193a1.32 1.32 0 0 0 .469-.413c.109-.166.18-.34.213-.525.031-.185.041-.363.031-.533a2.12 2.12 0 0 0-.119-.48 3.82 3.82 0 0 0-.223-.473 5.827 5.827 0 0 0-.613-.851zm.791-.646c.229-.089.438-.2.627-.331.189-.129.35-.276.479-.441.131-.166.225-.349.285-.549.063-.2.076-.416.049-.645a1.005 1.005 0 0 0-.111-.413c-.066-.125-.146-.233-.242-.323s-.199-.16-.311-.21a.778.778 0 0 0-.332-.076c-.209 0-.396.046-.561.138a1.16 1.16 0 0 0-.4.345 1.5 1.5 0 0 0-.23.457 1.148 1.148 0 0 0-.045.473c.027.142.068.281.127.421a4.413 4.413 0 0 0 .427.802c.084.125.166.243.238.352z"/></g></g><g><path fill="#ECAF92" d="M58.604 54.851s.008.004.016.005l.039.008c.033.009.082.015.141.024.029.005.061.007.094.013l.105.008c.035.005.072.005.113.008h.113c.039 0 .078-.003.115-.003l.113-.009c.035-.007.07-.009.104-.012s.066-.009.096-.015c.029-.004.057-.004.082-.011.023-.004.043.107.061.104.035-.004.057.105.057.105h.002c.016 0 .029-.104.029-.089.004.014-.004-.034-.012-.028 0 0-.018-.019-.051-.001-.033.015-.08.027-.139.047-.027.011-.061.018-.096.026-.035.01-.072.017-.111.025l-.119.017a1.105 1.105 0 0 1-.127.007c-.043 0-.086 0-.127-.002-.043-.005-.084-.009-.123-.018a.517.517 0 0 1-.113-.026.773.773 0 0 1-.096-.031.665.665 0 0 1-.139-.068l-.039-.025-.012-.009a.036.036 0 0 1-.004-.042c.004-.006.018-.01.028-.008z"/><path fill="#C8374C" d="M61.443 53.783s-.068.104-.141.113c-.648.097-1.5-.12-1.645-.113-.145.005-.281.084-.4.089-.121-.005-.256-.084-.398-.089-.146-.007-.998.21-1.648.113-.068-.01-.137-.113-.137-.113-.129.005-.162.057-.162.057.406.324 1.186.423 1.381.431.195.011-.045-.037.074-.037.102 0-.229.028-.229.036v.001-.001c1.357-.009.791-.036.891-.036.119 0 .717.047.912.037.195-.009 1.117-.106 1.521-.431.001 0 .108-.052-.019-.057z"/></g><g><path fill="#FFF" d="M63.006 46.271s-1.334.329-1.324 1.506c0 0 .729.466 1.768.324 1.041-.142 1.227-1.061 1.227-1.061s-.427-.9-1.671-.769z"/><circle fill="#474747" cx="63.141" cy="47.133" r=".912"/><path fill="#FFF" d="M62.17 46.785s.508.014.455.099c-.051.086-.449.333-.494.25-.045-.085-.033-.314.039-.349z"/><circle fill="#2E2E2E" cx="63.141" cy="47.133" r=".497"/><path fill="#2B2B2B" d="M61.592 47.554s.496-1.099 1.557-1.204c1.051-.105 1.391.813 1.391.813l-.055.357s.268-.137.443-.455c0 0-.453-1.145-1.756-1.045-1.49.115-1.58 1.534-1.58 1.534z"/><g><path fill="#FFF" d="M55.387 46.271s1.336.329 1.324 1.506c0 0-.729.466-1.768.324-1.039-.142-1.227-1.061-1.227-1.061s.427-.9 1.671-.769z"/><path fill="#474747" d="M55.256 46.22a.913.913 0 1 1-.003 1.827.913.913 0 0 1 .003-1.827z"/><path fill="#FFF" d="M54.301 46.785s.504.014.453.099c-.051.086-.449.333-.494.25-.045-.085-.035-.314.041-.349z"/><path fill="#2E2E2E" d="M54.758 47.134a.495.495 0 1 0 .99-.003.495.495 0 0 0-.99.003z"/><path fill="#2B2B2B" d="M56.801 47.554s-.496-1.099-1.555-1.204c-1.053-.105-1.391.813-1.391.813l.055.357s-.268-.137-.443-.455c0 0 .453-1.145 1.756-1.045 1.488.115 1.578 1.534 1.578 1.534z"/></g><path fill="#2B2B2B" d="M60.826 45.88s.215.112.766.084c.549-.028 1.748-.672 2.666-.721.918-.046 1.191 0 1.191 0s-.521-.366-1.396-.322c-.721.038-2.194.081-3.227.959zM57.775 45.88s-.215.112-.766.084c-.551-.028-1.75-.672-2.666-.721-.918-.046-1.189 0-1.189 0s.52-.366 1.395-.322c.721.038 2.191.081 3.226.959z"/></g><g><path fill="#D59172" d="M59.174 48.533s.195.138.391.407c.199.268.4.664.49 1.11.033.227.057.458.02.687a1.129 1.129 0 0 1-.086.325.783.783 0 0 1-.154.272.602.602 0 0 1-.201.174.36.36 0 0 1-.18.074c-.107.021-.162.021-.162.021l.086-.132a.673.673 0 0 0 .107-.314c.025-.121.01-.275-.006-.44a6.995 6.995 0 0 0-.09-.537c-.072-.378-.15-.776-.184-1.093-.041-.316-.031-.554-.031-.554z"/></g><path fill="#FF486F" d="M30.472 9.991c11.834 0 21.428 9.594 21.428 21.428 0 4.716-1.527 9.078-4.109 12.616l.785 8.335-8.528-1.779a21.344 21.344 0 0 1-9.576 2.255c-11.834 0-21.428-9.594-21.428-21.427-.001-11.834 9.593-21.428 21.428-21.428z"/><g fill="#FFF"><path d="M19.716 27.671v-1.217a12.909 12.909 0 0 0 1.488-1.849H19.49v-1.128a8.299 8.299 0 0 0 1.443-3.247h1.623c-.421 1.323-.992 2.421-1.714 3.292.391 0 .691-.015.902-.045.181-.36.315-.736.406-1.127h1.489c-.451 1.714-1.248 3.066-2.391 4.059.751 0 1.489-.075 2.21-.226v1.173c-1.142.21-2.39.315-3.742.315zm-.136 2.12v-1.173c1.534.03 2.796-.09 3.789-.361v1.127a17.536 17.536 0 0 1-3.789.407zm4.105-7.261v-1.083h.992v-.631a6.04 6.04 0 0 1-.045-.586h1.713c-.03.391-.045.797-.045 1.218h.992v-.992h1.398v.992h.902v1.083h-3.248c0 .481.015.947.045 1.398h3.473v1.083H26.48c.029.512.09.992.18 1.443a8.3 8.3 0 0 1 .135.767 8.388 8.388 0 0 0 1.263-1.624h1.624c-.783 1.414-1.609 2.39-2.48 2.932.3.571.631.856.992.856.451.03.661-.21.631-.722h1.083c.029 1.233-.542 1.834-1.714 1.804-.902.03-1.639-.391-2.21-1.263a.472.472 0 0 1-.181.09c-.872.3-1.624.556-2.255.767v-.992a10.697 10.697 0 0 0 1.94-.902 8.324 8.324 0 0 1-.361-1.443 50.349 50.349 0 0 1-.271-1.714h-1.443v-1.083h1.353c0-.27-.03-.691-.09-1.262.06.391.06.346 0-.136h-.991zM31.081 30.062v-1.127h3.878V20.23h1.849v3.067h3.879v1.173h-3.879v4.465h4.646v1.127H31.081zM19.58 39.181v-.947c1.383-.18 2.571-.406 3.563-.676a17.33 17.33 0 0 1-1.488-.947c-.451.18-.977.332-1.579.451v-.947c1.112-.361 1.969-.977 2.571-1.849h1.85c-.09.18-.196.361-.316.541h4.375v.992c-.662.722-1.369 1.293-2.12 1.714.631.241 1.773.481 3.428.722v.947c-2.225-.24-3.909-.556-5.051-.947-1.144.39-2.887.706-5.233.946zm.226-4.555v-1.759h3.924v-.632h2.029v.632h3.879v1.759h-1.624v-.676h-6.54v.677h-1.668zm1.128 7.757v-3.337h7.577v1.894c.03.992-.421 1.473-1.353 1.443h-6.224zm1.668-.992h3.743c.391.03.571-.135.542-.496v-.767h-4.285v1.263zm.586-5.592l-.09.09c.542.391 1.098.737 1.668 1.037a9.547 9.547 0 0 0 1.669-1.127h-3.247zM31.081 42.609v-1.127c.36-.48.525-1.308.496-2.48v-6.449h3.518v8.659c.03.872-.421 1.292-1.353 1.263h-.857v-.992h.496c.3.03.436-.09.406-.361v-2.029h-.902c.03 1.562-.572 2.734-1.804 3.516zm1.804-9.02v1.713h.902v-1.713h-.902zm0 2.706v1.759h.902v-1.759h-.902zm4.6 6.269v-1.127c.33-.271.616-.542.856-.812a5.976 5.976 0 0 1-1.082-2.3v4.239H35.68v-9.922h5.321v1.714c.06 1.022-.451 1.503-1.533 1.443H38.25v-1.037h.631c.42.03.616-.15.586-.542v-.496h-2.21v2.616h3.833v1.037c-.18 1.293-.557 2.36-1.127 3.202.36.332.796.631 1.308.902v1.083a29.132 29.132 0 0 1-2.075-1.127c-.448.33-1.02.706-1.711 1.127zm2.119-5.187H37.26v.451h1.218c.15.542.36 1.082.631 1.624.27-.541.435-1.233.495-2.075z"/></g></svg>