<svg xmlns="http://www.w3.org/2000/svg" xmlns:xlink="http://www.w3.org/1999/xlink" width="900" height="250" viewBox="0 0 900 250"><path fill="#eee" d="M20.6 33.8h24.6v.8H20.6zM44.4 9.5h.8v24.3h-.8zM46 12h.8v24.3H46zM20.6 35.5H46v.8H20.6zm0 1.6h26.3v.8H20.6z"/><path d="M46.9 9.5v28.3H21.4s-2.6-.2-2.8-2.7c0 0 .2-2.2 2.8-2.2h23V5.5H21.2s-4.8-.2-4.7 4.8v24.8s-.2 4.4 4.4 4.4h27.6v-30h-1.6z" fill="#afafaf"/><path d="M32.6 23.3h-2.8v-.7c0-.9.2-1.7.5-2.3s.9-1.3 1.8-2 1.5-1.2 1.6-1.5c.3-.4.4-.8.4-1.2 0-.6-.2-1.1-.7-1.6-.5-.4-1.1-.6-2-.6-.8 0-1.5.2-2 .7-.5.5-.9 1.1-1.1 2.1l-2.9-.4c.1-1.3.6-2.5 1.7-3.4s2.4-1.4 4.1-1.4c1.8 0 3.2.5 4.3 1.4s1.6 2 1.6 3.3c0 .7-.2 1.3-.6 2-.4.6-1.2 1.5-2.5 2.5-.7.5-1.1 1-1.2 1.3-.2.4-.2 1-.2 1.8zm-2.8 4.2v-3.1h3.1v3.1h-3.1z" fill="#fff"/><path d="M107.6 21.4l-2.9-1.6s-1.8 2.4-3.5 3v4.9s.2.9-.7 1c0 0-.8.2-.7-1.1V16s.1-3-3.3-3.3c0 0-3.4.1-3.4 3.6v7.6s.2 1.1-.8 1c0 0-.8 0-.6-1v-1s-2.3-1.4-2.7-2.1l-3 7.6 5.9 11.1h12l1.1-4.1s.4-2-.1-4.1l-1.9-6.4 2.1 1.1s2.5 1 3.6-1c-.1 0 1.2-2.3-1.1-3.6zm-15.9-.2v-3l-.8.5s-1-.8-1.5-2.5l1.9-.8s-.5-1.2 0-2.9l-1.8-.8s.3-1.5 1.5-2.5l1.7 1.2s.3-.9 2.5-1.4l-.1-2s1.3-.5 3 0v2s1.5.5 2.3 1.4l1.7-1.1s1 .9 1.5 2.5l-1.8.9s.3 1.8 0 2.8l1.8 1s-.8 1.9-1.5 2.5l-.8-.6v3s4.7-2.7 3.9-8.5c0 0-.7-6.7-8.4-7.3 0 0-6.1-.4-8.4 5.5-.2-.1-2.6 6.3 3.3 10.1z" fill-rule="evenodd" clip-rule="evenodd" fill="#afafaf"/><path fill="#afafaf" d="M163.2 2l-3.6 3.9h11.6v28.8H182V2z"/><path fill="#fff" d="M166.1 10.9h8v1h-8zm-4 4h16v1h-16zm0 4h16v1h-16zm0 3.9h16v1h-16zm0 4h16v1h-16zm0 4h16v1h-16z"/><path fill="#fff" d="M143 43V12.5l6.2-6.7h22V43z"/><path fill="#afafaf" d="M169 8v32.7h-23.7V13.4l4.9-5.4z"/><path d="M296.3 16.3c-.2 0-1.2-1.2-1.2-1.2-.2-.8-2.9-.6-2.9-.6-1.7-.1-2.9.6-2.9.6-.7 1.1-2.9 0-2.9 0l-4.1-1.2c-2.7-1-1.7 7.1-1.7 7.1-.6 3.6 5.2 1.2 5.2 1.2 1.4.1 2.9-1.8 2.9-1.8.1 2.1 3.5 1.8 3.5 1.8 3.4 0 4.1-1.2 4.1-1.2.3 1 5.8 1.8 5.8 1.8 3 1.7 2.3-7.7 2.3-7.7-.9-2.4-8.1 1.2-8.1 1.2zm-3.8 8.7c.5 0 1-.4 1-1s-.4-1-1-1-1 .4-1 1 .5 1 1 1zm0 4c.5 0 1-.4 1-1s-.4-1-1-1-1 .4-1 1 .5 1 1 1zm0 4c.5 0 1-.4 1-1s-.4-1-1-1-1 .4-1 1 .5 1 1 1zm0 5c-5.6-7.2-8-15-8-15l-1 .4c4.2 12.1 9 16.6 9 16.6 5.4-4.3 9-16.6 9-16.6l-1-.4c-2 9.1-8 15-8 15zm-9-25.3l-2.3-2.4-11.6 5.9 1.2 1.8 9.9-5.3c-.1 0 1.8-.7 2.8 0zm20.4-2.4s2.3-5.5-11.1-5.3c0 0-11.9-.3-11.6 4.2 0 0-.7 4.4 11.4 3.8v-1s-14-.4-8-4c0 0 2.3-1.4 8.3-1.2 0 0 14.4.5 7.7 4.2 0 0-5.4 1.5-7 1v1h1s5.7.2 8.3-1.6l-1.3 1.3c.9-.8 2.9 0 2.9 0l9.9 5.3 1.2-1.8-11.7-5.9z" fill-rule="evenodd" clip-rule="evenodd" fill="#afafaf"/><g fill="#afafaf"><path d="M305.5 27.7c.2 0 .3 0 .4.1.1 0 .2.1.3.2.1.1.1.2.2.3 0 .1.1.2.1.3 0 .2 0 .3-.1.5s-.2.3-.3.4c-.1.1-.2.3-.4.4-.1.1-.3.2-.5.3l-.6.3c-.2.1-.4.2-.6.2s-.4.1-.6.2-.4.1-.6.1c0 .1 0 .3-.1.4s0 .2 0 .4 0 .3.1.4c0 .1.1.2.2.3s.2.1.2.1h.3c.1 0 .2 0 .4-.1s.3-.1.4-.2.3-.2.4-.2.3-.2.4-.3c.1-.1.3-.2.4-.4s.3-.2.4-.4.3-.3.4-.4.2-.3.3-.4c0 0 .1 0 .1-.1h.2v.1s-.1.1-.1.2-.2.2-.3.3-.2.3-.4.4c-.1.2-.3.3-.5.5s-.4.3-.5.4-.4.3-.6.4-.4.2-.6.2-.4.1-.6.1c-.2 0-.4 0-.6-.1s-.4-.2-.5-.4l-.3-.6c-.1-.2-.1-.5-.1-.8v-.4c0-.1.1-.3.1-.4 0 0-.1.1-.1.2s-.1.1-.1.1l-.1.1h-.1l-.1-.1v-.1c0-.1.1-.2.2-.3s.2-.2.3-.4.3-.3.4-.4l.5-.5c.2-.2.4-.3.6-.4s.4-.3.6-.4c.2-.1.4-.2.7-.2.4.1.6.1.8.1zm.1.2c-.1 0-.3 0-.4.1s-.3.1-.4.2-.3.2-.4.3l-.4.4c-.1.1-.2.3-.3.5-.1.2-.2.3-.3.5-.1.2-.2.3-.2.4s-.1.3-.2.4c.2 0 .4-.1.5-.1.2-.1.3-.1.5-.2s.3-.2.5-.3c.2-.1.3-.2.5-.3.1-.1.3-.2.4-.4.1-.1.2-.3.3-.4s.1-.3.2-.4.1-.2.1-.4V28s0-.1-.1-.1l-.1-.1c-.1.1-.2.1-.2.1z"/><path d="M311.7 24c.2 0 .4 0 .6.1s.4.1.5.3c.2.1.3.3.4.5.1.2.2.4.2.7 0 .3 0 .6-.2.8s-.3.5-.5.7c-.2.2-.5.4-.8.5-.3.2-.6.3-1 .3.1.2.2.3.3.5.1.2.2.3.3.5.1.2.1.3.2.5s.1.4.1.5c0 .2 0 .4-.1.6s-.1.4-.2.6c-.1.2-.2.3-.3.5s-.3.3-.4.4c-.2.1-.3.2-.5.3s-.4.2-.5.2-.4.1-.6.1h-.6c-.3 0-.6 0-.9-.1-.2-.1-.4-.2-.6-.4-.2-.2-.3-.4-.3-.6-.1-.2-.1-.4-.1-.6 0-.3 0-.6.2-.8.2-.3.4-.5.7-.7.3-.2.6-.5 1-.7l1.2-.6c-.2-.3-.4-.6-.5-.9-.1-.3-.2-.6-.2-.9v-.5c0-.2.1-.3.2-.4.1-.1.2-.3.3-.4l.4-.4c.1-.1.3-.2.4-.3.2-.1.3-.2.5-.2.2-.1.3-.1.5-.1h.3zm-2 4.5c-.3.1-.7.3-1 .5s-.6.4-.8.6c-.2.2-.4.5-.5.7s-.2.6-.2.9c0 .2 0 .4.1.5.1.2.2.3.3.4s.3.2.4.3.4.1.6.1c.4 0 .7-.1 1-.2s.5-.3.6-.5c.2-.2.3-.4.3-.6s.1-.4.1-.6c0-.2 0-.4-.1-.6s-.1-.4-.2-.6c-.1-.2-.2-.4-.3-.5-.1-.1-.2-.2-.3-.4zm1-.7c.3-.1.5-.2.8-.4.2-.2.5-.3.6-.5.2-.2.3-.4.4-.6.1-.2.2-.5.2-.8 0-.2 0-.3-.1-.5-.1-.1-.1-.3-.2-.4-.1-.1-.2-.2-.3-.2s-.3-.1-.4-.1c-.3 0-.5.1-.7.2s-.4.2-.5.4-.3.3-.3.5c-.1.2-.1.4-.1.6 0 .2 0 .3.1.5s.1.3.2.5.1.3.2.5c0 0 .1.1.1.3z"/></g><path fill="#eee" d="M20.6 78.8h24.6v.8H20.6zm23.8-24.3h.8v24.3h-.8zM46 57h.8v24.3H46zM20.6 80.5H46v.8H20.6zm0 1.6h26.3v.8H20.6z"/><path d="M46.9 54.5v28.3H21.4s-2.6-.2-2.8-2.7c0 0 .2-2.2 2.8-2.2h23V50.5H21.2s-4.8-.2-4.7 4.8v24.8s-.2 4.4 4.4 4.4h27.6v-30h-1.6z" fill="#fe4d57"/><path d="M32.6 68.3h-2.8v-.7c0-.9.2-1.7.5-2.3s.9-1.3 1.8-2 1.5-1.2 1.6-1.5c.3-.4.4-.8.4-1.2 0-.6-.2-1.1-.7-1.6s-1.1-.6-2-.6c-.8 0-1.5.2-2 .7-.5.5-.9 1.1-1.1 2.1l-2.9-.4c.1-1.3.6-2.5 1.7-3.4s2.4-1.4 4.1-1.4c1.8 0 3.2.5 4.3 1.4 1.1.9 1.6 2 1.6 3.3 0 .7-.2 1.3-.6 2-.4.6-1.2 1.5-2.5 2.5-.7.5-1.1 1-1.2 1.3-.2.4-.2 1-.2 1.8zm-2.8 4.2v-3.1h3.1v3.1h-3.1z" fill="#fff"/><path d="M107.6 66.4l-2.9-1.6s-1.8 2.4-3.5 3v4.9s.2.9-.7 1c0 0-.8.2-.7-1.1V61s.1-3-3.3-3.3c0 0-3.4.1-3.4 3.6v7.6s.2 1.1-.8 1c0 0-.8 0-.6-1v-1s-2.3-1.4-2.7-2.1l-3 7.6 5.9 11.1h12l1.1-4.1s.4-2-.1-4.1l-1.9-6.4 2.1 1.1s2.5 1 3.6-1c-.1 0 1.2-2.3-1.1-3.6zm-15.9-.2v-3l-.8.5s-1-.8-1.5-2.5l1.9-.8s-.5-1.2 0-2.9l-1.8-.8s.3-1.5 1.5-2.5l1.7 1.2s.3-.9 2.5-1.4l-.1-2s1.3-.5 3 0v2s1.5.5 2.3 1.4l1.7-1.1s1 .9 1.5 2.5l-1.8.9s.3 1.8 0 2.8l1.8 1s-.8 1.9-1.5 2.5l-.8-.6v3s4.7-2.7 3.9-8.5c0 0-.7-6.7-8.4-7.3 0 0-6.1-.4-8.4 5.5-.2-.1-2.6 6.3 3.3 10.1z" fill-rule="evenodd" clip-rule="evenodd" fill="#fe4d57"/><path fill="#fe4d57" d="M163.2 47l-3.6 3.9h11.6v28.8H182V47z"/><path fill="#fff" d="M166.1 55.9h8v1h-8zm-4 4h16v1h-16zm0 4h16v1h-16zm0 3.9h16v1h-16zm0 4h16v1h-16zm0 4h16v1h-16z"/><path fill="#fff" d="M143 88V57.5l6.2-6.7h22V88z"/><path fill="#fe4d57" d="M169 53v32.7h-23.7V58.4l4.9-5.4z"/><g fill="#fe4d57"><path d="M296.3 61.3c-.2 0-1.2-1.2-1.2-1.2-.2-.8-2.9-.6-2.9-.6-1.7-.1-2.9.6-2.9.6-.7 1.1-2.9 0-2.9 0l-4.1-1.2c-2.7-1-1.7 7.1-1.7 7.1-.6 3.6 5.2 1.2 5.2 1.2 1.4.1 2.9-1.8 2.9-1.8.1 2.1 3.5 1.8 3.5 1.8 3.4 0 4.1-1.2 4.1-1.2.3 1 5.8 1.8 5.8 1.8 3 1.7 2.3-7.7 2.3-7.7-.9-2.4-8.1 1.2-8.1 1.2zm-3.8 8.7c.5 0 1-.4 1-1s-.4-1-1-1-1 .4-1 1 .5 1 1 1zm0 4c.5 0 1-.4 1-1s-.4-1-1-1-1 .4-1 1 .5 1 1 1zm0 4c.5 0 1-.4 1-1s-.4-1-1-1-1 .4-1 1 .5 1 1 1zm0 5c-5.6-7.2-8-15-8-15l-1 .4c4.2 12.1 9 16.6 9 16.6 5.4-4.3 9-16.6 9-16.6l-1-.4c-2 9.1-8 15-8 15zm-9-25.3l-2.3-2.4-11.6 5.9 1.2 1.8 9.9-5.3c-.1 0 1.8-.7 2.8 0zm20.4-2.4s2.3-5.5-11.1-5.3c0 0-11.9-.3-11.6 4.2 0 0-.7 4.4 11.4 3.8v-1s-14-.4-8-4c0 0 2.3-1.4 8.3-1.2 0 0 14.4.5 7.7 4.2 0 0-5.4 1.5-7 1v1h1s5.7.2 8.3-1.6l-1.3 1.3c.9-.8 2.9 0 2.9 0l9.9 5.3 1.2-1.8-11.7-5.9z" fill-rule="evenodd" clip-rule="evenodd"/><path d="M305.5 72.7c.2 0 .3 0 .4.1.1 0 .2.1.3.2.1.1.1.2.2.3 0 .1.1.2.1.3 0 .2 0 .3-.1.5s-.2.3-.3.4c-.1.1-.2.3-.4.4-.1.1-.3.2-.5.3l-.6.3c-.2.1-.4.2-.6.2s-.4.1-.6.2-.4.1-.6.1c0 .1 0 .3-.1.4s0 .2 0 .4 0 .3.1.4c0 .1.1.2.2.3s.2.1.2.1h.3c.1 0 .2 0 .4-.1s.3-.1.4-.2.3-.2.4-.2.3-.2.4-.3c.1-.1.3-.2.4-.3l.4-.4.4-.4c.1-.1.2-.3.3-.4 0 0 .1 0 .1-.1h.2v.1s-.1.1-.1.2-.2.2-.3.3-.2.3-.4.4c-.1.2-.3.3-.5.5s-.4.3-.5.4-.4.3-.6.4-.4.2-.6.2-.4.1-.6.1c-.2 0-.4 0-.6-.1s-.4-.2-.5-.4l-.3-.6c-.1-.2-.1-.5-.1-.8v-.4c0-.1.1-.3.1-.4 0 0-.1.1-.1.2s-.1.1-.1.1l-.1.1h-.1l-.1-.1v-.1c0-.1.1-.2.2-.3s.2-.2.3-.4.3-.3.4-.4l.5-.5c.2-.2.4-.3.6-.4s.4-.3.6-.4c.2-.1.4-.2.7-.2h.8zm.1.2c-.1 0-.3 0-.4.1s-.3.1-.4.2-.3.2-.4.3l-.4.4c-.1.1-.2.3-.3.5-.1.2-.2.3-.3.5-.1.2-.2.3-.2.4s-.1.3-.2.4c.2 0 .4-.1.5-.1.2-.1.3-.1.5-.2s.3-.2.5-.3c.2-.1.3-.2.5-.3.1-.1.3-.2.4-.4.1-.1.2-.3.3-.4s.1-.3.2-.4.1-.2.1-.4V73s0-.1-.1-.1l-.1-.1c-.1.1-.2.1-.2.1z"/><path d="M311.7 69c.2 0 .4 0 .6.1s.4.1.5.3c.2.1.3.3.4.5.1.2.2.4.2.7 0 .3 0 .6-.2.8s-.3.5-.5.7c-.2.2-.5.4-.8.5-.3.2-.6.3-1 .3.1.2.2.3.3.5.1.2.2.3.3.5.1.2.1.3.2.5s.1.4.1.5c0 .2 0 .4-.1.6s-.1.4-.2.6c-.1.2-.2.3-.3.5s-.3.3-.4.4c-.2.1-.3.2-.5.3s-.4.2-.5.2-.4.1-.6.1h-.6c-.3 0-.6-.1-.9-.2-.2-.1-.4-.2-.6-.4-.2-.2-.3-.4-.3-.6-.1-.2-.1-.4-.1-.6 0-.3 0-.6.2-.8.2-.3.4-.5.7-.7.3-.2.6-.5 1-.7l1.2-.6c-.2-.3-.4-.6-.5-.9s-.2-.6-.2-.9v-.5c0-.2.1-.3.2-.4.1-.1.2-.3.3-.4l.4-.4c.2-.2.3-.2.4-.3.2-.1.3-.2.5-.2.2-.1.3-.1.5-.1s.1.1.3.1zm-2 4.5c-.3.1-.7.3-1 .5s-.6.4-.8.6c-.2.2-.4.5-.5.7s-.2.6-.2.9c0 .2 0 .4.1.5.1.2.2.3.3.4s.3.2.4.3.4.1.6.1c.4 0 .7-.1 1-.2s.5-.3.6-.5c.2-.2.3-.4.3-.6s.1-.4.1-.6c0-.2 0-.4-.1-.6s-.1-.4-.2-.6-.2-.4-.3-.5c-.1-.1-.2-.2-.3-.4zm1-.7c.3-.1.5-.2.8-.4.2-.2.5-.3.6-.5.2-.2.3-.4.4-.6.1-.2.2-.5.2-.8 0-.2 0-.3-.1-.5s-.1-.3-.2-.4c-.1-.1-.2-.2-.3-.2s-.3-.1-.4-.1c-.3 0-.5.1-.7.2s-.4.2-.5.4-.3.3-.3.5c-.1.2-.1.4-.1.6 0 .2 0 .3.1.5s.1.3.2.5.1.3.2.5c0 0 .1.1.1.3z"/></g><path d="M228.3 50.1c-14.3 1.5-16 13-16 13-1.2 22.8 21 18 21 18v-1c-1.3.3-7 0-7 0-15.6-.9-13-17-13-17 4.9-12.9 15-12 15-12 12 .3 15 12 15 12h1c-3.8-13.3-16-13-16-13z" fill="#fe4d57"/><path fill="#fe4d57" d="M227.3 51.1h2v30h-2z"/><path fill="#fe4d57" d="M213.3 65.1h31v1h-31z"/><path d="M227.3 51.1h-2c-12.4 16 0 30 0 30h2c-13.9-16.4 0-30 0-30zm4.2 0h-2.1s14.8 13.6 0 30h2.1s13.2-14 0-30z" fill="#fe4d57"/><path d="M239.3 56.1c-12.2 4.7-22 0-22 0l-1 1c14.6 5.3 24 0 24 0l-1-1zm-23 19.1l1 .9s9.8-4.2 22 0l1-.9s-9.4-4.7-24 0z" fill="#fe4d57"/><path d="M239.3 84.9c-.2 0-3.9-.1-7-3.3-3-3.2-4.4-8.1-4.1-14.7l.1-1.4 11.1-3.6.6.2c.3.1 8 2.7 8.7 2.9l1.2.4.1 1.3c.1.7 1.1 16.4-10.4 18.1h-.1l-.2.1z" fill-rule="evenodd" clip-rule="evenodd" fill="#fff"/><path d="M248 67c-.8-.3-8.7-2.9-8.7-2.9l-9.1 2.9c-.7 15.9 9.1 15.9 9.1 15.9C249.1 81.4 248 67 248 67z" fill="#fe4d57"/><path d="M239.3 73.7v7.6s5.1-.5 6.6-7.6h-6.6zm-7.4-.5h7.1v-7.6l-7.1 2.5v5.1z" fill-rule="evenodd" clip-rule="evenodd" fill="#f9f9f9"/><path d="M211.6 71.8S193 74.5 200 68.5c0 0 7-6.2 11.3-7.4v-1s-4.2 1.8-5.1 2.5c0 0-24.1 14.5 5.5 10.2l-.1-1zm34.2-18.7c-.6-.1-5.7.2-5.7.2l1 1c4.4-1.1 12.4 1.9 12.4 1.9 8.8 2.6-8.5 6.9-8.5 6.9l1 1c27.2-7.5-.2-11-.2-11z" fill="#fe4d57"/><path d="M228.3 5.1c-14.3 1.5-16 13-16 13-1.2 22.8 21 18 21 18v-1c-1.3.3-7 0-7 0-15.6-.9-13-17-13-17 4.9-12.9 15-12 15-12 12 .3 15 12 15 12h1c-3.8-13.3-16-13-16-13z" fill="#afafaf"/><path fill="#afafaf" d="M227.3 6.1h2v30h-2z"/><path fill="#afafaf" d="M213.3 20.1h31v1h-31z"/><path d="M227.3 6.1h-2c-12.4 16 0 30 0 30h2c-13.9-16.4 0-30 0-30zm4.2 0h-2.1s14.8 13.6 0 30h2.1s13.2-14 0-30z" fill="#afafaf"/><path d="M239.3 11.1c-12.2 4.7-22 0-22 0l-1 1c14.6 5.3 24 0 24 0l-1-1zm-23 19.1l1 .9s9.8-4.2 22 0l1-.9s-9.4-4.7-24 0z" fill="#afafaf"/><path d="M239.3 39.9c-.2 0-3.9-.1-7-3.3-3-3.2-4.4-8.1-4.1-14.7l.1-1.4 11.1-3.6.6.2c.3.1 8 2.7 8.7 2.9l1.2.4.1 1.3c.1.7 1.1 16.4-10.4 18.1h-.1l-.2.1z" fill-rule="evenodd" clip-rule="evenodd" fill="#fff"/><path d="M248 22c-.8-.3-8.7-2.9-8.7-2.9l-9.1 2.9c-.7 15.9 9.1 15.9 9.1 15.9C249.1 36.4 248 22 248 22z" fill="#afafaf"/><path d="M239.3 28.7v7.6s5.1-.5 6.6-7.6h-6.6zm-7.4-.5h7.1v-7.6l-7.1 2.5v5.1z" fill-rule="evenodd" clip-rule="evenodd" fill="#f9f9f9"/><path d="M211.6 26.8S193 29.5 200 23.5c0 0 7-6.2 11.3-7.4v-1s-4.2 1.8-5.1 2.5c0 0-24.1 14.5 5.5 10.2l-.1-1zm34.2-18.7c-.6-.1-5.7.2-5.7.2l1 1c4.4-1.1 12.4 1.9 12.4 1.9 8.8 2.6-8.5 6.9-8.5 6.9l1 1c27.2-7.5-.2-11-.2-11z" fill="#afafaf"/><path d="M40.3 189h-7.4c-2.1 0-3.7 1.6-3.7 3.6v10.8c0 2 1.7 3.6 3.7 3.6h7.4c2.1 0 3.7-1.6 3.7-3.6v-10.8c0-2-1.7-3.6-3.7-3.6z" fill="gray"/><path d="M31.5 196h-2.9c-.3 0-.5.4-.5 1s.2 1 .5 1h2.9c.3 0 .5-.4.5-1s-.2-1-.5-1zm0-5h-2.9c-.3 0-.5.4-.5 1s.2 1 .5 1h2.9c.3 0 .5-.4.5-1s-.2-1-.5-1zm0 10h-2.9c-.3 0-.5.4-.5 1s.2 1 .5 1h2.9c.3 0 .5-.4.5-1 0-.5-.2-1-.5-1zm5.8-4.4c1.2 0 2.2-1 2.2-2.2 0-1.2-1-2.2-2.2-2.2-1.2 0-2.2 1-2.2 2.2 0 1.2 1 2.2 2.2 2.2zm0 .3s-2.9.6-3 2.9v2.5s-.1.7 1.5.7h3.7s.8.1.7-1.1v-2.5c.1 0 .2-2-2.9-2.5z" fill-rule="evenodd" clip-rule="evenodd" fill="#fff"/><g fill-rule="evenodd" clip-rule="evenodd"><path d="M70.7 202.2c-.1-.1-.2-.1-.2-.1-.2.1-.4.2-.5.3.1-.1.1-.3.1-.4 0-.2-.1-.4-.2-.5-.1-.1-.3-.2-.6-.2s-.5.1-.7.3c-.2.2-.2.3-.2.5v.2c0 .1.2.3.3.4h.1c-.3 0-.5-.1-.7-.2 0 0-.1 0-.1-.1v-.3c0-3.1-3.8-5.6-8.5-5.6-1.8 0-3.5.4-4.9 1-.3-1-1.2-2.3-1.9-2.1.8 1.3.4 2.7.3 3.1-.9.7-1.6 1.5-1.9 2.5h-.6c-.1-.1-.2-.2-.3-.2-.3 0-.5.6-.5 1.4 0 .8.2 1.4.5 1.4.1 0 .2-.1.3-.2h.6c.5 1.5 1.8 2.8 3.7 3.5v2.5l1-1.2 1 1.2v-1.9c.8.2 1.6.3 2.5.3 1.1 0 2.2-.1 3.1-.4v2l1-1.2 1 1.2v-2.8c1.7-.9 2.9-2.2 3.2-3.7.2.1.5.3.8.3.2 0 .3 0 .5-.1.1 0 .2-.1.3-.1.3 0 .7-.1 1.1-.4.5-.2.5-.3.4-.4zm-8.4-3.4c-.9-.4-1.9-.6-2.7-.6-1.6 0-2.8.5-2.9.6h-.2c-.1 0-.3-.1-.3-.2-.1-.2 0-.4.2-.5 0 0 1.4-.6 3.2-.6.9 0 2 .2 3 .6.2.1.3.3.2.5-.1.2-.3.2-.5.2zm7.1 3.7c-.2 0-.4-.1-.5-.1l-.2-.2v-.1c0-.1 0-.2.1-.3.1-.1.2-.1.5-.2.1 0 .2 0 .3.1.1.1.1.2.1.3 0 .2-.1.4-.3.5z" fill="#fff"/><path d="M70.2 201.7c-.1-.1-.2-.1-.2-.1-.2.1-.4.2-.5.3.1-.1.1-.3.1-.4 0-.2-.1-.4-.2-.5-.1-.1-.3-.2-.6-.2s-.5.1-.7.3c-.2.2-.2.3-.2.5v.2c0 .1.2.3.3.4h.1c-.3 0-.5-.1-.7-.2 0 0-.1 0-.1-.1v-.3c0-3.1-3.8-5.6-8.5-5.6-1.8 0-3.5.4-4.9 1-.3-1-1.2-2.3-1.9-2.1.8 1.3.4 2.7.3 3.1-.9.7-1.6 1.5-1.9 2.5H50c-.1-.1-.2-.2-.3-.2-.3 0-.5.6-.5 1.4 0 .8.2 1.4.5 1.4.1 0 .2-.1.3-.2h.6c.5 1.5 1.8 2.8 3.7 3.5v2.5l1-1.2 1 1.2V207c.8.2 1.6.3 2.5.3 1.1 0 2.2-.1 3.1-.4v2l1-1.2 1 1.2V206c1.7-.9 2.9-2.2 3.2-3.7.2.1.5.3.8.3.2 0 .3 0 .5-.1.1 0 .2-.1.3-.1.3 0 .7-.1 1.1-.4.5-.1.5-.2.4-.3zm-8.4-3.4c-.9-.4-1.9-.6-2.7-.6-1.6 0-2.8.5-2.9.6H56c-.1 0-.3-.1-.3-.2-.1-.2 0-.4.2-.5 0 0 1.4-.6 3.2-.6.9 0 2 .2 3 .6.2.1.3.3.2.5-.1.2-.3.2-.5.2zm7.1 3.7c-.2 0-.4-.1-.5-.1l-.2-.2v-.1c0-.1 0-.2.1-.3.1-.1.2-.1.5-.2.1 0 .2 0 .3.1.1.1.1.2.1.3 0 .2-.1.4-.3.5z" fill="gray"/></g><path fill="#fff" d="M58.5 189.5h3.6v.6h-3.6z"/><path fill="gray" d="M58 189h3.6v.6H58z"/><path d="M62.3 192.3l-.2-.2v.3c0 .2 0 .7-.1.7h-.7v-1.6h1.3v-.6h-4.4v.6h1.2c-.1.8-.3 1.5-1.2 1.8l-.2.1.2.2c.1 0 .1.1.2.2l.1.1h.1c1.2-.5 1.4-1.4 1.5-2.3h.7v1.6c0 .5.2.6.7.6h.5c.6 0 .6-.4.7-1.2v-.1h-.1c-.1-.1-.2-.2-.3-.2" fill="#fff"/><path d="M61.8 191.8l-.2-.2v.3c0 .2 0 .7-.1.7h-.7V191h1.3v-.6h-4.4v.6h1.2c-.1.8-.3 1.5-1.2 1.8l-.2.1.2.2c.1 0 .1.1.2.2l.1.1h.1c1.2-.5 1.4-1.4 1.5-2.3h.7v1.6c0 .5.2.6.7.6h.7c.6 0 .6-.4.7-1.2v-.1h-.1c-.3-.1-.4-.2-.5-.2" fill="gray"/><path d="M60.2 187.2c-2.5 0-4.5 2-4.5 4.5s2 4.5 4.5 4.5 4.5-2 4.5-4.5-2-4.5-4.5-4.5m0 8.3c-2.1 0-3.9-1.7-3.9-3.9 0-2.1 1.7-3.9 3.9-3.9s3.9 1.7 3.9 3.9-1.7 3.9-3.9 3.9" fill="#fff"/><path d="M59.7 186.7c-2.5 0-4.5 2-4.5 4.5s2 4.5 4.5 4.5 4.5-2 4.5-4.5-2-4.5-4.5-4.5m0 8.3c-2.1 0-3.9-1.7-3.9-3.9 0-2.1 1.7-3.9 3.9-3.9s3.9 1.7 3.9 3.9-1.7 3.9-3.9 3.9" fill="gray"/><path d="M94.6 200.3c-.7-.8-2.5.4-2.5.4l-2.9 2.2c0 1.5-1.1 2.6-1.1 2.6-.7.8-1.8.4-1.8.4l-2.5-1.5c-.8-.5-.7-.7-.7-.7.4-.3.7 0 .7 0l2.2 1.5c3.8.7 2.2-2.9 2.2-2.9l-6.5-2.9c-2-1.1-4 .4-4 .4v6.2c1.3-.5 7.6 1.5 7.6 1.5 1.9.7 3.3 0 3.3 0l5.8-4.4c1.3-1.4.2-2.8.2-2.8zm-18.3-2h-2.6c-.4 0-.7.3-.7.7v7.8c0 .4.3.7.7.7h2.6c.4 0 .7-.3.7-.7V199c.1-.4-.2-.7-.7-.7zm15.3 1.4c1.9-1.7-2.9-7.2-2.9-7.2H85c-1.9.3-4 5.2-4 5.2l8 3.8 2.6-1.8zm-7.4-8.2h4.4c1.3.1 3.3-2.8 3.3-2.8-1.5.5-4.4 0-4.4 0-.5-.5-1.9 0-1.9 0-.7.8-2.4 0-2.4 0-3.3-.5 1 2.8 1 2.8z" fill-rule="evenodd" clip-rule="evenodd" fill="gray"/><path d="M88.6 194l-1.6 2.8h1.3v.6h-1.5v.8h1.5v.6h-1.5v1.2H86v-1.2h-1.6v-.6H86v-.8h-1.6v-.6h1.3l-1.6-2.8h.9c.8 1.4 1.2 2.2 1.4 2.6.1-.2.2-.5.5-.9l.9-1.7h.8zM19.9 193.3l-1.8 1.8-1.7-.5-.5-1.8 1.8-1.8c-1.1-.3-2.2 0-3.1.8-.8.8-1.1 2-.8 3.1L9 199.8c-1.1-.3-2.2 0-3.1.8-.8.8-1.1 2-.8 3.1l1.8-1.8 1.8.5.5 1.8-1.8 1.8c1.1.3 2.2 0 3.1-.8.9-.9 1.1-2.1.8-3.2l4.7-4.7c1.1.4 2.3.1 3.2-.8.7-.9 1-2.1.7-3.2z" fill="#fff"/><path d="M19.4 192.8l-1.8 1.8-1.7-.5-.5-1.8 1.8-1.8c-1.1-.3-2.2 0-3.1.8-.8.8-1.1 2-.8 3.1l-4.8 4.8c-1.1-.3-2.2 0-3.1.8-.8.8-1.1 2-.8 3.1l1.8-1.8 1.8.5.5 1.8-1.8 1.8c1.1.3 2.2 0 3.1-.8.9-.9 1.1-2.1.8-3.2l4.7-4.7c1.1.4 2.3.1 3.2-.8.7-.8 1-2 .7-3.1z" fill="gray"/><g fill-rule="evenodd" clip-rule="evenodd"><path fill="#fff" d="M161 238h4l19-19-19-19h-4l18 19z"/><path fill="#fd3153" d="M160 238h4l19-19-19-19h-4l18 19z"/></g><g fill-rule="evenodd" clip-rule="evenodd"><path fill="#fff" d="M191 238h4l19-19-19-19h-4l18 19z"/><path fill="#e3e3e3" d="M190 238h4l19-19-19-19h-4l18 19z"/></g><g fill-rule="evenodd" clip-rule="evenodd"><path fill="#fff" d="M154 238h-4l-19-19 19-19h4l-18 19z"/><path fill="#fd3153" d="M153 238h-4l-19-19 19-19h4l-18 19z"/></g><g fill-rule="evenodd" clip-rule="evenodd"><path fill="#fff" d="M124 238h-4l-19-19 19-19h4l-18 19z"/><path fill="#e3e3e3" d="M123 238h-4l-19-19 19-19h4l-18 19z"/></g><path d="M14.2 225.5l6.6-5.5H5.2l6.8 5.6c1.3 1 2.2-.1 2.2-.1zm1 .1l5.8 4.8V221l-5.8 4.6zm-3.8.4l-5.7 5h14.7l-5.7-5s-1.4 1.7-3.3 0zM5 220.8v9.5l5.7-4.9-5.7-4.6z" fill-rule="evenodd" clip-rule="evenodd" fill="#afafaf"/><path d="M64.3 228.4l-1.1 1.4h1.1v-1.4zm1.8 2.8h-.3v1.2c0 .2-.2.4-.4.4h-.7c-.2 0-.4-.2-.4-.4v-1.2H61c-.1 0-.3-.1-.3-.2-.1-.1 0-.3 0-.4l3.9-5c.1-.1.2-.1.3-.1h.4c.2 0 .4.2.4.4v4h.3c.2 0 .4.2.4.4v.7s-.1.2-.3.2zm-4.8 1.5h-4.4c-.1 0-.3-.1-.3-.2-.1-.1 0-.3 0-.4l2.5-3.1c.9-1 1-1.7.9-2-.1-.2-.3-.3-.7-.3-.3 0-.8.2-1.1.6-.1.2-.3.2-.5.2l-.6-.3c-.2-.1-.2-.3-.2-.5.4-.9 1.4-1.4 2.4-1.4.9 0 1.6.5 1.9 1.2.3.7.4 1.8-1.1 3.5l-1.1 1.4h2.2c.2 0 .4.2.4.4v.7c0 .1-.1.2-.3.2zm6.3 3.7c-1.3 1.3-3 2.2-4.8 2.6l1.2.8c.1.1.1.1.1.2s0 .2-.1.3l-.4.6c-.1.1-.2.2-.3.2-.1 0-.1 0-.2-.1l-3-2c-.1-.1-.1-.1-.1-.2s0-.2.1-.3l2-3c.1-.2.3-.2.5-.1l.6.4c.2.1.2.3.1.5l-.9 1.3c1.6-.3 3-1.1 4.1-2.2 1.5-1.6 2.4-3.6 2.4-5.8 0-2.2-.9-4.3-2.4-5.8s-3.6-2.4-5.8-2.4c-2.2 0-4.2.9-5.8 2.4-.6.6-1.1 1.3-1.5 2 0 .1-.1.1-.2.2h-.3l-.6-.3c-.1 0-.1-.1-.2-.2v-.3c.4-.9 1-1.6 1.7-2.3 1.8-1.8 4.2-2.8 6.8-2.8 2.6 0 5 1 6.8 2.8 1.8 1.8 2.8 4.2 2.8 6.8.2 2.5-.8 4.9-2.6 6.7zm-8.2 3.4c-.2.8-.7 1.4-1.3 1.8-.4.3-.9.4-1.5.4-.4 0-.9-.1-1.3-.3-1.6-.7-3.5-2.8-5.1-5.4-1.5-2.6-2.4-5.3-2.2-7.1.1-1 .6-1.9 1.4-2.4.4-.3.9-.4 1.5-.4 1 0 2 .6 2.5 1.4l.2.4c.4.7.5 1.5.3 2.2-.2.8-.7 1.4-1.3 1.8-.1.1-.3.1-.4.2l2.3 4c.1-.1.2-.2.4-.3.4-.3.9-.4 1.5-.4 1 0 2 .6 2.5 1.4l.2.4c.4.8.5 1.6.3 2.3z" fill="gray"/><path d="M377.7 6.2c0 .8-.7 1.5-1.5 1.5h-20c-.8 0-1.5-.7-1.5-1.5s.7-1.5 1.5-1.5h20c.9 0 1.5.7 1.5 1.5zm1.2 5c0 .8-.6 1.4-1.4 1.4h-19.2c-.8 0-1.4-.6-1.4-1.4 0-.8.6-1.4 1.4-1.4h19.2c.8 0 1.4.6 1.4 1.4zm-1.9 4.9c0 .8-.6 1.4-1.4 1.4h-11.5c-.8 0-1.4-.6-1.4-1.4 0-.8.6-1.4 1.4-1.4h11.5c.7 0 1.4.6 1.4 1.4zm2.9 5.1c0 .8-.6 1.4-1.4 1.4h-11.4c-.8 0-1.4-.6-1.4-1.4 0-.8.6-1.4 1.4-1.4h11.4c.8 0 1.4.6 1.4 1.4zm1 5c0 .8-.7 1.5-1.5 1.5h-11c-.8 0-1.5-.7-1.5-1.5s.7-1.5 1.5-1.5h11c.8 0 1.5.7 1.5 1.5zm-1 4.9c0 .8-.6 1.4-1.4 1.4h-11.4c-.8 0-1.4-.6-1.4-1.4 0-.8.6-1.4 1.4-1.4h11.4c.8 0 1.4.6 1.4 1.4zm-1.4 4.9c0 .9-.7 1.6-1.6 1.6h-12.8c-.9 0-1.6-.7-1.6-1.6 0-.9.7-1.6 1.6-1.6h12.8c.9 0 1.6.7 1.6 1.6zm-32.4-10.5c.2 0 .3 0 .5.1s.3.1.4.2.2.2.2.3.1.2.1.4 0 .4-.1.5-.2.3-.3.5-.3.3-.4.4-.3.3-.5.4l-.6.3c-.2.1-.4.2-.7.3s-.5.2-.7.2-.4.1-.7.2c0 .2-.1.3-.1.4v.4c0 .2 0 .3.1.4s.1.2.2.3.2.1.3.2.2 0 .3 0c.1 0 .3 0 .4-.1s.3-.1.4-.2.3-.2.4-.3.3-.2.5-.3.3-.3.4-.4l.4-.4.4-.4.4-.4.1-.1h.2c.1 0 0 .1 0 .1s-.1.1-.1.2-.2.2-.3.4-.3.3-.4.5-.3.3-.5.5-.4.3-.6.5-.4.3-.6.4l-.6.3c-.2.1-.4.1-.6.1-.2 0-.5-.1-.7-.2s-.4-.3-.5-.4-.3-.4-.4-.7-.1-.5-.1-.8v-.4c0-.1.1-.3.1-.4-.1.1-.1.1-.1.2s-.1.1-.1.2c0 0-.1 0-.1.1s-.1 0-.1 0l-.1-.1c-.1-.1 0-.1 0-.1.1-.1.1-.2.2-.3s.2-.3.3-.4l.5-.5c.2-.2.4-.3.6-.5s.4-.3.6-.5.5-.3.7-.4.5-.2.7-.3.4-.4.6-.4zm.1.2c-.1 0-.3 0-.4.1s-.3.2-.4.3-.3.2-.4.4-.3.3-.4.5-.3.3-.4.5-.2.4-.3.5-.2.3-.3.5-.1.3-.2.4c.2 0 .4-.1.6-.2s.4-.1.6-.2.4-.2.5-.3.3-.2.5-.4l.4-.4c.1-.1.2-.3.3-.4s.2-.3.2-.4.1-.3.1-.4V26c0-.1 0-.1-.1-.1s-.1-.1-.1-.1-.1-.1-.2-.1zm7.8-4.3c.2 0 .4 0 .6.1l.6.3c.2.1.3.3.4.5s.2.5.2.8c0 .3-.1.6-.2.9s-.3.6-.6.8-.5.4-.9.6-.7.3-1 .4c.1.2.2.4.3.5s.2.4.3.5.2.4.2.6.1.4.1.6c0 .2 0 .5-.1.7s-.1.4-.2.6-.2.4-.4.5-.3.3-.5.5-.4.3-.5.4-.4.2-.6.3-.4.1-.6.2-.4 0-.6 0c-.4 0-.7-.1-.9-.2s-.5-.3-.6-.4-.3-.4-.4-.6-.1-.5-.1-.7c0-.3 0-.6.2-.9s.4-.6.7-.8.7-.5 1.1-.8.8-.5 1.3-.7c-.2-.3-.4-.7-.5-1s-.2-.7-.2-1v-.5c0-.1.1-.3.2-.5s.2-.3.3-.5.3-.3.4-.4.3-.2.5-.3.4-.2.5-.2.4-.1.5-.2.3-.1.5-.1zm-2.2 5c-.4.1-.7.3-1.1.5s-.6.4-.9.7-.4.5-.6.8-.2.6-.2 1c0 .2 0 .4.1.6s.2.4.3.5.3.3.5.3.4.1.6.1c.4 0 .8-.1 1.1-.3s.5-.3.7-.5.3-.4.4-.7.1-.5.1-.7c0-.2 0-.4-.1-.6s-.1-.4-.2-.6l-.3-.6c-.1-.2-.3-.4-.4-.5zm1.1-.8c.3-.1.6-.3.9-.4s.5-.4.7-.6.3-.5.5-.7.2-.5.2-.8c0-.2 0-.4-.1-.5s-.2-.3-.3-.4-.2-.2-.4-.3-.3-.1-.4-.1c-.3 0-.5.1-.8.2s-.4.3-.6.4-.3.4-.4.6-.1.4-.1.6c0 .2 0 .4.1.5s.1.4.2.5.2.3.2.5.2.3.3.5z" fill="#afafaf"/><circle cx="348.8" cy="25.6" r="11.2" fill="none"/><path d="M348.8 11c-8.1 0-14.7 6.6-14.7 14.7s6.6 14.7 14.7 14.7 14.7-6.6 14.7-14.7c-.1-8.2-6.6-14.7-14.7-14.7zm7.6 4c.4-.3.9-.3 1.2 0l2.1 2.2c.3.3.3.9 0 1.2-.4.3-.9.3-1.2 0l-2.1-2.2c-.4-.3-.4-.8 0-1.2zm-9-3.3h3c.5 0 .9.4.9.9s-.4.9-.9.9h-3c-.5 0-.9-.4-.9-.9s.4-.9.9-.9zm-9.8 5.5l2.1-2.2c.3-.4.9-.4 1.2 0 .4.3.4.9 0 1.2l-2.1 2.2c-.3.4-.9.4-1.2 0-.3-.3-.3-.8 0-1.2zm-.8 9.4c0 .5-.4.9-.9.9s-.9-.4-.9-.9v-3c0-.5.4-.9.9-.9s.9.4.9.9v3zm4.1 9.7c-.4.3-.9.3-1.2 0l-2.1-2.2c-.3-.3-.3-.9 0-1.2.4-.3.9-.3 1.2 0l2.1 2.2c.4.4.4.9 0 1.2zm9.5 3h-3c-.5 0-.9-.4-.9-.9s.4-.9.9-.9h3c.5 0 .9.4.9.9s-.4.9-.9.9zm9.3-5.2l-2.1 2.2c-.3.4-.9.4-1.2 0-.4-.3-.4-.9 0-1.2l2.1-2.2c.3-.4.9-.4 1.2 0 .3.3.3.9 0 1.2zm-10.9 2.7c-6.2 0-11.2-5-11.2-11.2 0-6.2 5-11.2 11.2-11.2 6.2 0 11.2 5 11.2 11.2-.1 6.2-5.1 11.2-11.2 11.2zm12.7-9.3c-.5 0-.9-.4-.9-.9v-3c0-.5.4-.9.9-.9s.9.4.9.9v3c0 .5-.4.9-.9.9z" fill="#afafaf"/><path d="M377.7 51.2c0 .8-.7 1.5-1.5 1.5h-20c-.8 0-1.5-.7-1.5-1.5s.7-1.5 1.5-1.5h20c.9 0 1.5.7 1.5 1.5zm1.2 5c0 .8-.6 1.4-1.4 1.4h-19.2c-.8 0-1.4-.6-1.4-1.4 0-.8.6-1.4 1.4-1.4h19.2c.8 0 1.4.6 1.4 1.4zm-1.9 4.9c0 .8-.6 1.4-1.4 1.4h-11.5c-.8 0-1.4-.6-1.4-1.4 0-.8.6-1.4 1.4-1.4h11.5c.7 0 1.4.6 1.4 1.4zm2.9 5.1c0 .8-.6 1.4-1.4 1.4h-11.4c-.8 0-1.4-.6-1.4-1.4 0-.8.6-1.4 1.4-1.4h11.4c.8 0 1.4.6 1.4 1.4zm1 5c0 .8-.7 1.5-1.5 1.5h-11c-.8 0-1.5-.7-1.5-1.5s.7-1.5 1.5-1.5h11c.8 0 1.5.7 1.5 1.5zm-1 4.9c0 .8-.6 1.4-1.4 1.4h-11.4c-.8 0-1.4-.6-1.4-1.4 0-.8.6-1.4 1.4-1.4h11.4c.8 0 1.4.6 1.4 1.4zm-1.4 4.9c0 .9-.7 1.6-1.6 1.6h-12.8c-.9 0-1.6-.7-1.6-1.6 0-.9.7-1.6 1.6-1.6h12.8c.9 0 1.6.7 1.6 1.6zm-32.4-10.5c.2 0 .3 0 .5.1s.3.1.4.2.2.2.2.3.1.2.1.4 0 .4-.1.5-.2.3-.3.5-.3.3-.4.4-.3.3-.5.4l-.6.3c-.2.1-.4.2-.7.3s-.5.2-.7.2-.4.1-.7.2c0 .2-.1.3-.1.4v.4c0 .2 0 .3.1.4s.1.2.2.3.2.1.3.2.2 0 .3 0c.1 0 .3 0 .4-.1s.3-.1.4-.2.3-.2.4-.3.3-.2.5-.3.3-.3.4-.4l.4-.4.4-.4.4-.4.1-.1h.2c.1 0 0 .1 0 .1s-.1.1-.1.2-.2.2-.3.4-.3.3-.4.5-.3.3-.5.5-.4.3-.6.5-.4.3-.6.4l-.6.3c-.2.1-.4.1-.6.1-.2 0-.5-.1-.7-.2s-.4-.3-.5-.4-.3-.4-.4-.7-.1-.5-.1-.8v-.4c0-.1.1-.3.1-.4-.1.1-.1.1-.1.2s-.1.1-.1.2c0 0-.1 0-.1.1s-.1 0-.1 0l-.1-.1c-.1-.1 0-.1 0-.1.1-.1.1-.2.2-.3s.2-.3.3-.4l.5-.5c.2-.2.4-.3.6-.5s.4-.3.6-.5.5-.3.7-.4.5-.2.7-.3.4-.4.6-.4zm.1.2c-.1 0-.3 0-.4.1s-.3.2-.4.3-.3.2-.4.4-.3.3-.4.5-.3.3-.4.5-.2.4-.3.5-.2.3-.3.5-.1.3-.2.4c.2 0 .4-.1.6-.2s.4-.1.6-.2.4-.2.5-.3.3-.2.5-.4l.4-.4c.1-.1.2-.3.3-.4s.2-.3.2-.4.1-.3.1-.4V71c0-.1 0-.1-.1-.1s-.1-.1-.1-.1-.1-.1-.2-.1zm7.8-4.3c.2 0 .4 0 .6.1l.6.3c.2.1.3.3.4.5s.2.5.2.8c0 .3-.1.6-.2.9s-.3.6-.6.8-.5.4-.9.6-.7.3-1 .4c.1.2.2.4.3.5s.2.4.3.5.2.4.2.6.1.4.1.6c0 .2 0 .5-.1.7s-.1.4-.2.6-.2.4-.4.5-.3.3-.5.5-.4.3-.5.4-.4.2-.6.3-.4.1-.6.2-.4 0-.6 0c-.4 0-.7-.1-.9-.2s-.5-.3-.6-.4-.3-.4-.4-.6-.1-.5-.1-.7c0-.3 0-.6.2-.9s.4-.6.7-.8.7-.5 1.1-.8.8-.5 1.3-.7c-.2-.3-.4-.7-.5-1s-.2-.7-.2-1v-.5c0-.1.1-.3.2-.5s.2-.3.3-.5.3-.3.4-.4.3-.2.5-.3.4-.2.5-.2.4-.1.5-.2.3-.1.5-.1zm-2.2 5c-.4.1-.7.3-1.1.5s-.6.4-.9.7-.4.5-.6.8-.2.6-.2 1c0 .2 0 .4.1.6s.2.4.3.5.3.3.5.3.4.1.6.1c.4 0 .8-.1 1.1-.3s.5-.3.7-.5.3-.4.4-.7.1-.5.1-.7c0-.2 0-.4-.1-.6s-.1-.4-.2-.6l-.3-.6c-.1-.2-.3-.4-.4-.5zm1.1-.8c.3-.1.6-.3.9-.4s.5-.4.7-.6.3-.5.5-.7.2-.5.2-.8c0-.2 0-.4-.1-.5s-.2-.3-.3-.4-.2-.2-.4-.3-.3-.1-.4-.1c-.3 0-.5.1-.8.2s-.4.3-.6.4-.3.4-.4.6-.1.4-.1.6c0 .2 0 .4.1.5s.1.4.2.5.2.3.2.5.2.3.3.5z" fill="#fe4d57"/><circle cx="348.8" cy="70.6" r="11.2" fill="none"/><path d="M348.8 56c-8.1 0-14.7 6.6-14.7 14.7s6.6 14.7 14.7 14.7 14.7-6.6 14.7-14.7c-.1-8.2-6.6-14.7-14.7-14.7zm7.6 4c.4-.3.9-.3 1.2 0l2.1 2.2c.3.3.3.9 0 1.2-.4.3-.9.3-1.2 0l-2.1-2.2c-.4-.3-.4-.8 0-1.2zm-9-3.3h3c.5 0 .9.4.9.9s-.4.9-.9.9h-3c-.5 0-.9-.4-.9-.9s.4-.9.9-.9zm-9.8 5.5l2.1-2.2c.3-.4.9-.4 1.2 0 .4.3.4.9 0 1.2l-2.1 2.2c-.3.4-.9.4-1.2 0-.3-.3-.3-.8 0-1.2zm-.8 9.4c0 .5-.4.9-.9.9s-.9-.4-.9-.9v-3c0-.5.4-.9.9-.9s.9.4.9.9v3zm4.1 9.7c-.4.3-.9.3-1.2 0l-2.1-2.2c-.3-.3-.3-.9 0-1.2.4-.3.9-.3 1.2 0l2.1 2.2c.4.4.4.9 0 1.2zm9.5 3h-3c-.5 0-.9-.4-.9-.9s.4-.9.9-.9h3c.5 0 .9.4.9.9s-.4.9-.9.9zm9.3-5.2l-2.1 2.2c-.3.4-.9.4-1.2 0-.4-.3-.4-.9 0-1.2l2.1-2.2c.3-.4.9-.4 1.2 0 .3.3.3.9 0 1.2zm-10.9 2.7c-6.2 0-11.2-5-11.2-11.2 0-6.2 5-11.2 11.2-11.2 6.2 0 11.2 5 11.2 11.2-.1 6.2-5.1 11.2-11.2 11.2zm12.7-9.3c-.5 0-.9-.4-.9-.9v-3c0-.5.4-.9.9-.9s.9.4.9.9v3c0 .5-.4.9-.9.9z" fill="#fe4d57"/><path d="M556.9 240.3c-4.4-4.4-6.9-10.3-6.9-16.6 0-6.3 2.4-12.2 6.9-16.6 4.4-4.4 10.3-6.9 16.6-6.9 6.3 0 12.2 2.4 16.6 6.9 4.4 4.4 6.9 10.3 6.9 16.6 0 6.3-2.4 12.2-6.9 16.6-4.4 4.4-10.3 6.9-16.6 6.9-6.3-.1-12.2-2.5-16.6-6.9" fill-rule="evenodd" clip-rule="evenodd" fill="#f0f0f0"/><circle cx="573.5" cy="223.6" r="20.5" fill-rule="evenodd" clip-rule="evenodd" fill="#8f8d9a"/><path d="M573 219.8s1.8-1.1 6.3-1.8c0 0-1.3-8-12-7.3 0 0-8.2.5-9.3 8.4 0 0-.8 4.9 4 8.1l-.7 3.3 3.8-2s1.8 1.2 4.3.7c-.1-.2-2.4-5.6 3.6-9.4zm-.6-4.7c1 0 1.8.8 1.8 1.8s-.8 1.8-1.8 1.8-1.8-.8-1.8-1.8c.1-1 .9-1.8 1.8-1.8zm-7.3 3.6c-1 0-1.8-.8-1.8-1.8s.8-1.8 1.8-1.8 1.8.8 1.8 1.8c-.1 1-.9 1.8-1.8 1.8z" fill="#fff"/><path d="M585.7 221.4s-6.5-5.7-13.5 0c0 0-5.5 4.4-.4 10.5 0 0 3.7 4.3 10.3 2.2l3.1 1.4-.6-2.5c.1 0 7.1-4.6 1.1-11.6zm-9.8 4.3c-.9 0-1.7-.8-1.7-1.7 0-1 .8-1.8 1.7-1.8.9 0 1.7.8 1.7 1.8s-.8 1.7-1.7 1.7zm6.1 0c-.9 0-1.7-.8-1.7-1.7 0-1 .8-1.8 1.7-1.8s1.7.8 1.7 1.8-.8 1.7-1.7 1.7z" fill="#fff"/><g><path d="M306.9 240c-4.4-4.4-6.9-10.3-6.9-16.5 0-6.2 2.4-12.1 6.9-16.5 4.4-4.4 10.3-6.8 16.6-6.8s12.2 2.4 16.6 6.8c4.4 4.4 6.9 10.3 6.9 16.5 0 6.2-2.4 12.1-6.9 16.5-4.4 4.4-10.3 6.8-16.6 6.8s-12.2-2.4-16.6-6.8" fill-rule="evenodd" clip-rule="evenodd" fill="#f0f0f0"/><ellipse cx="323.5" cy="223.5" rx="20.5" ry="20.4" fill-rule="evenodd" clip-rule="evenodd" fill="#8f8d9a"/><defs><path id="a" d="M336.7 227.3c0 2.9-2.4 5.3-5.4 5.3h-16.4c-3 0-5.4-2.4-5.4-5.3v-7.8c0-2.9 2.4-5.3 5.4-5.3h16.4c3 0 5.4 2.4 5.4 5.3v7.8z"/></defs><clipPath id="b"><use xlink:href="#a" overflow="visible"/></clipPath><path clip-path="url(#b)" fill="#fff" d="M336.8 216.8v11.9l-5.9-6zm-14.4 10.5s.9 1.2 2.1 0l12.3-13h-27.3l12.9 13z"/><path d="M336.8 230.8v1.5l-27.3.1v-1.6s1.5-1.3 3.6-3.4l3.9-3.3 5.2 5s1.6 1.3 2.8-.1l4.9-5.1m-20.4-7v11.9l5.9-6z" clip-path="url(#b)" fill="#fff"/></g><g><path d="M506.9 240.2c-4.4-4.4-6.9-10.3-6.9-16.6 0-6.3 2.4-12.2 6.9-16.6 4.4-4.4 10.3-6.9 16.6-6.9s12.1 2.4 16.6 6.9c4.4 4.4 6.9 10.3 6.9 16.6 0 6.3-2.4 12.2-6.9 16.6-4.4 4.4-10.3 6.9-16.6 6.9s-12.2-2.4-16.6-6.9" fill-rule="evenodd" clip-rule="evenodd" fill="#f0f0f0"/><path d="M523.5 203.1c11.3 0 20.4 9.2 20.4 20.5s-9.1 20.5-20.4 20.5c-11.3 0-20.4-9.2-20.4-20.5-.1-11.3 9.1-20.5 20.4-20.5z" fill-rule="evenodd" clip-rule="evenodd" fill="#8f8d9a"/><path d="M530.7 220.4l-1.5 1.8h1.5v-1.8zm2.4 3.7h-.4v1.7c0 .3-.2.5-.5.5h-1c-.3 0-.5-.2-.5-.5v-1.7h-4.4c-.2 0-.4-.1-.4-.3-.1-.2-.1-.4.1-.5l5.3-6.8c.1-.1.2-.2.4-.2h.6c.3 0 .5.2.5.5v5.4h.4c.3 0 .5.2.5.5v1c-.1.2-.3.4-.6.4zm-6.5 2.2h-6c-.2 0-.4-.1-.4-.3-.1-.2-.1-.4.1-.5l3.4-4.2c1.2-1.4 1.4-2.3 1.2-2.8-.1-.3-.5-.4-.9-.5-.5 0-1.1.2-1.4.8-.1.2-.4.3-.6.2l-.9-.4c-.2-.1-.3-.4-.2-.6.6-1.2 1.8-1.9 3.2-1.9 1.2 0 2.2.6 2.6 1.6.4.9.5 2.5-1.5 4.8l-1.5 1.9h3c.3 0 .5.2.5.5v1c-.1.2-.3.4-.6.4zm8.5 5c-1.8 1.8-4.1 3-6.5 3.6l1.7 1.1c.1.1.2.2.2.3 0 .1 0 .3-.1.4l-.5.8c-.1.1-.2.2-.4.2-.1 0-.2 0-.3-.1l-4-2.7c-.1-.1-.2-.2-.2-.3 0-.1 0-.3.1-.4l2.7-4c.1-.2.4-.3.7-.1l.8.5c.2.1.3.4.1.7l-1.2 1.8c2.1-.4 4-1.5 5.6-3 2.1-2.1 3.2-4.9 3.2-7.9s-1.2-5.8-3.3-7.9c-2.1-2.1-4.9-3.3-7.8-3.3-3 0-5.8 1.2-7.9 3.3-.8.8-1.5 1.7-2 2.7-.1.1-.2.2-.3.2h-.4l-.8-.4c-.1-.1-.2-.2-.2-.3v-.4c.6-1.2 1.4-2.2 2.3-3.2 2.5-2.5 5.7-3.8 9.2-3.8 3.5 0 6.7 1.4 9.2 3.8 2.5 2.5 3.8 5.7 3.8 9.2s-1.2 6.7-3.7 9.2zm-11 4.6c-.3 1-.9 1.9-1.8 2.4-.6.4-1.3.5-2 .5-.6 0-1.2-.1-1.8-.4-2.2-1-4.8-3.8-6.9-7.4-2.1-3.5-3.2-7.2-3-9.6.1-1.3.8-2.5 1.9-3.2.6-.4 1.3-.5 2-.5 1.4 0 2.7.7 3.4 2l.3.6c.5.9.7 2 .4 3-.3 1-.9 1.9-1.8 2.4-.2.1-.4.2-.5.3l3.1 5.4c.2-.1.3-.2.5-.3.6-.4 1.3-.5 2-.5 1.4 0 2.7.7 3.4 2l.3.6c.6.6.7 1.7.5 2.7z" fill="#fff"/></g><g><path d="M456.9 240.5c-4.4-4.5-6.9-10.4-6.9-16.7s2.4-12.2 6.9-16.7c4.4-4.5 10.3-6.9 16.6-6.9 6.3 0 12.2 2.5 16.6 6.9 4.4 4.5 6.9 10.4 6.9 16.7s-2.4 12.2-6.9 16.7c-4.4 4.5-10.3 6.9-16.6 6.9-6.3 0-12.2-2.5-16.6-6.9" fill-rule="evenodd" clip-rule="evenodd" fill="#f0f0f0"/><ellipse cx="473.5" cy="223.8" rx="20.5" ry="20.6" fill-rule="evenodd" clip-rule="evenodd" fill="#8f8d9a"/><path d="M477 230.7c-2.3-1.9-3-1-4 .1-.7.8-2.6-.8-4.2-2.5s-3.1-3.6-2.4-4.3c1-1.1 2-1.8.1-4.1-1.9-2.4-3.1-.6-4.1.5-1.2 1.2-.1 5.7 4.3 10.2 4.3 4.5 8.7 5.6 9.9 4.4.9-1.1 2.7-2.4.4-4.3zm5.5-1.7c-.8-.4-1.8-.8-2.8-1 .3-1.2.4-2.5.4-3.9h3.9c0 1.8-.6 3.5-1.5 4.9zm-5.1-15.3c1.8.7 3.3 1.8 4.5 3.4-.7.3-1.6.6-2.5.9-.4-1.7-1.1-3.2-2-4.3zm-2.8 9.2v-3.2c1.4 0 2.8-.2 4-.4.2 1.1.4 2.3.4 3.6h-4.4zm4 4.9c-1.3-.2-2.6-.4-4-.4v-3.3h4.4c0 1.3-.2 2.5-.4 3.7zm-4-14.7h.5c1.4.6 2.6 2.5 3.3 5-1.2.2-2.5.3-3.8.4v-5.4zm8 4.9c.9 1.4 1.4 3.1 1.5 4.9h-3.9c0-1.4-.2-2.6-.4-3.8 1-.3 2-.6 2.8-1.1zm-9.1.6c-1.3 0-2.6-.2-3.8-.4.7-2.5 1.9-4.4 3.3-5h.5v5.4zm0 4.3H469c0-1.3.2-2.5.4-3.6 1.3.2 2.6.4 4 .4v3.2zm-4.9-4.9c-.9-.2-1.8-.5-2.5-.9 1.2-1.5 2.7-2.7 4.5-3.4-.8 1.1-1.5 2.6-2 4.3zm5.4-6.4c-4.3 0-8.1 2.5-10 6.1.2-.1.5-.1.8-.1.8 0 1.5.4 2.2 1.1.4.2.9.3 1.4.4-.1.4-.1.8-.2 1.2 1 1.7.5 2.8-.3 3.8 0 .6.1 1.1.1 1.7.3.4.7.9 1.3 1.6-.2-1-.3-2.1-.3-3.2h4.4v3.3c-1.3 0-2.5.1-3.7.4l1 1c.9-.1 1.7-.2 2.6-.2v.3c.4-.2.8-.4 1.4-.4.2 0 .5 0 .7.1.9.1 1.9.2 2.7.3-.1.4-.2.8-.4 1.1.3.3.6.6.8 1 .2-.6.5-1.2.6-1.8.9.2 1.8.5 2.5.9-.7.9-1.6 1.7-2.6 2.4v.1c0 .8-.3 1.5-.7 2 4.1-1.8 7-6 7-10.9.2-6.9-4.9-12.2-11.3-12.2z" fill="#fff"/></g><g><path d="M357 240.6c-4.5-4.5-6.9-10.4-6.9-16.8 0-6.3 2.5-12.3 6.9-16.8 4.5-4.5 10.4-6.9 16.8-6.9 6.3 0 12.3 2.5 16.7 6.9 4.5 4.5 6.9 10.4 6.9 16.8 0 6.3-2.5 12.3-6.9 16.8-4.5 4.5-10.4 6.9-16.7 6.9-6.4.1-12.4-2.4-16.8-6.9" fill-rule="evenodd" clip-rule="evenodd" fill="#f0f0f0"/><path d="M373.7 203.1c11.4 0 20.7 9.3 20.7 20.7s-9.3 20.7-20.7 20.7c-11.4 0-20.7-9.3-20.7-20.7s9.3-20.7 20.7-20.7z" fill-rule="evenodd" clip-rule="evenodd" fill="#8f8d9a"/><path d="M379.5 229.4c-.5.7-1.2 1.2-2.1 1.6-.9.4-2 .6-3.3.6-1.5 0-2.8-.3-3.8-.8-.7-.4-1.3-.9-1.7-1.6-.4-.6-.7-1.3-.7-1.9 0-.4.1-.7.4-.9.3-.3.6-.4 1-.4.3 0 .6.1.9.3.2.2.4.5.6.9.2.5.4.8.6 1.1s.5.5.9.7c.4.2.9.3 1.6.3.9 0 1.7-.2 2.2-.6.6-.4.8-.9.8-1.5 0-.5-.1-.8-.5-1.1-.3-.3-.7-.5-1.2-.7-.5-.2-1.1-.3-2-.5-1.1-.2-2-.5-2.8-.8-.8-.3-1.4-.8-1.8-1.3-.4-.6-.7-1.3-.7-2.1s.2-1.5.7-2.1c.5-.6 1.1-1.1 2-1.4.9-.3 1.9-.5 3.1-.5.9 0 1.8.1 2.5.3.7.2 1.3.5 1.7.9.5.4.8.8 1 1.2.2.4.3.8.3 1.2 0 .4-.1.7-.4 1-.3.3-.6.4-1 .4s-.7-.1-.8-.3c-.2-.2-.4-.4-.6-.8-.3-.5-.6-.9-1-1.2-.4-.3-1-.4-1.9-.4-.8 0-1.4.2-1.9.5s-.7.7-.7 1.1c0 .3.1.5.2.7.2.2.4.4.7.5.3.2.6.3.9.3.3.1.8.2 1.5.4.9.2 1.7.4 2.4.6.7.2 1.3.5 1.8.8.5.3.9.7 1.2 1.3.3.5.4 1.1.4 1.9.2.8-.1 1.6-.5 2.3zm5.8-3.5c.1-.6.1-1.2.1-1.8 0-6.3-5.1-11.5-11.5-11.5-.6 0-1.2.1-1.8.1-1.1-.7-2.3-1-3.6-1-3.8 0-6.9 3.1-6.9 6.9 0 1.3.4 2.6 1 3.6-.1.6-.1 1.2-.1 1.8 0 6.3 5.1 11.5 11.5 11.5.6 0 1.2 0 1.8-.1 1.1.7 2.3 1 3.6 1 3.8 0 6.9-3.1 6.9-6.9.1-1.3-.3-2.5-1-3.6z" fill="#fff"/></g><g><path d="M407.1 241.5c-4.5-4.6-7-10.7-7-17.1 0-6.5 2.5-12.6 7-17.1 4.5-4.6 10.6-7.1 17-7.1s12.5 2.5 17 7.1 7 10.7 7 17.1c0 6.5-2.5 12.6-7 17.1-4.5 4.6-10.6 7.1-17 7.1-6.5 0-12.5-2.5-17-7.1" fill-rule="evenodd" clip-rule="evenodd" fill="#f0f0f0"/><ellipse cx="424.1" cy="224.4" rx="21" ry="21.2" fill-rule="evenodd" clip-rule="evenodd" fill="#8f8d9a"/><path d="M423.1 217.1c-.1.2-.2.3-.4.3s-.3-.2-.4-.3c-.1-.2-.1-.3-.1-.5s0-.5.2-.7c.2-.3.5-.2.6 0 .3.4.3.8.1 1.2zm3.3-.1c-.1 0-.2-.1-.2-.2s0-.4-.2-.4-.3.2-.3.4c0 .1 0 .2-.2.2-.1 0-.1-.1-.1-.2 0-.5.4-.9.8-.8.3.1.3.9.2 1zm6.4 2.9c-.7 1.8-1.6 3.2-3.5 3.9 1.4-.8 2.5-1.8 2.9-3.4-.1.1-.2.2-.3.2-1.7 1.5-3.7 2.3-5.9 2.6-2.2.2-4.3 0-6.4-.7-1.6-.6-3.1-1.5-4.1-2.9h-.1c0 .5-.1 1.1.2 1.6.3.5.6.9.8 1.4-.7-.5-1.3-1.2-1.4-2.1-.5.7-.4 1.4.1 2.1.8 1 1.8 1.5 2.9 2 1.3.6 2.7 1 4.1 1.2 1.2.2 2.4.2 3.6-.1 2-.4 3.9-1.2 5.7-2.3.8-.5 1.4-1.2 1.6-2.2 0-.4 0-1-.2-1.3zm-3.6.6c-.7-.4-1.4-.7-2.2-.9-1.9-.5-3.9-.4-5.8 0-.9.2-1.7.5-2.5 1-.3.2-.3.4 0 .6.4.2.9.4 1.5.5-.2-.2-.3-.4-.4-.6 2.8 2 5.7 1.9 8.5-.1-.2.4-.4.5-.7.7.6 0 1.1-.2 1.5-.5.6-.3.6-.4.1-.7zm-2.1-5.5c-.5-.9-1.5-.9-2 0-.3.5-.4 1-.4 1.5 0 .6.1 1.2.5 1.7s.9.6 1.5.3c.4-.2.6-.6.7-1 .2-.7.2-1.7-.3-2.5zm-4.2-.1c-.5-.7-1.3-.7-1.8 0-.7.9-.7 2.5 0 3.4.5.6 1.2.6 1.7.1s.6-1.1.6-1.7c0-.7-.1-1.3-.5-1.8zm-2.8 12.4c-.2-.5-.2-1-.3-1.5 0-.1 0-.2-.1-.3-.5-.1-1-.4-1.5-.6-.1 0-.2 0-.2.1-.1.8-.3 1.6-.3 2.4 0 .9.3 1.2 1.1 1.4.5.1 1.1.1 1.7.1.4 0 .6-.2.6-.6 0-.7 0-1.4-.1-2.1 0-.3-.3-.5-.6-.4-.2 0-.1.3-.2.4v1.4c-.1-.2-.1-.3-.1-.3zm-4.4 1.1c.3 1.5 1.2 2.6 2.4 3.5.6.5 1.3.8 2 1.1 1.1.5 2.3.7 3.5.8.8.1 1.6.2 2.3 0 2-.5 3.8-1.5 5.1-3.1.7-.9 1.1-1.8 1.2-2.9.1-1.3-.4-2.5-1.1-3.6-.1-.1-.1-.1-.3 0-.5.3-1 .6-1.5.8-1.8.8-3.6 1.3-5.5 1.2-.8 0-1.6-.1-2.4-.3v2.4c0 .4-.3.8-.6.9-.7.1-1.5.2-2.2-.1-.5-.2-.9-.6-.9-1.2-.1-1 0-2 .1-3 0-.1 0-.2-.1-.2-.3-.2-.6-.3-.9-.5-.2-.2-.3-.1-.4.1 0 .1-.1.2-.1.3-.8 1.2-.9 2.5-.6 3.8zm-.2 3.5l-.6.3-.3.3v.2c0 .1.1 0 .2 0 .2 0 .3-.1.5-.1-.2.2-.4.3-.6.5-.3.3-.3.6 0 .8.4.4.9.6 1.4.7 1.7.4 3.4.4 5 0 .4-.1.9-.2 1.3-.5.1 0 .1-.1.1-.2s-.1 0-.2 0c-.8-.1-1.6-.3-2.4-.5-1.1-.3-2.2-.8-3.1-1.5-.4-.2-.9-.2-1.3 0zm10.6 2.6c1.8.6 3.7.7 5.6.2.6-.2 1.2-.4 1.4-1.1.2-.5-.1-.9-.6-.9h-.9c-.1 0-.1 0-.2-.1l.1-.1c.2-.1.5-.1.8-.2-.4-.3-.7-.4-1-.6-.3-.1-.4-.1-.7.1-1.5 1.3-3.2 2-5.1 2.3.1.3.4.3.6.4zm8.8-9.4c.5 1.3.7 2.6.3 3.9l-.3.6c-.4.4-.7.4-1 0-.3-.4-.6-.9-.9-1.3-.5 1.1-.9 2.2-1.8 3.1.1.1.2.2.3.2.5.2.9.5 1.3.8.8.6.8 1.5-.1 2.1-.7.4-1.5.6-2.2.7-1.2.1-2.3.1-3.5-.1-.8-.1-1.5-.3-2.3-.6-.5-.2-.9 0-1.4-.2-.1 0-.1.1-.2.1-.6.4-1.2.7-1.8.8-1.1.3-2.3.3-3.4.2-.9-.1-1.8-.2-2.7-.5-.2-.1-.5-.2-.7-.4-.5-.4-.5-1-.4-1.5.1-.6.6-.8 1.1-1 .3-.1.6-.2 1-.2-.1-.2-.3-.3-.5-.5-.5-.4-.9-.9-1.3-1.4-.3-.5-.6-1.1-.7-1.6 0-.1 0-.1-.1-.1s-.1.1-.1.1c-.2.5-.5.9-.9 1.2-.2.2-.4.3-.7.3-.3.1-.4 0-.5-.3-.2-.5-.3-1.1-.2-1.6.1-1.4.5-2.6 1.3-3.7.5-.8 1.2-1.5 2-2.1.1-.1.2-.2.1-.4-.1-.4 0-.9.2-1.3.2-.3.3-.7.3-1 0-.2.1-.5.3-.7.2-.2.1-.5.1-.8.2-1.3.7-2.5 1.4-3.5 1.1-1.6 2.6-2.8 4.6-3.2 1.2-.3 2.4-.3 3.7-.2 1.2.1 2.3.5 3.4 1 1.9 1 2.9 2.6 3.5 4.6.2.6.3 1.1.3 1.7 0 .4.3.7.4 1.1.4.8.5 1.5.2 2.4-.1.2 0 .2.1.3.8.9 1.3 2 1.8 3z" fill="#fff"/></g><g><g fill="#fe4d57"><path d="M425.6 75.3c-.8-.8-1.9-.8-2.7 0l-1.9 1.9c-.2.2-.3.2-.5.1l-1.2-.6c-1.8-1.2-3.4-2.6-4.8-4.3-.7-.8-1.3-1.7-1.7-2.7-.1-.2-.1-.3.1-.5.6-.6 1.3-1.2 1.9-1.9.9-.9.9-1.9 0-2.8l-3-3c-.8-.8-1.9-.8-2.7 0l-1.9 1.9c-.6.6-.9 1.3-1 2.1-.1 1.3.2 2.6.7 3.8.9 2.5 2.4 4.8 4.1 6.8 2.3 2.8 5.1 5 8.4 6.6 1.5.7 3 1.3 4.7 1.4 1.1.1 2.1-.2 2.9-1.1.5-.6 1.2-1.2 1.7-1.7.9-.9.9-1.9 0-2.8-1.1-1.2-2.1-2.2-3.1-3.2zm0 0"/><path d="M435.9 54.1c-4-4-10.6-4-14.7 0-3.9 3.9-4 10.1-.4 14.2l.1.1c-.4.8-1.1 1.9-2.1 2.4-.4.2-.3.7.1.8 1.2.2 2.8 0 4.4-1.2 4 2.3 9.2 1.8 12.6-1.6 4.1-4.1 4.1-10.7 0-14.7zm-6.9.9c.9 0 1.7.8 1.7 1.7 0 .9-.8 1.7-1.7 1.7-.9 0-1.7-.8-1.7-1.7s.8-1.7 1.7-1.7zm2.4 11.4c0 .1-.1.3-.2.4-.6.6-1.3 1-2.2 1-.4 0-.8 0-1.2-.1-.7-.1-1.5-.9-1.4-1.8l.3-1.8c.2-1.1.4-2.1.6-3.2v-.2c0-.4-.1-.6-.6-.7-.2 0-.4 0-.6-.1-.2-.1-.3-.2-.3-.4s.1-.3.4-.3h3.6c.4 0 .6.2.6.6 0 .3 0 .7-.1 1-.2 1.2-.4 2.4-.7 3.6-.1.4-.2.8-.2 1.2 0 .2 0 .4.1.6.1.3.3.4.5.4s.4-.1.6-.2c.2-.1.3-.2.5-.2.2-.2.4-.1.3.2zm0 0"/></g></g><g fill="#afafaf"><path d="M425.6 30.3c-.8-.8-1.9-.8-2.7 0l-1.9 1.9c-.2.2-.3.2-.5.1l-1.2-.6c-1.8-1.2-3.4-2.6-4.8-4.3-.7-.8-1.3-1.7-1.7-2.7-.1-.2-.1-.3.1-.5.6-.6 1.3-1.2 1.9-1.9.9-.9.9-1.9 0-2.8l-3-3c-.8-.8-1.9-.8-2.7 0l-1.9 1.9c-.6.6-.9 1.3-1 2.1-.1 1.3.2 2.6.7 3.8.9 2.5 2.4 4.8 4.1 6.8 2.3 2.8 5.1 5 8.4 6.6 1.5.7 3 1.3 4.7 1.4 1.1.1 2.1-.2 2.9-1.1.5-.6 1.2-1.2 1.7-1.7.9-.9.9-1.9 0-2.8-1.1-1.2-2.1-2.2-3.1-3.2zm0 0"/><path d="M435.9 9.1c-4-4-10.6-4-14.7 0-3.9 3.9-4 10.1-.4 14.2l.1.1c-.4.8-1.1 1.9-2.1 2.4-.4.2-.3.7.1.8 1.2.2 2.8 0 4.4-1.2 4 2.3 9.2 1.8 12.6-1.6 4.1-4.1 4.1-10.7 0-14.7zm-6.9.9c.9 0 1.7.8 1.7 1.7 0 .9-.8 1.7-1.7 1.7-.9 0-1.7-.8-1.7-1.7 0-.9.8-1.7 1.7-1.7zm2.4 11.4c0 .1-.1.3-.2.4-.6.6-1.3 1-2.2 1-.4 0-.8 0-1.2-.1-.7-.1-1.5-.9-1.4-1.8l.3-1.8c.2-1.1.4-2.1.6-3.2v-.2c0-.4-.1-.6-.6-.7-.2 0-.4 0-.6-.1-.2-.1-.3-.2-.3-.4s.1-.3.4-.3h3.6c.4 0 .6.2.6.6 0 .3 0 .7-.1 1-.2 1.2-.4 2.4-.7 3.6-.1.4-.2.8-.2 1.2 0 .2 0 .4.1.6.1.3.3.4.5.4s.4-.1.6-.2c.2-.1.3-.2.5-.2.2-.2.4-.1.3.2zm0 0"/></g></svg>