<svg xmlns="http://www.w3.org/2000/svg" width="51.6" height="12.6"><path d="M0 8.6c1.4-.7 2.5-1.7 3.4-3l.9.4c-.1.2-.3.4-.5.6h7.9c-.1 1.6-.2 2.8-.2 3.7-.1 1.4-.8 2-2.1 2.1H7.2c0-.4-.1-.7-.2-1.1.7.1 1.4.1 2.1.1.8 0 1.2-.4 1.3-1.2.1-.8.2-1.7.2-2.7h-2c-.5 2.2-2 3.9-4.5 5.1-.2-.3-.5-.6-.7-.9 2.4-1 3.8-2.4 4.2-4.3H5.8c-.6 1.8-2.3 3.2-4.9 4.2-.2-.3-.5-.6-.7-.8 2.5-.9 4-2.1 4.6-3.4H3c-.7.8-1.5 1.5-2.4 2-.1-.2-.4-.5-.6-.8zm1.6-8H11v5.3h-1v-.5H1.6V.6zm8.4.9H2.6v1H10v-1zm-7.4 3H10v-1H2.6v1zm12.1-1.6h2.7c.2-.9.4-1.9.5-2.9l1.1.1c-.1 1-.3 1.9-.5 2.8h7v.9h-7.3c-.2.6-.3 1.1-.5 1.6H24v.9c-.6 1.4-1.4 2.6-2.6 3.6 1.2.7 2.6 1.2 4.2 1.5-.4.4-.7.8-.9 1.1-1.4-.4-2.7-1.1-4.1-2-1.1.7-2.7 1.4-4.7 2.1-.2-.3-.5-.7-.8-.9 2.1-.5 3.6-1.1 4.7-1.7-1.1-1-1.9-2.2-2.4-3.6-.9 2.3-2.2 4.2-3.8 5.7-.2-.3-.5-.6-.7-.9 1.9-1.7 3.3-4.2 4.2-7.3h-3.5v-1c.3-.8.7-1.6 1-2.4l1 .3-.9 2.1zm8.2 3.4h-4.6c.4 1.2 1.1 2.2 2.3 3 1.1-.9 1.8-1.9 2.3-3zm-2-5.4l.6-.7c.8.5 1.6 1.1 2.4 1.6l-.7.8c-.7-.6-1.5-1.2-2.3-1.7zm5.8-.2h11.1v11.8h-1v-.6h-9.2v.6h-1V.7zm10.2.9h-9.2V11h9.2V1.6zm-8.6 7.2h3.5V6.3h-3.1v-.9h3.1V3.7h-3.3v-.9h7.6v.9h-3.3v1.7h3.1v.9h-3.1v2.5h3.5v.9h-8v-.9zm5.1-1.7l.7-.5c.5.4.9.9 1.2 1.3l-.7.6c-.5-.6-.8-1-1.2-1.4zm10 .3c.2 1.6-.2 2.5-1.2 2.7-.3.1-.8.1-1.3 0-.1-.3-.2-.7-.3-1 .4.1.8.1 1.2.1.6-.1.8-.7.6-1.8-.1-.7-.5-1.4-1.2-2.3.3-1 .7-2.2 1-3.4h-1.7v10.8h-1V.8h3.7v.9c-.3 1.3-.7 2.3-1 3.3.7.9 1.1 1.7 1.2 2.4zm1.4-.8l.9.3c-.6 1.6-1.2 3.1-1.9 4.4-.4-.2-.7-.4-.9-.4.8-1.4 1.4-2.8 1.9-4.3zm-1.7-2.3h8.3v.9h-3.7v5.6c0 1-.5 1.5-1.5 1.5h-1.5c-.1-.5-.1-.8-.2-1.1.6.1 1.1.1 1.5.1.5 0 .7-.3.7-.8V5.2h-3.6v-.9zm.7-3.2h6.9V2h-6.9v-.9zM48.7 7l.9-.4c.7 1.4 1.4 2.8 2 4.1l-.9.4c-.5-1-1.2-2.4-2-4.1z" fill="#979797"/></svg>