<svg xmlns="http://www.w3.org/2000/svg" width="73" height="27" viewBox="0 0 73 27"><path d="M70.8 19.4h-.3c-.1 0-.2.1-.2.1-.1 0-.3 0-.4-.1H59.5c-.1 0-.4.1-.6.1-.6 0-1-.2-.9-.4v-.3c.1-.1.2-.3.2-.4.1-.5.2-1.3.4-2.3 0-.2.1-.4.1-.6v-.6c0-.2 0-.4.1-.6 0-.2.1-.3.3-.3h1c.4 0 .6.2.5.6 0 .1-.1.3-.1.4l-.5 3h3.7c0-.2 0-.5.2-.9.1-.4.2-.7.2-1 0-.2.1-.6.1-1.1.2-1.1.3-1.9.5-2.6h-3.4c-.3.1-.5.2-.8.1-.7 0-1-.1-.9-.4 0 0 0-.1.1-.3.1-.1.1-.3.1-.4.2-1.2.4-2.2.5-3V7.3c0-.1.1-.2.4-.3l.3.2h.9c.4 0 .6.1.5.5 0 .1-.1.3-.1.4l-.6 2.9h3.2l.6-3.3c0-.1 0-.4.1-.7 0-.3.1-.6.1-.8 0-.1.1-.2.3-.3 0 0 .1 0 .3.1h.8l.1.1c.3 0 .5.1.4.5 0 .2-.1.4-.2.5-.1 0-.3 1.3-.8 3.9H70l.5-2.7v-.5c-.1-.2 0-.4 0-.6 0-.2.1-.3.3-.3.2.1.3.1.5.1.3 0 .6 0 .8-.1l.1.1c.3 0 .4.1.4.3 0 .2-.1.4-.2.6-.1.3-.3 1.5-.7 3.4v.8c-.1.2-.2.3-.3.4-.3.1-.4.1-.5.1-.4 0-.7 0-.8-.1h-3.6c-.3 2-.7 3.8-1 5.6h3.9l.5-2.7v-.6c0-.2.1-.4.1-.6 0-.2.2-.3.4-.4 0 0 .2 0 .3.1h.7l.1.1c.3 0 .5.1.4.4-.1.2-.2.4-.2.6 0 .2-.2 1.1-.5 2.6-.1.7-.1 1.1-.1 1.1v.1c0 .1.1.2.1.4-.1 0-.2.1-.4.2zm-19.9-11c0-.1 0-.2.1-.4.1-.3.1-.6.2-.8 0-.6.2-1 .7-1.1.8.1 1.2.4 1.3.7-.5 1-1 1.6-1.6 1.8-.5 0-.7 0-.7-.2zm-6 4.2c-.7 0-1.1-.3-1.2-1.1C45.5 10.9 47 9.4 48 7v-.1c.1-.4.3-.7.6-.7.8.4 1.2.7 1.2.9 0 .2-.2.4-.4.6l-.2.1c-.2.2-.4.5-.7.9-.1.2-.2.3-.3.4.6 0 1.7.1 3 .1h3c.4 0 .6.2.5.6-.1.2-.1.3-.1.4v.4c0 .2-.2.3-.4.2H53c-.3 0-.8-.1-1.5-.1l-.3 1.5h2.3c.4 0 .6.2.5.6 0 .1 0 .2-.1.4-.1 0-.1.1 0 .1v.1c-.1.1-.2.2-.3.2H51l-.1 1.4h1.3c.5 0 .9-.1 1.2-.1.3 0 .4.4.3 1.1v.1c0 .2-.2.3-.5.2h-2.5l-.3 1.7c.1 0 .4 0 .7.1h.8c.7 0 1.4-.1 2.1-.2l-.1.4c-.3.8-.7 1.2-1.2 1.3-.4 0-.9 0-1.6-.1s-1.2-.1-1.5-.1c-1.1 0-2.1 0-3.1.1-.1 0-.1 0-.1.1 0 .2-.1.3-.3.3-.1 0-.2 0-.3-.1h-.7c-.1 0-.2.1-.3.1-.2 0-.3-.1-.2-.4 0-.1 0-.2.1-.4s.1-.4.2-.6c.5-2.2.7-3.1.6-2.7.1-.5.2-1 .3-1.6.1-.5.3-1.2.5-2.2-.7.3-1.1.5-1.4.6zm4.9-.5l.3-1.5h-2c-.1.5-.2 1-.2 1.4.2 0 .5 0 .9.1h1zm-.3 1.5h-.2c-.5 0-.8 0-1.1.1h-.8c0 .1 0 .2-.1.4 0 .3-.1.6-.2 1.1h2l.4-1.6zm-2 4.5c.3 0 .7-.1 1.2-.1l.3-1.5h-2.1l-.3 1.6h.9zm-4.8-3.3c-.1.4-.2.9-.3 1.6-.1.8-.2 1.3-.2 1.7-.2 1.4-1 2-2.5 2-.8 0-1.1-.4-1.1-1.2l.1-.5c.4.1.8.1 1.2.1.4 0 .6-.2.7-.8.1-.7.3-1.5.4-2.3-1.1.4-1.8.6-2 .6-.3 0-.4-.2-.2-.6 0-.1 0-.3.1-.4 0 0-.1 0-.1-.1v-.3s0-.1.1-.2c0 0 0-.1.1-.1.5-.2.9-.3 1.1-.2.1 0 .5-.2 1.1-.4.2-1 .4-2.1.6-3.2-.2 0-.5 0-.9.1s-.7.1-.9.1c0 0-.1 0-.1-.1-.1 0-.1-.1 0-.3.1-.6.2-1 .4-1.3.2 0 .4-.1.6-.1.2 0 .3 0 .5.1h.8c0-.1 0-.4.1-.7 0-.3 0-.5.1-.7V7c0-.3 0-.6.1-.8s.2-.3.5-.4c.5.1.9.1 1.1 0 .4 0 .5.3.4.6 0 .2-.1.4-.2.6-.2.7-.4 1.3-.5 1.9h1.3-.1c.2 0 .3.1.2.2 0 .1-.1.3-.1.6v.6c-.1.2-.2.2-.3.1h-1.4c-.1.2-.1.4-.1.8 0 .3 0 .6-.1.7l-.2 1.3c.2 0 .5-.1.7-.2.4-.1.7-.2.7-.2 0 .1.1.2.1.2 0 .1-.1.3-.2.5s-.1.3-.1.4c-.1.5-.4.7-.8.6-.3.1-.3.1-.2.1 0 .1-.2.1-.5.2zm-8.2-7.6h.1c.3 0 .5.1.8.4.2.1.3.3.3.5 0 .1-.2.4-.7.6-.2.2-.5.5-.9.8-.8.7-1.6 1.2-2.5 1.8-1.9 1.1-3.4 1.7-4.5 1.8-.8 0-1.3-.4-1.5-1.3 1.1-.1 2.3-.4 3.5-.8-.2-.2-.5-.4-.7-.6.2-.3.6-.7 1.1-1 .3.2.5.4.6.6.1.1.3.2.5.4.9-.5 1.6-1 2.2-1.5-.3 0-.6 0-1.1.1h-2c-1.1 1-2.1 1.5-2.9 1.4-.7 0-1.1-.4-1.2-1.1 2.1-.5 3.6-1.4 4.6-2.8.1-.3.2-.5.3-.6.1 0 .1-.1.2-.1.6.2 1 .4 1.2.6 0 .2-.2.4-.4.6h.1c-.2.1-.3.3-.4.4h3.1c.1-.1.1-.2.2-.2zm-9.9 7.7v-.2c.1-.6.3-.9.5-1.1.3 0 .6-.1.9-.1.2 0 .4 0 .5.1h5.1l.1-.6v-.5c0-.2 0-.4.1-.6 0-.3.1-.4.4-.4 0 0 .2 0 .3.1h.6c.5-.1.7.1.5.6-.1.1-.1.3-.2.5v.3l-.1.6H35c.5 0 1-.1 1.4-.2-.4 1.3-1 2-1.6 2h-.1c-.8-.1-1.3-.2-1.4-.2-.1 0-.1 0-.1-.1l-.5 3.5c-.2.9-1.1 1.4-2.6 1.4-1.1 0-1.5-.6-1.3-1.7.4.1.8.1 1.2.1.6.1 1-.2 1.1-.8l.5-2.6h-.8c-.3 0-.5-.1-.6-.1h-.3c-.9 0-1.7 0-2.2.1-.6 0-1.1.1-1.6.1-.3.1-.7.1-1 .1-.4 0-.5-.1-.5-.3zm1.9 2.9c-.6.1-.8-.1-.7-.6.1-.3.1-.6.1-.8 0-.3.3-.5.7-.5.2 0 .4.1.7.1h.6c.2 0 .5-.1.6-.1h.1c.2 0 .3 0 .3.1s-.1.2-.1.3c-.1.1-.1.2 0 .3-.6.5-1.4.9-2.3 1.2zM20 16.4c-.2-.1-.4-.5-.5-1.3v-.2c.5-.3.9-.5 1.1-.4.2 0 .9-.3 1.8-.8 0-.2.1-.6.2-1.2.1-.5.2-.9.3-1.2-.3 0-.5 0-.8-.1-.5-.1-1-.1-1.2-.1-.3 0-.5 0-.4-.3 0 0 0-.2.1-.4l.3-.6c0-.4.2-.6.5-.6.2 0 .4.1.6.2.2.1.3.1.5.1l.9.2.3-1.8c0-.1 0-.4.1-.7 0-.3.1-.5.1-.6 0 0-.1 0-.1-.1-.1-.3 0-.5.3-.5 0 0 .1 0 .3.1.2 0 .3.1.5.1 0 0 .1 0 .2-.1.5 0 .7.3.5.8-.1.3-.2.6-.3 1V8c-.2.3-.4 1.7-.8 4-.1.7-.1 1.1-.1 1.2l-.4 1.6c-.1.6-.2 1.4-.4 2.5-.1 1-.2 1.8-.3 2.2 0 .2-.2.3-.4.3h-1.1c-.4 0-.5-.1-.5-.2 0-.2.1-.3.1-.4.1-.4.2-.9.3-1.5.1-.5.3-1.3.5-2.3L21 16c-.7.2-1 .4-1 .4zM12.3 11c-.1.7-.2 1.3-.4 2-.1.8-.2 1.5-.3 2.3-.1.5-.2 1.3-.4 2.3-.1 1-.2 1.7-.3 2 0 .1-.3.2-.9.1h-.5c-.2 0-.3.1-.4.1-.2 0-.2-.1-.2-.3.1-.4.3-1.3.5-2.5.3-1.2.5-2.2.6-2.8.2-.9.3-1.7.4-2.5.1-.8.3-1.5.3-2 .2-1.1.3-1.7.3-1.8-.2-.2-.2-.4-.1-.8 0-.2.4-.4 1.1-.5.1 0 .3 0 .5.1h3.9c.2-.1.4-.1.6-.1.7 0 .9.2.9.6 0 .1-.1.2-.1.3-.1 0-.1.1 0 .1-.2.3-.4.8-.5 1.5-.2.7-.3 1.6-.5 2.7-.1.4-.2 1-.3 1.8-.1.8-.2 1.4-.2 1.8-.3 1.2-1.1 1.8-2.6 1.8-1.3.1-1.8-.6-1.6-2 .1 0 .5.1 1.3.1.8.1 1.2 0 1.2-.6l1.1-6.3v-.1H13c-.3.6-.5 1.6-.7 2.7zM2.2 19.3c-.3.1-.5.2-.7.2-.6-.1-1-.3-1-.6 0-.1.1-.3.3-.6.1-.1.1-.2.2-.3.1 0 .2-.6.4-1.5.1-.5.2-1.1.3-1.8.2-.7.3-1.5.5-2.3.1-.6.2-1.2.2-1.8.1-.6.2-1 .2-1.4.2-.8.3-1.3.4-1.4 0 0-.1-.1-.1-.3-.1-.2-.1-.3-.1-.5.1-.4.4-.6 1-.6.2 0 .4.1.6.2h1.3c.4 0 1-.1 1.8-.1h1.4c.1 0 .3-.1.6-.1.5.1.7.3.7.6 0 .2-.1.4-.3.6-.1.2-.4 1.3-.7 3.2v.4c-.1.2-.2.6-.2 1.2 0 .5-.1.9-.1 1.1-.2.3-.3.5-.5.5h-.2c-.4 0-.6 0-.7-.1h-4c-.3 1.8-.6 3-.7 3.8.5-.1 1.4-.4 2.6-.6.4-.1.6-.2.8-.3-.1-.1-.1-.3-.2-.5s-.1-.3-.1-.4c0 0-.1 0-.1-.1-.2-.4-.2-.6-.2-.7V15c0-.3.5-.5 1.3-.6.4 0 .5.4.4 1 .5 1.7.9 3 1 3.7v.1c-.7.2-1.2.4-1.3.4-.2 0-.3-.1-.3-.3-.1-.1-.2-.3-.2-.6-.1-.2-.1-.4 0-.6-.4.1-1 .3-1.9.5-1.2.4-2 .6-2.4.7zm5.6-9.8l.3-1.7H4.5l-.2 1.7h3.5zm-2.3 3.1h1.8l.3-1.7H4l-.3 1.7h1.8z" fill="#fff"/><path d="M0 0h73v1H0V0zm0 26h73v1H0v-1z" fill="#a0a0a0"/></svg>