<svg xmlns="http://www.w3.org/2000/svg" width="38" height="18" viewBox="0 0 38 18"><linearGradient id="a" gradientUnits="userSpaceOnUse" x1="19.003" y1="17.999" x2="19.003" y2="-.021"><stop offset="0" stop-color="#e84300"/><stop offset="1" stop-color="#ff8000"/></linearGradient><path fill="url(#a)" d="M20.146-.008h-9.608S5.418-.422 4.132 3.22L.014 17.979H28.84s5.68.521 6.406-3.689L37.991-.007H20.146z"/><path fill="#FFF" d="M27.579 14.259c-.554 0-.882-.308-.988-.924v-2.664c0-.472-.272-.709-.817-.709h-7.34V8.501h8.54c.963 0 1.445.466 1.445 1.397v4.35l-.84.011zm.552-6.198l-9.433.011V6.783h9.433v1.278zM18.518 5.3l.276-1.181h1.774l-.213.773h8.063v1.45h-8.891c-.687.007-1.023-.34-1.009-1.042zm-6.204 2.385c-1.111 2.922-2.701 5.113-4.769 6.574l.011-2.256c2.053-2.127 3.324-4.755 3.813-7.884h1.933l-.595 2.524h1.073l3.792 7.552-2.028.01-3.23-6.52z"/></svg>