<svg xmlns="http://www.w3.org/2000/svg" width="45" height="21" viewBox="0 0 45 21"><path fill="#93030e" d="M5.3 0h37.6l1.7 3-5.1 18H1.3L0 18.5z"/><path fill="#cf1f41" d="M5.3 0h37.6l-5.4 18.5H0z"/><path d="M5.8 11.1h2.1c-.4.9-.7 1.8-1.1 2.7l-1.2 2.4H3.5c.9-1.7 1.7-3.4 2.3-5.1zm4.7-8.8v-.6h2.8c0 .2.1.4.1.6h2.3L15 4.4h-.5l-.9 1.5h1.1l-.6 2.2h-2.6l-.1.4h2.4l-.6 2.2h-2.4l-.6 2c-.3 1.1-.8 2.3-1.3 3.4H5.7c.9-1.1 1.5-2.2 1.8-3.4l.6-2H5.5l.6-2.2h2.6l.1-.4H6.1l.6-2.2h1.2V4.4h-.5L8 2.3h2.5zM12 4.4h-1.6v1.5h.7c.3-.5.6-.9.9-1.5zm-1.3 6.7h1.9c-.2 1.5-.5 3-.7 4.5.3-.5.5-1 .7-1.6.2-.6.5-1.2.6-1.8l3-10.2 6.6-.4-.7 2.5-4 .2-.4 1.3h4.2L21.2 8h-.8L18 16.2h-2.5L17.9 8h-.8l-1.2 4.1c-.2.8-.5 1.6-.8 2.3-.2.6-.5 1.1-.8 1.7H9.8c.3-1.6.6-3.3.9-5zm19.5-2.2l-2.4 7.3h-6.9l2.4-7.3h6.9zm8.2-7l-2.1 6.4H24.9L27 1.9h11.4zM24.3 13.7H26l.8-2.5h-1.7l-.8 2.5zm4.4-7.8h5.4l.5-1.6h-5.4l-.5 1.6zm8.9 3l-2.4 7.3h-6.9l2.4-7.3h6.9zm-5.9 4.8h1.7l.8-2.5h-1.7l-.8 2.5z" fill="#fff"/></svg>